<mxfile host="app.diagrams.net" agent="Mozilla/5.0 (Windows NT 10.0; Win64; x64) AppleWebKit/537.36 (KHTML, like Gecko) Chrome/132.0.0.0 Safari/537.36 OPR/117.0.0.0" version="26.1.1" pages="4">
  <diagram name="ER" id="_w4xVroBaixr34PAwp4f">
    <mxGraphModel grid="1" page="1" gridSize="10" guides="1" tooltips="1" connect="1" arrows="1" fold="1" pageScale="1" pageWidth="827" pageHeight="1169" math="0" shadow="0">
      <root>
        <mxCell id="0" />
        <mxCell id="1" parent="0" />
        <mxCell id="EYeeEo9tqfOp22l6I7jW-1" style="rounded=0;orthogonalLoop=1;jettySize=auto;html=1;entryX=0;entryY=0.5;entryDx=0;entryDy=0;endArrow=none;endFill=0;startArrow=block;startFill=1;strokeWidth=2;shape=link;exitX=1;exitY=0.5;exitDx=0;exitDy=0;" edge="1" parent="1" source="EYeeEo9tqfOp22l6I7jW-2" target="EYeeEo9tqfOp22l6I7jW-19">
          <mxGeometry relative="1" as="geometry">
            <mxPoint x="363.99999999999955" y="1111" as="targetPoint" />
          </mxGeometry>
        </mxCell>
        <mxCell id="EYeeEo9tqfOp22l6I7jW-2" value="&lt;b&gt;Administrador&lt;/b&gt;" style="rounded=0;whiteSpace=wrap;html=1;strokeWidth=2;fillColor=#dae8fc;strokeColor=#6c8ebf;" vertex="1" parent="1">
          <mxGeometry x="229" y="1090" width="100" height="40" as="geometry" />
        </mxCell>
        <mxCell id="EYeeEo9tqfOp22l6I7jW-3" value="&lt;b&gt;Incidentes&lt;/b&gt;" style="rounded=0;whiteSpace=wrap;html=1;strokeWidth=2;fillColor=#e1d5e7;strokeColor=#9673a6;" vertex="1" parent="1">
          <mxGeometry x="610" y="932.8700000000001" width="90" height="49" as="geometry" />
        </mxCell>
        <mxCell id="EYeeEo9tqfOp22l6I7jW-4" style="edgeStyle=none;shape=connector;rounded=0;orthogonalLoop=1;jettySize=auto;html=1;entryX=0;entryY=0.5;entryDx=0;entryDy=0;strokeColor=default;align=center;verticalAlign=middle;fontFamily=Helvetica;fontSize=11;fontColor=default;labelBackgroundColor=default;endArrow=none;endFill=0;strokeWidth=2;startArrow=block;startFill=1;exitX=1;exitY=0.5;exitDx=0;exitDy=0;" edge="1" parent="1" source="EYeeEo9tqfOp22l6I7jW-5" target="epzLICp0Lz9m3S4BSs6d-5">
          <mxGeometry relative="1" as="geometry">
            <mxPoint x="420" y="945" as="targetPoint" />
          </mxGeometry>
        </mxCell>
        <mxCell id="EYeeEo9tqfOp22l6I7jW-5" value="&lt;b&gt;Cliente&lt;/b&gt;" style="rounded=0;whiteSpace=wrap;html=1;strokeWidth=2;fillColor=#dae8fc;strokeColor=#6c8ebf;" vertex="1" parent="1">
          <mxGeometry x="229" y="926" width="100" height="40" as="geometry" />
        </mxCell>
        <mxCell id="EYeeEo9tqfOp22l6I7jW-9" value="&lt;b&gt;Categoria&lt;/b&gt;" style="rounded=0;whiteSpace=wrap;html=1;strokeWidth=2;fillColor=#e1d5e7;strokeColor=#9673a6;" vertex="1" parent="1">
          <mxGeometry x="605" y="1196.3700000000001" width="100" height="40" as="geometry" />
        </mxCell>
        <mxCell id="EYeeEo9tqfOp22l6I7jW-18" style="edgeStyle=none;shape=link;rounded=0;orthogonalLoop=1;jettySize=auto;html=1;entryX=0;entryY=0.75;entryDx=0;entryDy=0;strokeColor=default;align=center;verticalAlign=middle;fontFamily=Helvetica;fontSize=11;fontColor=default;labelBackgroundColor=default;endArrow=none;endFill=0;strokeWidth=2;exitX=1;exitY=0.5;exitDx=0;exitDy=0;" edge="1" parent="1" source="EYeeEo9tqfOp22l6I7jW-19" target="EYeeEo9tqfOp22l6I7jW-3">
          <mxGeometry relative="1" as="geometry">
            <Array as="points">
              <mxPoint x="580" y="1110" />
              <mxPoint x="580" y="970" />
            </Array>
          </mxGeometry>
        </mxCell>
        <mxCell id="EYeeEo9tqfOp22l6I7jW-19" value="Gestionar" style="rhombus;whiteSpace=wrap;html=1;strokeWidth=2;fontStyle=1" vertex="1" parent="1">
          <mxGeometry x="390" y="1070" width="100" height="80" as="geometry" />
        </mxCell>
        <mxCell id="EYeeEo9tqfOp22l6I7jW-20" style="shape=link;rounded=0;orthogonalLoop=1;jettySize=auto;html=1;entryX=0;entryY=0.25;entryDx=0;entryDy=0;strokeColor=default;align=center;verticalAlign=middle;fontFamily=Helvetica;fontSize=11;fontColor=default;labelBackgroundColor=default;endArrow=none;endFill=0;strokeWidth=2;exitX=1;exitY=0.5;exitDx=0;exitDy=0;" edge="1" parent="1" source="epzLICp0Lz9m3S4BSs6d-5" target="EYeeEo9tqfOp22l6I7jW-3">
          <mxGeometry relative="1" as="geometry">
            <mxPoint x="495" y="945" as="sourcePoint" />
          </mxGeometry>
        </mxCell>
        <mxCell id="EYeeEo9tqfOp22l6I7jW-22" value="&lt;b&gt;Fecha&lt;/b&gt;" style="ellipse;whiteSpace=wrap;html=1;strokeWidth=2;" vertex="1" parent="1">
          <mxGeometry x="792" y="859.5" width="90" height="40" as="geometry" />
        </mxCell>
        <mxCell id="EYeeEo9tqfOp22l6I7jW-23" value="&lt;b&gt;Hora&lt;/b&gt;" style="ellipse;whiteSpace=wrap;html=1;strokeWidth=2;" vertex="1" parent="1">
          <mxGeometry x="792" y="914.5" width="90" height="40" as="geometry" />
        </mxCell>
        <mxCell id="EYeeEo9tqfOp22l6I7jW-24" value="&lt;b&gt;Ubicacion&lt;/b&gt;" style="ellipse;whiteSpace=wrap;html=1;strokeWidth=2;" vertex="1" parent="1">
          <mxGeometry x="792" y="969.5000000000002" width="90" height="40" as="geometry" />
        </mxCell>
        <mxCell id="EYeeEo9tqfOp22l6I7jW-25" value="&lt;b&gt;Descripcion&lt;/b&gt;" style="ellipse;whiteSpace=wrap;html=1;strokeWidth=2;" vertex="1" parent="1">
          <mxGeometry x="792" y="1024.5000000000002" width="90" height="40" as="geometry" />
        </mxCell>
        <mxCell id="EYeeEo9tqfOp22l6I7jW-27" value="" style="endArrow=none;html=1;rounded=0;exitX=0;exitY=0.5;exitDx=0;exitDy=0;entryX=0.75;entryY=0;entryDx=0;entryDy=0;strokeWidth=2;" edge="1" parent="1" source="EYeeEo9tqfOp22l6I7jW-30" target="EYeeEo9tqfOp22l6I7jW-3">
          <mxGeometry width="50" height="50" relative="1" as="geometry">
            <mxPoint x="440" y="984.8700000000001" as="sourcePoint" />
            <mxPoint x="490" y="934.8700000000001" as="targetPoint" />
          </mxGeometry>
        </mxCell>
        <mxCell id="EYeeEo9tqfOp22l6I7jW-28" value="" style="endArrow=none;html=1;rounded=0;exitX=0;exitY=0.5;exitDx=0;exitDy=0;strokeWidth=2;entryX=1;entryY=0.25;entryDx=0;entryDy=0;" edge="1" parent="1" source="EYeeEo9tqfOp22l6I7jW-23" target="EYeeEo9tqfOp22l6I7jW-3">
          <mxGeometry width="50" height="50" relative="1" as="geometry">
            <mxPoint x="800" y="824.8700000000001" as="sourcePoint" />
            <mxPoint x="670" y="944.8700000000001" as="targetPoint" />
          </mxGeometry>
        </mxCell>
        <mxCell id="EYeeEo9tqfOp22l6I7jW-29" value="" style="endArrow=none;html=1;rounded=0;exitX=0;exitY=0.5;exitDx=0;exitDy=0;strokeWidth=2;entryX=1;entryY=0.5;entryDx=0;entryDy=0;" edge="1" parent="1" source="EYeeEo9tqfOp22l6I7jW-24" target="EYeeEo9tqfOp22l6I7jW-3">
          <mxGeometry width="50" height="50" relative="1" as="geometry">
            <mxPoint x="800" y="884.8700000000001" as="sourcePoint" />
            <mxPoint x="688" y="949.8700000000001" as="targetPoint" />
          </mxGeometry>
        </mxCell>
        <mxCell id="EYeeEo9tqfOp22l6I7jW-30" value="&lt;b&gt;Nombre&lt;/b&gt;" style="ellipse;whiteSpace=wrap;html=1;strokeWidth=2;" vertex="1" parent="1">
          <mxGeometry x="792" y="804.5" width="90" height="40" as="geometry" />
        </mxCell>
        <mxCell id="EYeeEo9tqfOp22l6I7jW-31" value="" style="endArrow=none;html=1;rounded=0;exitX=0;exitY=0.5;exitDx=0;exitDy=0;strokeWidth=2;entryX=1;entryY=0;entryDx=0;entryDy=0;" edge="1" parent="1" source="EYeeEo9tqfOp22l6I7jW-22" target="EYeeEo9tqfOp22l6I7jW-3">
          <mxGeometry width="50" height="50" relative="1" as="geometry">
            <mxPoint x="785.0000000000003" y="819.8700000000001" as="sourcePoint" />
            <mxPoint x="665" y="939.8700000000001" as="targetPoint" />
          </mxGeometry>
        </mxCell>
        <mxCell id="EYeeEo9tqfOp22l6I7jW-32" value="" style="endArrow=none;html=1;rounded=0;exitX=0;exitY=0.5;exitDx=0;exitDy=0;strokeWidth=2;entryX=1;entryY=0.75;entryDx=0;entryDy=0;" edge="1" parent="1" source="EYeeEo9tqfOp22l6I7jW-25" target="EYeeEo9tqfOp22l6I7jW-3">
          <mxGeometry width="50" height="50" relative="1" as="geometry">
            <mxPoint x="810" y="894.8700000000001" as="sourcePoint" />
            <mxPoint x="698" y="959.8700000000001" as="targetPoint" />
          </mxGeometry>
        </mxCell>
        <mxCell id="EYeeEo9tqfOp22l6I7jW-33" value="" style="endArrow=none;html=1;rounded=0;exitX=0;exitY=0.5;exitDx=0;exitDy=0;strokeWidth=2;entryX=1;entryY=1;entryDx=0;entryDy=0;" edge="1" parent="1" source="TI93tzozJsyL8gKTx_uQ-4" target="EYeeEo9tqfOp22l6I7jW-3">
          <mxGeometry width="50" height="50" relative="1" as="geometry">
            <mxPoint x="792" y="1098.5000000000002" as="sourcePoint" />
            <mxPoint x="708" y="969.8700000000001" as="targetPoint" />
          </mxGeometry>
        </mxCell>
        <mxCell id="EYeeEo9tqfOp22l6I7jW-34" value="&lt;b&gt;Estado&lt;/b&gt;" style="ellipse;whiteSpace=wrap;html=1;strokeWidth=2;" vertex="1" parent="1">
          <mxGeometry x="792" y="1133.7500000000002" width="90" height="40" as="geometry" />
        </mxCell>
        <mxCell id="EYeeEo9tqfOp22l6I7jW-36" value="" style="endArrow=none;html=1;rounded=0;exitX=0;exitY=0.5;exitDx=0;exitDy=0;strokeWidth=2;entryX=0.75;entryY=1;entryDx=0;entryDy=0;" edge="1" parent="1" source="EYeeEo9tqfOp22l6I7jW-34" target="EYeeEo9tqfOp22l6I7jW-3">
          <mxGeometry width="50" height="50" relative="1" as="geometry">
            <mxPoint x="801" y="1054.8700000000001" as="sourcePoint" />
            <mxPoint x="710" y="979.8700000000001" as="targetPoint" />
          </mxGeometry>
        </mxCell>
        <mxCell id="EYeeEo9tqfOp22l6I7jW-43" value="&lt;b&gt;&lt;u&gt;CategoriaID&lt;/u&gt;&lt;/b&gt;" style="ellipse;whiteSpace=wrap;html=1;strokeWidth=2;" vertex="1" parent="1">
          <mxGeometry x="540" y="1272.8700000000001" width="90" height="40" as="geometry" />
        </mxCell>
        <mxCell id="EYeeEo9tqfOp22l6I7jW-44" value="&lt;b&gt;Categoria&lt;/b&gt;" style="ellipse;whiteSpace=wrap;html=1;strokeWidth=2;" vertex="1" parent="1">
          <mxGeometry x="680" y="1272.8700000000001" width="90" height="40" as="geometry" />
        </mxCell>
        <mxCell id="EYeeEo9tqfOp22l6I7jW-45" value="" style="endArrow=none;html=1;rounded=0;strokeWidth=2;exitX=0;exitY=0;exitDx=0;exitDy=0;entryX=0.75;entryY=1;entryDx=0;entryDy=0;" edge="1" parent="1" source="EYeeEo9tqfOp22l6I7jW-44" target="EYeeEo9tqfOp22l6I7jW-9">
          <mxGeometry width="50" height="50" relative="1" as="geometry">
            <mxPoint x="710" y="1286.3700000000001" as="sourcePoint" />
            <mxPoint x="601" y="1216.3700000000001" as="targetPoint" />
          </mxGeometry>
        </mxCell>
        <mxCell id="EYeeEo9tqfOp22l6I7jW-46" value="" style="endArrow=none;html=1;rounded=0;strokeWidth=2;exitX=1;exitY=0;exitDx=0;exitDy=0;entryX=0.25;entryY=1;entryDx=0;entryDy=0;" edge="1" parent="1" source="EYeeEo9tqfOp22l6I7jW-43" target="EYeeEo9tqfOp22l6I7jW-9">
          <mxGeometry width="50" height="50" relative="1" as="geometry">
            <mxPoint x="595" y="1276.3700000000001" as="sourcePoint" />
            <mxPoint x="665" y="1226.3700000000001" as="targetPoint" />
            <Array as="points" />
          </mxGeometry>
        </mxCell>
        <mxCell id="EYeeEo9tqfOp22l6I7jW-47" value="Tiene" style="rhombus;whiteSpace=wrap;html=1;strokeWidth=2;fontStyle=1" vertex="1" parent="1">
          <mxGeometry x="610" y="1060" width="90" height="70" as="geometry" />
        </mxCell>
        <mxCell id="EYeeEo9tqfOp22l6I7jW-48" value="" style="endArrow=none;html=1;rounded=0;strokeWidth=2;entryX=0.5;entryY=1;entryDx=0;entryDy=0;exitX=0.5;exitY=0;exitDx=0;exitDy=0;endFill=1;startFill=1;startArrow=block;" edge="1" parent="1" source="EYeeEo9tqfOp22l6I7jW-9" target="EYeeEo9tqfOp22l6I7jW-47">
          <mxGeometry width="50" height="50" relative="1" as="geometry">
            <mxPoint x="715" y="1286.3700000000001" as="sourcePoint" />
            <mxPoint x="685" y="1246.3700000000001" as="targetPoint" />
          </mxGeometry>
        </mxCell>
        <mxCell id="EYeeEo9tqfOp22l6I7jW-49" value="" style="endArrow=block;html=1;rounded=0;strokeWidth=2;entryX=0.5;entryY=1;entryDx=0;entryDy=0;exitX=0.5;exitY=0;exitDx=0;exitDy=0;endFill=1;shape=link;" edge="1" parent="1" source="EYeeEo9tqfOp22l6I7jW-47" target="EYeeEo9tqfOp22l6I7jW-3">
          <mxGeometry width="50" height="50" relative="1" as="geometry">
            <mxPoint x="655" y="1030.8700000000001" as="sourcePoint" />
            <mxPoint x="655" y="979.8700000000001" as="targetPoint" />
          </mxGeometry>
        </mxCell>
        <mxCell id="EYeeEo9tqfOp22l6I7jW-50" value="" style="triangle;whiteSpace=wrap;html=1;rotation=-90;fillColor=#000000;" vertex="1" parent="1">
          <mxGeometry x="650" y="974.8700000000001" width="10" height="20" as="geometry" />
        </mxCell>
        <mxCell id="EYeeEo9tqfOp22l6I7jW-52" value="&lt;b&gt;Usuarios&lt;/b&gt;" style="rounded=0;whiteSpace=wrap;html=1;strokeWidth=2;fillColor=#e1d5e7;strokeColor=#9673a6;" vertex="1" parent="1">
          <mxGeometry x="12" y="995.12" width="90" height="40" as="geometry" />
        </mxCell>
        <mxCell id="EYeeEo9tqfOp22l6I7jW-53" value="&lt;b&gt;Correo&lt;/b&gt;" style="ellipse;whiteSpace=wrap;html=1;strokeWidth=2;" vertex="1" parent="1">
          <mxGeometry x="-90" y="1030.87" width="90" height="40" as="geometry" />
        </mxCell>
        <mxCell id="EYeeEo9tqfOp22l6I7jW-54" value="&lt;b&gt;Password&lt;/b&gt;" style="ellipse;whiteSpace=wrap;html=1;strokeWidth=2;" vertex="1" parent="1">
          <mxGeometry x="-90" y="964.87" width="90" height="40" as="geometry" />
        </mxCell>
        <mxCell id="EYeeEo9tqfOp22l6I7jW-58" value="" style="endArrow=none;dashed=1;html=1;rounded=0;strokeWidth=2;" edge="1" parent="1">
          <mxGeometry width="50" height="50" relative="1" as="geometry">
            <mxPoint x="-65" y="1058.75" as="sourcePoint" />
            <mxPoint x="-23" y="1058.75" as="targetPoint" />
          </mxGeometry>
        </mxCell>
        <mxCell id="EYeeEo9tqfOp22l6I7jW-60" style="rounded=0;orthogonalLoop=1;jettySize=auto;html=1;entryX=0;entryY=0.25;entryDx=0;entryDy=0;endArrow=none;endFill=0;exitX=1;exitY=1;exitDx=0;exitDy=0;strokeWidth=2;" edge="1" parent="1" source="EYeeEo9tqfOp22l6I7jW-54" target="EYeeEo9tqfOp22l6I7jW-52">
          <mxGeometry relative="1" as="geometry">
            <mxPoint x="330" y="1159.12" as="sourcePoint" />
            <mxPoint x="392" y="1151.12" as="targetPoint" />
          </mxGeometry>
        </mxCell>
        <mxCell id="EYeeEo9tqfOp22l6I7jW-61" style="rounded=0;orthogonalLoop=1;jettySize=auto;html=1;entryX=0;entryY=0.75;entryDx=0;entryDy=0;endArrow=none;endFill=0;exitX=1;exitY=0;exitDx=0;exitDy=0;strokeWidth=2;" edge="1" parent="1" source="EYeeEo9tqfOp22l6I7jW-53" target="EYeeEo9tqfOp22l6I7jW-52">
          <mxGeometry relative="1" as="geometry">
            <mxPoint x="22" y="955.12" as="sourcePoint" />
            <mxPoint x="67" y="1005.12" as="targetPoint" />
          </mxGeometry>
        </mxCell>
        <mxCell id="EYeeEo9tqfOp22l6I7jW-62" value="&lt;b&gt;d&lt;/b&gt;" style="triangle;whiteSpace=wrap;html=1;rotation=0;strokeWidth=2;align=center;" vertex="1" parent="1">
          <mxGeometry x="139" y="988" width="40" height="55" as="geometry" />
        </mxCell>
        <mxCell id="EYeeEo9tqfOp22l6I7jW-65" value="&lt;b&gt;&lt;u&gt;AdministradorID&lt;/u&gt;&lt;/b&gt;" style="ellipse;whiteSpace=wrap;html=1;strokeWidth=2;" vertex="1" parent="1">
          <mxGeometry x="221" y="1169" width="116" height="37.25" as="geometry" />
        </mxCell>
        <mxCell id="EYeeEo9tqfOp22l6I7jW-66" value="&lt;b&gt;&lt;u&gt;ClienteID&lt;/u&gt;&lt;/b&gt;" style="ellipse;whiteSpace=wrap;html=1;strokeWidth=2;" vertex="1" parent="1">
          <mxGeometry x="239" y="860" width="80" height="37.25" as="geometry" />
        </mxCell>
        <mxCell id="EYeeEo9tqfOp22l6I7jW-67" style="rounded=0;orthogonalLoop=1;jettySize=auto;html=1;entryX=0.5;entryY=0;entryDx=0;entryDy=0;endArrow=none;endFill=0;exitX=0.5;exitY=1;exitDx=0;exitDy=0;strokeWidth=2;" edge="1" parent="1" source="EYeeEo9tqfOp22l6I7jW-66" target="EYeeEo9tqfOp22l6I7jW-5">
          <mxGeometry relative="1" as="geometry">
            <mxPoint x="-56" y="900" as="sourcePoint" />
            <mxPoint x="-56" y="950" as="targetPoint" />
          </mxGeometry>
        </mxCell>
        <mxCell id="EYeeEo9tqfOp22l6I7jW-68" style="rounded=0;orthogonalLoop=1;jettySize=auto;html=1;entryX=0.5;entryY=0;entryDx=0;entryDy=0;endArrow=none;endFill=0;exitX=0.5;exitY=1;exitDx=0;exitDy=0;strokeWidth=2;" edge="1" parent="1" source="EYeeEo9tqfOp22l6I7jW-2" target="EYeeEo9tqfOp22l6I7jW-65">
          <mxGeometry relative="1" as="geometry">
            <mxPoint x="283" y="933" as="sourcePoint" />
            <mxPoint x="283" y="959" as="targetPoint" />
          </mxGeometry>
        </mxCell>
        <mxCell id="EYeeEo9tqfOp22l6I7jW-69" style="rounded=0;orthogonalLoop=1;jettySize=auto;html=1;entryX=1;entryY=0.5;entryDx=0;entryDy=0;endArrow=none;endFill=0;exitX=0;exitY=0.5;exitDx=0;exitDy=0;strokeWidth=2;shape=link;" edge="1" parent="1" source="EYeeEo9tqfOp22l6I7jW-62" target="EYeeEo9tqfOp22l6I7jW-52">
          <mxGeometry relative="1" as="geometry">
            <mxPoint x="17" y="900" as="sourcePoint" />
            <mxPoint x="17" y="950" as="targetPoint" />
          </mxGeometry>
        </mxCell>
        <mxCell id="EYeeEo9tqfOp22l6I7jW-70" style="rounded=0;orthogonalLoop=1;jettySize=auto;html=1;entryX=0.5;entryY=0;entryDx=0;entryDy=0;endArrow=none;endFill=0;exitX=0;exitY=0.5;exitDx=0;exitDy=0;strokeWidth=2;" edge="1" parent="1" source="EYeeEo9tqfOp22l6I7jW-5" target="EYeeEo9tqfOp22l6I7jW-62">
          <mxGeometry relative="1" as="geometry">
            <mxPoint x="284" y="909" as="sourcePoint" />
            <mxPoint x="284" y="935" as="targetPoint" />
          </mxGeometry>
        </mxCell>
        <mxCell id="EYeeEo9tqfOp22l6I7jW-75" style="edgeStyle=none;shape=link;rounded=0;orthogonalLoop=1;jettySize=auto;html=1;entryX=0;entryY=0.5;entryDx=0;entryDy=0;strokeColor=default;align=center;verticalAlign=middle;fontFamily=Helvetica;fontSize=11;fontColor=default;labelBackgroundColor=default;endArrow=none;endFill=0;strokeWidth=2;exitX=1;exitY=0.5;exitDx=0;exitDy=0;" edge="1" parent="1" target="EYeeEo9tqfOp22l6I7jW-9">
          <mxGeometry relative="1" as="geometry">
            <mxPoint x="605" y="1215.3700000000001" as="sourcePoint" />
            <mxPoint x="620" y="1011.3700000000001" as="targetPoint" />
          </mxGeometry>
        </mxCell>
        <mxCell id="E4OK1gESRs0Z6tMOKwre-1" value="&lt;b&gt;Nombre&lt;/b&gt;" style="ellipse;whiteSpace=wrap;html=1;strokeWidth=2;" vertex="1" parent="1">
          <mxGeometry x="12" y="935" width="90" height="40" as="geometry" />
        </mxCell>
        <mxCell id="E4OK1gESRs0Z6tMOKwre-2" style="rounded=0;orthogonalLoop=1;jettySize=auto;html=1;entryX=0.5;entryY=0;entryDx=0;entryDy=0;endArrow=none;endFill=0;exitX=0.5;exitY=1;exitDx=0;exitDy=0;strokeWidth=2;" edge="1" parent="1" source="E4OK1gESRs0Z6tMOKwre-1" target="EYeeEo9tqfOp22l6I7jW-52">
          <mxGeometry relative="1" as="geometry">
            <mxPoint x="-40.18000000000001" y="1025.12" as="sourcePoint" />
            <mxPoint x="-5.820000000000334" y="1085.6399999999999" as="targetPoint" />
          </mxGeometry>
        </mxCell>
        <mxCell id="E4OK1gESRs0Z6tMOKwre-3" value="&lt;b&gt;Nombre&lt;/b&gt;" style="ellipse;whiteSpace=wrap;html=1;strokeWidth=2;" vertex="1" parent="1">
          <mxGeometry x="-60" y="896" width="80" height="30" as="geometry" />
        </mxCell>
        <mxCell id="E4OK1gESRs0Z6tMOKwre-4" value="&lt;b&gt;ApMaterno&lt;/b&gt;" style="ellipse;whiteSpace=wrap;html=1;strokeWidth=2;" vertex="1" parent="1">
          <mxGeometry x="80" y="896" width="80" height="30" as="geometry" />
        </mxCell>
        <mxCell id="E4OK1gESRs0Z6tMOKwre-5" value="&lt;b&gt;ApPaterno&lt;/b&gt;" style="ellipse;whiteSpace=wrap;html=1;strokeWidth=2;" vertex="1" parent="1">
          <mxGeometry x="17" y="863.6299999999999" width="80" height="30" as="geometry" />
        </mxCell>
        <mxCell id="E4OK1gESRs0Z6tMOKwre-6" style="rounded=0;orthogonalLoop=1;jettySize=auto;html=1;entryX=0;entryY=0;entryDx=0;entryDy=0;endArrow=none;endFill=0;exitX=0.5;exitY=1;exitDx=0;exitDy=0;strokeWidth=2;" edge="1" parent="1" source="E4OK1gESRs0Z6tMOKwre-3" target="E4OK1gESRs0Z6tMOKwre-1">
          <mxGeometry relative="1" as="geometry">
            <mxPoint x="-11" y="1025.12" as="sourcePoint" />
            <mxPoint x="22" y="1025.12" as="targetPoint" />
          </mxGeometry>
        </mxCell>
        <mxCell id="E4OK1gESRs0Z6tMOKwre-7" style="rounded=0;orthogonalLoop=1;jettySize=auto;html=1;entryX=1;entryY=0;entryDx=0;entryDy=0;endArrow=none;endFill=0;exitX=0.5;exitY=1;exitDx=0;exitDy=0;strokeWidth=2;" edge="1" parent="1" source="E4OK1gESRs0Z6tMOKwre-4" target="E4OK1gESRs0Z6tMOKwre-1">
          <mxGeometry relative="1" as="geometry">
            <mxPoint x="-131" y="990.12" as="sourcePoint" />
            <mxPoint x="-88" y="1011.12" as="targetPoint" />
          </mxGeometry>
        </mxCell>
        <mxCell id="E4OK1gESRs0Z6tMOKwre-8" style="rounded=0;orthogonalLoop=1;jettySize=auto;html=1;entryX=0.5;entryY=0;entryDx=0;entryDy=0;endArrow=none;endFill=0;exitX=0.5;exitY=1;exitDx=0;exitDy=0;strokeWidth=2;" edge="1" parent="1" source="E4OK1gESRs0Z6tMOKwre-5" target="E4OK1gESRs0Z6tMOKwre-1">
          <mxGeometry relative="1" as="geometry">
            <mxPoint x="-121" y="1000.12" as="sourcePoint" />
            <mxPoint x="-78" y="1021.12" as="targetPoint" />
          </mxGeometry>
        </mxCell>
        <mxCell id="E4OK1gESRs0Z6tMOKwre-9" value="&lt;b&gt;Latitud&lt;/b&gt;" style="ellipse;whiteSpace=wrap;html=1;strokeWidth=2;" vertex="1" parent="1">
          <mxGeometry x="915" y="943" width="90" height="40" as="geometry" />
        </mxCell>
        <mxCell id="E4OK1gESRs0Z6tMOKwre-10" value="&lt;b&gt;Longitud&lt;/b&gt;" style="ellipse;whiteSpace=wrap;html=1;strokeWidth=2;" vertex="1" parent="1">
          <mxGeometry x="917" y="996.0000000000002" width="90" height="40" as="geometry" />
        </mxCell>
        <mxCell id="E4OK1gESRs0Z6tMOKwre-11" value="" style="endArrow=none;html=1;rounded=0;exitX=0;exitY=0.5;exitDx=0;exitDy=0;strokeWidth=2;entryX=1;entryY=0;entryDx=0;entryDy=0;" edge="1" parent="1" source="E4OK1gESRs0Z6tMOKwre-9" target="EYeeEo9tqfOp22l6I7jW-24">
          <mxGeometry width="50" height="50" relative="1" as="geometry">
            <mxPoint x="802" y="1008.0000000000002" as="sourcePoint" />
            <mxPoint x="712" y="1028.0000000000002" as="targetPoint" />
          </mxGeometry>
        </mxCell>
        <mxCell id="E4OK1gESRs0Z6tMOKwre-12" value="" style="endArrow=none;html=1;rounded=0;exitX=0;exitY=0.5;exitDx=0;exitDy=0;strokeWidth=2;entryX=1;entryY=1;entryDx=0;entryDy=0;" edge="1" parent="1" source="E4OK1gESRs0Z6tMOKwre-10" target="EYeeEo9tqfOp22l6I7jW-24">
          <mxGeometry width="50" height="50" relative="1" as="geometry">
            <mxPoint x="812" y="1018.0000000000002" as="sourcePoint" />
            <mxPoint x="722" y="1038.0000000000002" as="targetPoint" />
          </mxGeometry>
        </mxCell>
        <mxCell id="qEO9r_r178GJdTMXaN0q-1" value="&lt;b style=&quot;font-size: 12.000001px;&quot;&gt;&lt;u&gt;IncidenteID&lt;/u&gt;&lt;/b&gt;" style="ellipse;whiteSpace=wrap;html=1;strokeWidth=2;" vertex="1" parent="1">
          <mxGeometry x="792" y="750" width="90" height="40" as="geometry" />
        </mxCell>
        <mxCell id="qEO9r_r178GJdTMXaN0q-2" value="" style="endArrow=none;html=1;rounded=0;exitX=0;exitY=0.5;exitDx=0;exitDy=0;entryX=0.5;entryY=0;entryDx=0;entryDy=0;strokeWidth=2;" edge="1" parent="1" source="qEO9r_r178GJdTMXaN0q-1" target="EYeeEo9tqfOp22l6I7jW-3">
          <mxGeometry width="50" height="50" relative="1" as="geometry">
            <mxPoint x="800" y="764.8700000000001" as="sourcePoint" />
            <mxPoint x="665" y="949.8700000000001" as="targetPoint" />
          </mxGeometry>
        </mxCell>
        <mxCell id="TI93tzozJsyL8gKTx_uQ-3" style="rounded=0;orthogonalLoop=1;jettySize=auto;html=1;entryX=0.5;entryY=1;entryDx=0;entryDy=0;endArrow=none;endFill=0;exitX=0;exitY=0.5;exitDx=0;exitDy=0;strokeWidth=2;" edge="1" parent="1" source="EYeeEo9tqfOp22l6I7jW-2" target="EYeeEo9tqfOp22l6I7jW-62">
          <mxGeometry relative="1" as="geometry">
            <mxPoint x="239" y="956" as="sourcePoint" />
            <mxPoint x="169" y="1012" as="targetPoint" />
          </mxGeometry>
        </mxCell>
        <mxCell id="TI93tzozJsyL8gKTx_uQ-4" value="&lt;b&gt;Foto&lt;/b&gt;" style="ellipse;shape=doubleEllipse;margin=3;whiteSpace=wrap;html=1;align=center;strokeWidth=2;" vertex="1" parent="1">
          <mxGeometry x="792" y="1078.8700000000001" width="93" height="40" as="geometry" />
        </mxCell>
        <mxCell id="epzLICp0Lz9m3S4BSs6d-1" value="&lt;b&gt;Token&lt;/b&gt;" style="ellipse;whiteSpace=wrap;html=1;strokeWidth=2;" vertex="1" parent="1">
          <mxGeometry x="12" y="1070.87" width="90" height="40" as="geometry" />
        </mxCell>
        <mxCell id="epzLICp0Lz9m3S4BSs6d-4" style="rounded=0;orthogonalLoop=1;jettySize=auto;html=1;entryX=0.5;entryY=1;entryDx=0;entryDy=0;endArrow=none;endFill=0;exitX=0.5;exitY=0;exitDx=0;exitDy=0;strokeWidth=2;" edge="1" parent="1" source="epzLICp0Lz9m3S4BSs6d-1" target="EYeeEo9tqfOp22l6I7jW-52">
          <mxGeometry relative="1" as="geometry">
            <mxPoint x="67" y="985" as="sourcePoint" />
            <mxPoint x="67" y="1005" as="targetPoint" />
          </mxGeometry>
        </mxCell>
        <mxCell id="epzLICp0Lz9m3S4BSs6d-5" value="&lt;span style=&quot;font-size: 12.000001px;&quot;&gt;Agregar/Ver&lt;/span&gt;" style="rhombus;whiteSpace=wrap;html=1;strokeWidth=2;fontStyle=1" vertex="1" parent="1">
          <mxGeometry x="390" y="906" width="100" height="80" as="geometry" />
        </mxCell>
      </root>
    </mxGraphModel>
  </diagram>
  <diagram name="ER v1.2.1" id="wcSO8qnJVRSm4RWJVzov">
    <mxGraphModel grid="1" page="1" gridSize="10" guides="1" tooltips="1" connect="1" arrows="1" fold="1" pageScale="1" pageWidth="827" pageHeight="1169" math="0" shadow="0">
      <root>
        <mxCell id="VDpoPTjfU_fpjKnsRcbs-0" />
        <mxCell id="VDpoPTjfU_fpjKnsRcbs-1" parent="VDpoPTjfU_fpjKnsRcbs-0" />
        <mxCell id="VDpoPTjfU_fpjKnsRcbs-2" style="rounded=0;orthogonalLoop=1;jettySize=auto;html=1;entryX=0;entryY=0.5;entryDx=0;entryDy=0;endArrow=none;endFill=0;startArrow=none;startFill=0;strokeWidth=2;exitX=1;exitY=0.75;exitDx=0;exitDy=0;" edge="1" parent="VDpoPTjfU_fpjKnsRcbs-1" source="VDpoPTjfU_fpjKnsRcbs-32" target="VDpoPTjfU_fpjKnsRcbs-9">
          <mxGeometry relative="1" as="geometry">
            <mxPoint x="363.99999999999955" y="1111" as="targetPoint" />
            <mxPoint x="329" y="1110" as="sourcePoint" />
          </mxGeometry>
        </mxCell>
        <mxCell id="VDpoPTjfU_fpjKnsRcbs-4" value="&lt;b&gt;Incidentes&lt;/b&gt;" style="rounded=0;whiteSpace=wrap;html=1;strokeWidth=2;fillColor=#e1d5e7;strokeColor=#9673a6;" vertex="1" parent="VDpoPTjfU_fpjKnsRcbs-1">
          <mxGeometry x="610" y="932.8700000000001" width="90" height="49" as="geometry" />
        </mxCell>
        <mxCell id="VDpoPTjfU_fpjKnsRcbs-5" style="edgeStyle=none;shape=connector;rounded=0;orthogonalLoop=1;jettySize=auto;html=1;entryX=0;entryY=0.5;entryDx=0;entryDy=0;strokeColor=default;align=center;verticalAlign=middle;fontFamily=Helvetica;fontSize=11;fontColor=default;labelBackgroundColor=default;endArrow=none;endFill=0;strokeWidth=2;startArrow=block;startFill=1;exitX=1;exitY=0.25;exitDx=0;exitDy=0;" edge="1" parent="VDpoPTjfU_fpjKnsRcbs-1" source="VDpoPTjfU_fpjKnsRcbs-32" target="VDpoPTjfU_fpjKnsRcbs-64">
          <mxGeometry relative="1" as="geometry">
            <mxPoint x="420" y="945" as="targetPoint" />
            <mxPoint x="329" y="946" as="sourcePoint" />
          </mxGeometry>
        </mxCell>
        <mxCell id="VDpoPTjfU_fpjKnsRcbs-7" value="&lt;b&gt;Categoria&lt;/b&gt;" style="rounded=0;whiteSpace=wrap;html=1;strokeWidth=2;fillColor=#e1d5e7;strokeColor=#9673a6;" vertex="1" parent="VDpoPTjfU_fpjKnsRcbs-1">
          <mxGeometry x="605" y="1196.3700000000001" width="100" height="40" as="geometry" />
        </mxCell>
        <mxCell id="VDpoPTjfU_fpjKnsRcbs-8" style="edgeStyle=none;shape=link;rounded=0;orthogonalLoop=1;jettySize=auto;html=1;entryX=0;entryY=0.75;entryDx=0;entryDy=0;strokeColor=default;align=center;verticalAlign=middle;fontFamily=Helvetica;fontSize=11;fontColor=default;labelBackgroundColor=default;endArrow=none;endFill=0;strokeWidth=2;exitX=1;exitY=0.5;exitDx=0;exitDy=0;" edge="1" parent="VDpoPTjfU_fpjKnsRcbs-1" source="VDpoPTjfU_fpjKnsRcbs-9" target="VDpoPTjfU_fpjKnsRcbs-4">
          <mxGeometry relative="1" as="geometry">
            <Array as="points">
              <mxPoint x="580" y="1110" />
              <mxPoint x="580" y="970" />
            </Array>
          </mxGeometry>
        </mxCell>
        <mxCell id="VDpoPTjfU_fpjKnsRcbs-9" value="Gestionar" style="rhombus;whiteSpace=wrap;html=1;strokeWidth=2;fontStyle=1" vertex="1" parent="VDpoPTjfU_fpjKnsRcbs-1">
          <mxGeometry x="390" y="1070" width="100" height="80" as="geometry" />
        </mxCell>
        <mxCell id="VDpoPTjfU_fpjKnsRcbs-10" style="shape=link;rounded=0;orthogonalLoop=1;jettySize=auto;html=1;entryX=0;entryY=0.25;entryDx=0;entryDy=0;strokeColor=default;align=center;verticalAlign=middle;fontFamily=Helvetica;fontSize=11;fontColor=default;labelBackgroundColor=default;endArrow=none;endFill=0;strokeWidth=2;exitX=1;exitY=0.5;exitDx=0;exitDy=0;" edge="1" parent="VDpoPTjfU_fpjKnsRcbs-1" source="VDpoPTjfU_fpjKnsRcbs-64" target="VDpoPTjfU_fpjKnsRcbs-4">
          <mxGeometry relative="1" as="geometry">
            <mxPoint x="495" y="945" as="sourcePoint" />
          </mxGeometry>
        </mxCell>
        <mxCell id="VDpoPTjfU_fpjKnsRcbs-11" value="&lt;b&gt;Fecha&lt;/b&gt;" style="ellipse;whiteSpace=wrap;html=1;strokeWidth=2;" vertex="1" parent="VDpoPTjfU_fpjKnsRcbs-1">
          <mxGeometry x="792" y="859.5" width="90" height="40" as="geometry" />
        </mxCell>
        <mxCell id="VDpoPTjfU_fpjKnsRcbs-12" value="&lt;b&gt;Hora&lt;/b&gt;" style="ellipse;whiteSpace=wrap;html=1;strokeWidth=2;" vertex="1" parent="VDpoPTjfU_fpjKnsRcbs-1">
          <mxGeometry x="792" y="914.5" width="90" height="40" as="geometry" />
        </mxCell>
        <mxCell id="VDpoPTjfU_fpjKnsRcbs-13" value="&lt;b&gt;Ubicacion&lt;/b&gt;" style="ellipse;whiteSpace=wrap;html=1;strokeWidth=2;" vertex="1" parent="VDpoPTjfU_fpjKnsRcbs-1">
          <mxGeometry x="792" y="969.5000000000002" width="90" height="40" as="geometry" />
        </mxCell>
        <mxCell id="VDpoPTjfU_fpjKnsRcbs-14" value="&lt;b&gt;Descripcion&lt;/b&gt;" style="ellipse;whiteSpace=wrap;html=1;strokeWidth=2;" vertex="1" parent="VDpoPTjfU_fpjKnsRcbs-1">
          <mxGeometry x="792" y="1024.5000000000002" width="90" height="40" as="geometry" />
        </mxCell>
        <mxCell id="VDpoPTjfU_fpjKnsRcbs-15" value="" style="endArrow=none;html=1;rounded=0;exitX=0;exitY=0.5;exitDx=0;exitDy=0;entryX=0.75;entryY=0;entryDx=0;entryDy=0;strokeWidth=2;" edge="1" parent="VDpoPTjfU_fpjKnsRcbs-1" source="VDpoPTjfU_fpjKnsRcbs-18" target="VDpoPTjfU_fpjKnsRcbs-4">
          <mxGeometry width="50" height="50" relative="1" as="geometry">
            <mxPoint x="440" y="984.8700000000001" as="sourcePoint" />
            <mxPoint x="490" y="934.8700000000001" as="targetPoint" />
          </mxGeometry>
        </mxCell>
        <mxCell id="VDpoPTjfU_fpjKnsRcbs-16" value="" style="endArrow=none;html=1;rounded=0;exitX=0;exitY=0.5;exitDx=0;exitDy=0;strokeWidth=2;entryX=1;entryY=0.25;entryDx=0;entryDy=0;" edge="1" parent="VDpoPTjfU_fpjKnsRcbs-1" source="VDpoPTjfU_fpjKnsRcbs-12" target="VDpoPTjfU_fpjKnsRcbs-4">
          <mxGeometry width="50" height="50" relative="1" as="geometry">
            <mxPoint x="800" y="824.8700000000001" as="sourcePoint" />
            <mxPoint x="670" y="944.8700000000001" as="targetPoint" />
          </mxGeometry>
        </mxCell>
        <mxCell id="VDpoPTjfU_fpjKnsRcbs-17" value="" style="endArrow=none;html=1;rounded=0;exitX=0;exitY=0.5;exitDx=0;exitDy=0;strokeWidth=2;entryX=1;entryY=0.5;entryDx=0;entryDy=0;" edge="1" parent="VDpoPTjfU_fpjKnsRcbs-1" source="VDpoPTjfU_fpjKnsRcbs-13" target="VDpoPTjfU_fpjKnsRcbs-4">
          <mxGeometry width="50" height="50" relative="1" as="geometry">
            <mxPoint x="800" y="884.8700000000001" as="sourcePoint" />
            <mxPoint x="688" y="949.8700000000001" as="targetPoint" />
          </mxGeometry>
        </mxCell>
        <mxCell id="VDpoPTjfU_fpjKnsRcbs-18" value="&lt;b&gt;Nombre&lt;/b&gt;" style="ellipse;whiteSpace=wrap;html=1;strokeWidth=2;" vertex="1" parent="VDpoPTjfU_fpjKnsRcbs-1">
          <mxGeometry x="792" y="804.5" width="90" height="40" as="geometry" />
        </mxCell>
        <mxCell id="VDpoPTjfU_fpjKnsRcbs-19" value="" style="endArrow=none;html=1;rounded=0;exitX=0;exitY=0.5;exitDx=0;exitDy=0;strokeWidth=2;entryX=1;entryY=0;entryDx=0;entryDy=0;" edge="1" parent="VDpoPTjfU_fpjKnsRcbs-1" source="VDpoPTjfU_fpjKnsRcbs-11" target="VDpoPTjfU_fpjKnsRcbs-4">
          <mxGeometry width="50" height="50" relative="1" as="geometry">
            <mxPoint x="785.0000000000003" y="819.8700000000001" as="sourcePoint" />
            <mxPoint x="665" y="939.8700000000001" as="targetPoint" />
          </mxGeometry>
        </mxCell>
        <mxCell id="VDpoPTjfU_fpjKnsRcbs-20" value="" style="endArrow=none;html=1;rounded=0;exitX=0;exitY=0.5;exitDx=0;exitDy=0;strokeWidth=2;entryX=1;entryY=0.75;entryDx=0;entryDy=0;" edge="1" parent="VDpoPTjfU_fpjKnsRcbs-1" source="VDpoPTjfU_fpjKnsRcbs-14" target="VDpoPTjfU_fpjKnsRcbs-4">
          <mxGeometry width="50" height="50" relative="1" as="geometry">
            <mxPoint x="810" y="894.8700000000001" as="sourcePoint" />
            <mxPoint x="698" y="959.8700000000001" as="targetPoint" />
          </mxGeometry>
        </mxCell>
        <mxCell id="VDpoPTjfU_fpjKnsRcbs-21" value="" style="endArrow=none;html=1;rounded=0;exitX=0;exitY=0.5;exitDx=0;exitDy=0;strokeWidth=2;entryX=1;entryY=1;entryDx=0;entryDy=0;" edge="1" parent="VDpoPTjfU_fpjKnsRcbs-1" source="VDpoPTjfU_fpjKnsRcbs-61" target="VDpoPTjfU_fpjKnsRcbs-4">
          <mxGeometry width="50" height="50" relative="1" as="geometry">
            <mxPoint x="792" y="1098.5000000000002" as="sourcePoint" />
            <mxPoint x="708" y="969.8700000000001" as="targetPoint" />
          </mxGeometry>
        </mxCell>
        <mxCell id="VDpoPTjfU_fpjKnsRcbs-22" value="&lt;b&gt;Estado&lt;/b&gt;" style="ellipse;whiteSpace=wrap;html=1;strokeWidth=2;" vertex="1" parent="VDpoPTjfU_fpjKnsRcbs-1">
          <mxGeometry x="792" y="1133.7500000000002" width="90" height="40" as="geometry" />
        </mxCell>
        <mxCell id="VDpoPTjfU_fpjKnsRcbs-23" value="" style="endArrow=none;html=1;rounded=0;exitX=0;exitY=0.5;exitDx=0;exitDy=0;strokeWidth=2;entryX=0.75;entryY=1;entryDx=0;entryDy=0;" edge="1" parent="VDpoPTjfU_fpjKnsRcbs-1" source="VDpoPTjfU_fpjKnsRcbs-22" target="VDpoPTjfU_fpjKnsRcbs-4">
          <mxGeometry width="50" height="50" relative="1" as="geometry">
            <mxPoint x="801" y="1054.8700000000001" as="sourcePoint" />
            <mxPoint x="710" y="979.8700000000001" as="targetPoint" />
          </mxGeometry>
        </mxCell>
        <mxCell id="VDpoPTjfU_fpjKnsRcbs-24" value="&lt;b&gt;&lt;u&gt;CategoriaID&lt;/u&gt;&lt;/b&gt;" style="ellipse;whiteSpace=wrap;html=1;strokeWidth=2;" vertex="1" parent="VDpoPTjfU_fpjKnsRcbs-1">
          <mxGeometry x="540" y="1272.8700000000001" width="90" height="40" as="geometry" />
        </mxCell>
        <mxCell id="VDpoPTjfU_fpjKnsRcbs-25" value="&lt;b&gt;Categoria&lt;/b&gt;" style="ellipse;whiteSpace=wrap;html=1;strokeWidth=2;" vertex="1" parent="VDpoPTjfU_fpjKnsRcbs-1">
          <mxGeometry x="680" y="1272.8700000000001" width="90" height="40" as="geometry" />
        </mxCell>
        <mxCell id="VDpoPTjfU_fpjKnsRcbs-26" value="" style="endArrow=none;html=1;rounded=0;strokeWidth=2;exitX=0;exitY=0;exitDx=0;exitDy=0;entryX=0.75;entryY=1;entryDx=0;entryDy=0;" edge="1" parent="VDpoPTjfU_fpjKnsRcbs-1" source="VDpoPTjfU_fpjKnsRcbs-25" target="VDpoPTjfU_fpjKnsRcbs-7">
          <mxGeometry width="50" height="50" relative="1" as="geometry">
            <mxPoint x="710" y="1286.3700000000001" as="sourcePoint" />
            <mxPoint x="601" y="1216.3700000000001" as="targetPoint" />
          </mxGeometry>
        </mxCell>
        <mxCell id="VDpoPTjfU_fpjKnsRcbs-27" value="" style="endArrow=none;html=1;rounded=0;strokeWidth=2;exitX=1;exitY=0;exitDx=0;exitDy=0;entryX=0.25;entryY=1;entryDx=0;entryDy=0;" edge="1" parent="VDpoPTjfU_fpjKnsRcbs-1" source="VDpoPTjfU_fpjKnsRcbs-24" target="VDpoPTjfU_fpjKnsRcbs-7">
          <mxGeometry width="50" height="50" relative="1" as="geometry">
            <mxPoint x="595" y="1276.3700000000001" as="sourcePoint" />
            <mxPoint x="665" y="1226.3700000000001" as="targetPoint" />
            <Array as="points" />
          </mxGeometry>
        </mxCell>
        <mxCell id="VDpoPTjfU_fpjKnsRcbs-28" value="Tiene" style="rhombus;whiteSpace=wrap;html=1;strokeWidth=2;fontStyle=1" vertex="1" parent="VDpoPTjfU_fpjKnsRcbs-1">
          <mxGeometry x="610" y="1060" width="90" height="70" as="geometry" />
        </mxCell>
        <mxCell id="VDpoPTjfU_fpjKnsRcbs-29" value="" style="endArrow=none;html=1;rounded=0;strokeWidth=2;entryX=0.5;entryY=1;entryDx=0;entryDy=0;exitX=0.5;exitY=0;exitDx=0;exitDy=0;endFill=1;startFill=1;startArrow=block;" edge="1" parent="VDpoPTjfU_fpjKnsRcbs-1" source="VDpoPTjfU_fpjKnsRcbs-7" target="VDpoPTjfU_fpjKnsRcbs-28">
          <mxGeometry width="50" height="50" relative="1" as="geometry">
            <mxPoint x="715" y="1286.3700000000001" as="sourcePoint" />
            <mxPoint x="685" y="1246.3700000000001" as="targetPoint" />
          </mxGeometry>
        </mxCell>
        <mxCell id="VDpoPTjfU_fpjKnsRcbs-30" value="" style="endArrow=block;html=1;rounded=0;strokeWidth=2;entryX=0.5;entryY=1;entryDx=0;entryDy=0;exitX=0.5;exitY=0;exitDx=0;exitDy=0;endFill=1;shape=link;" edge="1" parent="VDpoPTjfU_fpjKnsRcbs-1" source="VDpoPTjfU_fpjKnsRcbs-28" target="VDpoPTjfU_fpjKnsRcbs-4">
          <mxGeometry width="50" height="50" relative="1" as="geometry">
            <mxPoint x="655" y="1030.8700000000001" as="sourcePoint" />
            <mxPoint x="655" y="979.8700000000001" as="targetPoint" />
          </mxGeometry>
        </mxCell>
        <mxCell id="VDpoPTjfU_fpjKnsRcbs-31" value="" style="triangle;whiteSpace=wrap;html=1;rotation=-90;fillColor=#000000;" vertex="1" parent="VDpoPTjfU_fpjKnsRcbs-1">
          <mxGeometry x="650" y="974.8700000000001" width="10" height="20" as="geometry" />
        </mxCell>
        <mxCell id="VDpoPTjfU_fpjKnsRcbs-32" value="&lt;b&gt;Usuarios&lt;/b&gt;" style="rounded=0;whiteSpace=wrap;html=1;strokeWidth=2;fillColor=#e1d5e7;strokeColor=#9673a6;" vertex="1" parent="VDpoPTjfU_fpjKnsRcbs-1">
          <mxGeometry x="12" y="995.12" width="198" height="40" as="geometry" />
        </mxCell>
        <mxCell id="VDpoPTjfU_fpjKnsRcbs-33" value="&lt;b&gt;Correo&lt;/b&gt;" style="ellipse;whiteSpace=wrap;html=1;strokeWidth=2;" vertex="1" parent="VDpoPTjfU_fpjKnsRcbs-1">
          <mxGeometry x="-90" y="1030.87" width="90" height="40" as="geometry" />
        </mxCell>
        <mxCell id="VDpoPTjfU_fpjKnsRcbs-34" value="&lt;b&gt;Password&lt;/b&gt;" style="ellipse;whiteSpace=wrap;html=1;strokeWidth=2;" vertex="1" parent="VDpoPTjfU_fpjKnsRcbs-1">
          <mxGeometry x="-90" y="964.87" width="90" height="40" as="geometry" />
        </mxCell>
        <mxCell id="VDpoPTjfU_fpjKnsRcbs-35" value="" style="endArrow=none;dashed=1;html=1;rounded=0;strokeWidth=2;" edge="1" parent="VDpoPTjfU_fpjKnsRcbs-1">
          <mxGeometry width="50" height="50" relative="1" as="geometry">
            <mxPoint x="-65" y="1058.75" as="sourcePoint" />
            <mxPoint x="-23" y="1058.75" as="targetPoint" />
          </mxGeometry>
        </mxCell>
        <mxCell id="VDpoPTjfU_fpjKnsRcbs-36" style="rounded=0;orthogonalLoop=1;jettySize=auto;html=1;entryX=0;entryY=0.25;entryDx=0;entryDy=0;endArrow=none;endFill=0;exitX=1;exitY=1;exitDx=0;exitDy=0;strokeWidth=2;" edge="1" parent="VDpoPTjfU_fpjKnsRcbs-1" source="VDpoPTjfU_fpjKnsRcbs-34" target="VDpoPTjfU_fpjKnsRcbs-32">
          <mxGeometry relative="1" as="geometry">
            <mxPoint x="330" y="1159.12" as="sourcePoint" />
            <mxPoint x="392" y="1151.12" as="targetPoint" />
          </mxGeometry>
        </mxCell>
        <mxCell id="VDpoPTjfU_fpjKnsRcbs-37" style="rounded=0;orthogonalLoop=1;jettySize=auto;html=1;entryX=0;entryY=0.75;entryDx=0;entryDy=0;endArrow=none;endFill=0;exitX=1;exitY=0;exitDx=0;exitDy=0;strokeWidth=2;" edge="1" parent="VDpoPTjfU_fpjKnsRcbs-1" source="VDpoPTjfU_fpjKnsRcbs-33" target="VDpoPTjfU_fpjKnsRcbs-32">
          <mxGeometry relative="1" as="geometry">
            <mxPoint x="22" y="955.12" as="sourcePoint" />
            <mxPoint x="67" y="1005.12" as="targetPoint" />
          </mxGeometry>
        </mxCell>
        <mxCell id="VDpoPTjfU_fpjKnsRcbs-40" value="&lt;b&gt;&lt;u&gt;UserID&lt;/u&gt;&lt;/b&gt;" style="ellipse;whiteSpace=wrap;html=1;strokeWidth=2;" vertex="1" parent="VDpoPTjfU_fpjKnsRcbs-1">
          <mxGeometry x="130" y="1073.62" width="80" height="37.25" as="geometry" />
        </mxCell>
        <mxCell id="VDpoPTjfU_fpjKnsRcbs-45" style="edgeStyle=none;shape=link;rounded=0;orthogonalLoop=1;jettySize=auto;html=1;entryX=0;entryY=0.5;entryDx=0;entryDy=0;strokeColor=default;align=center;verticalAlign=middle;fontFamily=Helvetica;fontSize=11;fontColor=default;labelBackgroundColor=default;endArrow=none;endFill=0;strokeWidth=2;exitX=1;exitY=0.5;exitDx=0;exitDy=0;" edge="1" parent="VDpoPTjfU_fpjKnsRcbs-1" target="VDpoPTjfU_fpjKnsRcbs-7">
          <mxGeometry relative="1" as="geometry">
            <mxPoint x="605" y="1215.3700000000001" as="sourcePoint" />
            <mxPoint x="620" y="1011.3700000000001" as="targetPoint" />
          </mxGeometry>
        </mxCell>
        <mxCell id="VDpoPTjfU_fpjKnsRcbs-46" value="&lt;b&gt;Nombre&lt;/b&gt;" style="ellipse;whiteSpace=wrap;html=1;strokeWidth=2;" vertex="1" parent="VDpoPTjfU_fpjKnsRcbs-1">
          <mxGeometry x="115" y="903" width="90" height="40" as="geometry" />
        </mxCell>
        <mxCell id="VDpoPTjfU_fpjKnsRcbs-47" style="rounded=0;orthogonalLoop=1;jettySize=auto;html=1;entryX=0.75;entryY=0;entryDx=0;entryDy=0;endArrow=none;endFill=0;exitX=0.5;exitY=1;exitDx=0;exitDy=0;strokeWidth=2;" edge="1" parent="VDpoPTjfU_fpjKnsRcbs-1" source="VDpoPTjfU_fpjKnsRcbs-46" target="VDpoPTjfU_fpjKnsRcbs-32">
          <mxGeometry relative="1" as="geometry">
            <mxPoint x="-40.18000000000001" y="1025.12" as="sourcePoint" />
            <mxPoint x="-5.820000000000334" y="1085.6399999999999" as="targetPoint" />
          </mxGeometry>
        </mxCell>
        <mxCell id="VDpoPTjfU_fpjKnsRcbs-48" value="&lt;b&gt;Nombre&lt;/b&gt;" style="ellipse;whiteSpace=wrap;html=1;strokeWidth=2;" vertex="1" parent="VDpoPTjfU_fpjKnsRcbs-1">
          <mxGeometry x="43" y="864" width="80" height="30" as="geometry" />
        </mxCell>
        <mxCell id="VDpoPTjfU_fpjKnsRcbs-49" value="&lt;b&gt;ApMaterno&lt;/b&gt;" style="ellipse;whiteSpace=wrap;html=1;strokeWidth=2;" vertex="1" parent="VDpoPTjfU_fpjKnsRcbs-1">
          <mxGeometry x="183" y="864" width="80" height="30" as="geometry" />
        </mxCell>
        <mxCell id="VDpoPTjfU_fpjKnsRcbs-50" value="&lt;b&gt;ApPaterno&lt;/b&gt;" style="ellipse;whiteSpace=wrap;html=1;strokeWidth=2;" vertex="1" parent="VDpoPTjfU_fpjKnsRcbs-1">
          <mxGeometry x="120" y="831.6299999999999" width="80" height="30" as="geometry" />
        </mxCell>
        <mxCell id="VDpoPTjfU_fpjKnsRcbs-51" style="rounded=0;orthogonalLoop=1;jettySize=auto;html=1;entryX=0;entryY=0;entryDx=0;entryDy=0;endArrow=none;endFill=0;exitX=0.5;exitY=1;exitDx=0;exitDy=0;strokeWidth=2;" edge="1" parent="VDpoPTjfU_fpjKnsRcbs-1" source="VDpoPTjfU_fpjKnsRcbs-48" target="VDpoPTjfU_fpjKnsRcbs-46">
          <mxGeometry relative="1" as="geometry">
            <mxPoint x="92" y="993.1199999999998" as="sourcePoint" />
            <mxPoint x="125" y="993.1199999999998" as="targetPoint" />
          </mxGeometry>
        </mxCell>
        <mxCell id="VDpoPTjfU_fpjKnsRcbs-52" style="rounded=0;orthogonalLoop=1;jettySize=auto;html=1;entryX=1;entryY=0;entryDx=0;entryDy=0;endArrow=none;endFill=0;exitX=0.5;exitY=1;exitDx=0;exitDy=0;strokeWidth=2;" edge="1" parent="VDpoPTjfU_fpjKnsRcbs-1" source="VDpoPTjfU_fpjKnsRcbs-49" target="VDpoPTjfU_fpjKnsRcbs-46">
          <mxGeometry relative="1" as="geometry">
            <mxPoint x="-28" y="958.12" as="sourcePoint" />
            <mxPoint x="15" y="979.12" as="targetPoint" />
          </mxGeometry>
        </mxCell>
        <mxCell id="VDpoPTjfU_fpjKnsRcbs-53" style="rounded=0;orthogonalLoop=1;jettySize=auto;html=1;entryX=0.5;entryY=0;entryDx=0;entryDy=0;endArrow=none;endFill=0;exitX=0.5;exitY=1;exitDx=0;exitDy=0;strokeWidth=2;" edge="1" parent="VDpoPTjfU_fpjKnsRcbs-1" source="VDpoPTjfU_fpjKnsRcbs-50" target="VDpoPTjfU_fpjKnsRcbs-46">
          <mxGeometry relative="1" as="geometry">
            <mxPoint x="-18" y="968.12" as="sourcePoint" />
            <mxPoint x="25" y="989.12" as="targetPoint" />
          </mxGeometry>
        </mxCell>
        <mxCell id="VDpoPTjfU_fpjKnsRcbs-54" value="&lt;b&gt;Latitud&lt;/b&gt;" style="ellipse;whiteSpace=wrap;html=1;strokeWidth=2;" vertex="1" parent="VDpoPTjfU_fpjKnsRcbs-1">
          <mxGeometry x="915" y="943" width="90" height="40" as="geometry" />
        </mxCell>
        <mxCell id="VDpoPTjfU_fpjKnsRcbs-55" value="&lt;b&gt;Longitud&lt;/b&gt;" style="ellipse;whiteSpace=wrap;html=1;strokeWidth=2;" vertex="1" parent="VDpoPTjfU_fpjKnsRcbs-1">
          <mxGeometry x="917" y="996.0000000000002" width="90" height="40" as="geometry" />
        </mxCell>
        <mxCell id="VDpoPTjfU_fpjKnsRcbs-56" value="" style="endArrow=none;html=1;rounded=0;exitX=0;exitY=0.5;exitDx=0;exitDy=0;strokeWidth=2;entryX=1;entryY=0;entryDx=0;entryDy=0;" edge="1" parent="VDpoPTjfU_fpjKnsRcbs-1" source="VDpoPTjfU_fpjKnsRcbs-54" target="VDpoPTjfU_fpjKnsRcbs-13">
          <mxGeometry width="50" height="50" relative="1" as="geometry">
            <mxPoint x="802" y="1008.0000000000002" as="sourcePoint" />
            <mxPoint x="712" y="1028.0000000000002" as="targetPoint" />
          </mxGeometry>
        </mxCell>
        <mxCell id="VDpoPTjfU_fpjKnsRcbs-57" value="" style="endArrow=none;html=1;rounded=0;exitX=0;exitY=0.5;exitDx=0;exitDy=0;strokeWidth=2;entryX=1;entryY=1;entryDx=0;entryDy=0;" edge="1" parent="VDpoPTjfU_fpjKnsRcbs-1" source="VDpoPTjfU_fpjKnsRcbs-55" target="VDpoPTjfU_fpjKnsRcbs-13">
          <mxGeometry width="50" height="50" relative="1" as="geometry">
            <mxPoint x="812" y="1018.0000000000002" as="sourcePoint" />
            <mxPoint x="722" y="1038.0000000000002" as="targetPoint" />
          </mxGeometry>
        </mxCell>
        <mxCell id="VDpoPTjfU_fpjKnsRcbs-58" value="&lt;b style=&quot;font-size: 12.000001px;&quot;&gt;&lt;u&gt;IncidenteID&lt;/u&gt;&lt;/b&gt;" style="ellipse;whiteSpace=wrap;html=1;strokeWidth=2;" vertex="1" parent="VDpoPTjfU_fpjKnsRcbs-1">
          <mxGeometry x="792" y="750" width="90" height="40" as="geometry" />
        </mxCell>
        <mxCell id="VDpoPTjfU_fpjKnsRcbs-59" value="" style="endArrow=none;html=1;rounded=0;exitX=0;exitY=0.5;exitDx=0;exitDy=0;entryX=0.5;entryY=0;entryDx=0;entryDy=0;strokeWidth=2;" edge="1" parent="VDpoPTjfU_fpjKnsRcbs-1" source="VDpoPTjfU_fpjKnsRcbs-58" target="VDpoPTjfU_fpjKnsRcbs-4">
          <mxGeometry width="50" height="50" relative="1" as="geometry">
            <mxPoint x="800" y="764.8700000000001" as="sourcePoint" />
            <mxPoint x="665" y="949.8700000000001" as="targetPoint" />
          </mxGeometry>
        </mxCell>
        <mxCell id="VDpoPTjfU_fpjKnsRcbs-61" value="&lt;b&gt;Foto&lt;/b&gt;" style="ellipse;shape=doubleEllipse;margin=3;whiteSpace=wrap;html=1;align=center;strokeWidth=2;" vertex="1" parent="VDpoPTjfU_fpjKnsRcbs-1">
          <mxGeometry x="792" y="1078.8700000000001" width="93" height="40" as="geometry" />
        </mxCell>
        <mxCell id="VDpoPTjfU_fpjKnsRcbs-63" style="rounded=0;orthogonalLoop=1;jettySize=auto;html=1;entryX=0.25;entryY=0;entryDx=0;entryDy=0;endArrow=none;endFill=0;exitX=0.5;exitY=1;exitDx=0;exitDy=0;strokeWidth=2;" edge="1" parent="VDpoPTjfU_fpjKnsRcbs-1" source="VDpoPTjfU_fpjKnsRcbs-62" target="VDpoPTjfU_fpjKnsRcbs-32">
          <mxGeometry relative="1" as="geometry">
            <mxPoint x="67" y="985" as="sourcePoint" />
            <mxPoint x="67" y="1005" as="targetPoint" />
          </mxGeometry>
        </mxCell>
        <mxCell id="VDpoPTjfU_fpjKnsRcbs-64" value="&lt;span style=&quot;font-size: 12.000001px;&quot;&gt;Agregar/Ver&lt;/span&gt;" style="rhombus;whiteSpace=wrap;html=1;strokeWidth=2;fontStyle=1" vertex="1" parent="VDpoPTjfU_fpjKnsRcbs-1">
          <mxGeometry x="390" y="906" width="100" height="80" as="geometry" />
        </mxCell>
        <mxCell id="In13P56pMuza48pi8UuE-2" style="rounded=0;orthogonalLoop=1;jettySize=auto;html=1;entryX=0.5;entryY=0;entryDx=0;entryDy=0;endArrow=none;endFill=0;exitX=0.75;exitY=1;exitDx=0;exitDy=0;strokeWidth=2;" edge="1" parent="VDpoPTjfU_fpjKnsRcbs-1" source="VDpoPTjfU_fpjKnsRcbs-32" target="VDpoPTjfU_fpjKnsRcbs-40">
          <mxGeometry relative="1" as="geometry">
            <mxPoint x="-3" y="1047" as="sourcePoint" />
            <mxPoint x="22" y="1035" as="targetPoint" />
          </mxGeometry>
        </mxCell>
        <mxCell id="_v4tX3vzwH8JEK7JPa7B-0" value="&lt;b&gt;Rol&lt;/b&gt;" style="rounded=0;whiteSpace=wrap;html=1;strokeWidth=2;fillColor=#e1d5e7;strokeColor=#9673a6;" vertex="1" parent="VDpoPTjfU_fpjKnsRcbs-1">
          <mxGeometry x="-7" y="1266.3700000000001" width="90" height="49" as="geometry" />
        </mxCell>
        <mxCell id="_v4tX3vzwH8JEK7JPa7B-1" value="&lt;span style=&quot;font-size: 12.000001px;&quot;&gt;Tener&lt;/span&gt;" style="rhombus;whiteSpace=wrap;html=1;strokeWidth=2;fontStyle=1" vertex="1" parent="VDpoPTjfU_fpjKnsRcbs-1">
          <mxGeometry x="-12" y="1118.87" width="100" height="80" as="geometry" />
        </mxCell>
        <mxCell id="_v4tX3vzwH8JEK7JPa7B-4" value="" style="endArrow=block;html=1;rounded=0;strokeWidth=2;entryX=0.5;entryY=0;entryDx=0;entryDy=0;exitX=0.5;exitY=1;exitDx=0;exitDy=0;endFill=1;shape=link;edgeStyle=orthogonalEdgeStyle;" edge="1" parent="VDpoPTjfU_fpjKnsRcbs-1" source="_v4tX3vzwH8JEK7JPa7B-1">
          <mxGeometry width="50" height="50" relative="1" as="geometry">
            <mxPoint x="77" y="1041" as="sourcePoint" />
            <mxPoint x="38" y="1257.3700000000001" as="targetPoint" />
          </mxGeometry>
        </mxCell>
        <mxCell id="_v4tX3vzwH8JEK7JPa7B-7" value="" style="triangle;whiteSpace=wrap;html=1;rotation=90;fillColor=#000000;connectable=1;" vertex="1" parent="VDpoPTjfU_fpjKnsRcbs-1">
          <mxGeometry x="33" y="1251.0000000000002" width="10" height="20" as="geometry" />
        </mxCell>
        <mxCell id="_v4tX3vzwH8JEK7JPa7B-11" value="&lt;b&gt;&lt;u&gt;RolID&lt;/u&gt;&lt;/b&gt;" style="ellipse;whiteSpace=wrap;html=1;strokeWidth=2;" vertex="1" parent="VDpoPTjfU_fpjKnsRcbs-1">
          <mxGeometry x="-140" y="1272.25" width="80" height="37.25" as="geometry" />
        </mxCell>
        <mxCell id="_v4tX3vzwH8JEK7JPa7B-12" style="rounded=0;orthogonalLoop=1;jettySize=auto;html=1;entryX=1;entryY=0.5;entryDx=0;entryDy=0;endArrow=none;endFill=0;exitX=0;exitY=0.5;exitDx=0;exitDy=0;strokeWidth=2;" edge="1" parent="VDpoPTjfU_fpjKnsRcbs-1" source="_v4tX3vzwH8JEK7JPa7B-0" target="_v4tX3vzwH8JEK7JPa7B-11">
          <mxGeometry relative="1" as="geometry">
            <mxPoint x="233" y="1422.37" as="sourcePoint" />
            <mxPoint x="-46.9999999999975" y="1290.875" as="targetPoint" />
          </mxGeometry>
        </mxCell>
        <mxCell id="G5MotLYjbsnpHGjlklNG-0" value="&lt;b&gt;Nombre&lt;/b&gt;" style="ellipse;whiteSpace=wrap;html=1;strokeWidth=2;" vertex="1" parent="VDpoPTjfU_fpjKnsRcbs-1">
          <mxGeometry x="140" y="1270.87" width="90" height="40" as="geometry" />
        </mxCell>
        <mxCell id="G5MotLYjbsnpHGjlklNG-1" style="rounded=0;orthogonalLoop=1;jettySize=auto;html=1;entryX=1;entryY=0.5;entryDx=0;entryDy=0;endArrow=none;endFill=0;exitX=0;exitY=0.5;exitDx=0;exitDy=0;strokeWidth=2;" edge="1" parent="VDpoPTjfU_fpjKnsRcbs-1" source="G5MotLYjbsnpHGjlklNG-0" target="_v4tX3vzwH8JEK7JPa7B-0">
          <mxGeometry relative="1" as="geometry">
            <mxPoint x="130" y="1495.37" as="sourcePoint" />
            <mxPoint x="155" y="1501.37" as="targetPoint" />
          </mxGeometry>
        </mxCell>
        <mxCell id="h2rtysraYuTVtPYqgwI4-0" value="" style="endArrow=block;html=1;rounded=0;strokeWidth=2;exitX=0.5;exitY=0;exitDx=0;exitDy=0;endFill=1;shape=link;edgeStyle=orthogonalEdgeStyle;entryX=0.25;entryY=1;entryDx=0;entryDy=0;" edge="1" parent="VDpoPTjfU_fpjKnsRcbs-1" source="_v4tX3vzwH8JEK7JPa7B-1" target="VDpoPTjfU_fpjKnsRcbs-32">
          <mxGeometry width="50" height="50" relative="1" as="geometry">
            <mxPoint x="-20" y="925" as="sourcePoint" />
            <mxPoint x="140" y="1170" as="targetPoint" />
            <Array as="points" />
          </mxGeometry>
        </mxCell>
        <mxCell id="VDpoPTjfU_fpjKnsRcbs-62" value="&lt;b&gt;Token&lt;/b&gt;" style="ellipse;whiteSpace=wrap;html=1;strokeWidth=2;" vertex="1" parent="VDpoPTjfU_fpjKnsRcbs-1">
          <mxGeometry x="-7" y="914.4999999999999" width="90" height="40" as="geometry" />
        </mxCell>
      </root>
    </mxGraphModel>
  </diagram>
  <diagram id="iFRMKfFgBvbct8lsDBZd" name="MR">
    <mxGraphModel grid="1" page="1" gridSize="10" guides="1" tooltips="1" connect="1" arrows="1" fold="1" pageScale="1" pageWidth="827" pageHeight="1169" math="0" shadow="0">
      <root>
        <mxCell id="0" />
        <mxCell id="1" parent="0" />
        <mxCell id="x8ybsu9Go8pO5ww-hZS5-1" value="Cliente" style="shape=table;startSize=30;container=1;collapsible=1;childLayout=tableLayout;fixedRows=1;rowLines=0;fontStyle=1;align=center;resizeLast=1;html=1;fontFamily=Helvetica;fontSize=11;fontColor=default;labelBackgroundColor=light-dark(#d4e1f5, #ededed);strokeWidth=2;fillColor=light-dark(#d4e1f5, #ededed);" vertex="1" parent="1">
          <mxGeometry x="180" y="60" width="180" height="240" as="geometry" />
        </mxCell>
        <mxCell id="x8ybsu9Go8pO5ww-hZS5-2" value="" style="shape=tableRow;horizontal=0;startSize=0;swimlaneHead=0;swimlaneBody=0;fillColor=none;collapsible=0;dropTarget=0;points=[[0,0.5],[1,0.5]];portConstraint=eastwest;top=0;left=0;right=0;bottom=1;fontFamily=Helvetica;fontSize=11;fontColor=default;labelBackgroundColor=default;strokeWidth=2;" vertex="1" parent="x8ybsu9Go8pO5ww-hZS5-1">
          <mxGeometry y="30" width="180" height="30" as="geometry" />
        </mxCell>
        <mxCell id="x8ybsu9Go8pO5ww-hZS5-3" value="PK" style="shape=partialRectangle;connectable=0;fillColor=none;top=0;left=0;bottom=0;right=0;fontStyle=1;overflow=hidden;whiteSpace=wrap;html=1;fontFamily=Helvetica;fontSize=11;fontColor=default;labelBackgroundColor=default;strokeWidth=2;" vertex="1" parent="x8ybsu9Go8pO5ww-hZS5-2">
          <mxGeometry width="30" height="30" as="geometry">
            <mxRectangle width="30" height="30" as="alternateBounds" />
          </mxGeometry>
        </mxCell>
        <mxCell id="x8ybsu9Go8pO5ww-hZS5-4" value="ClienteID: bigint" style="shape=partialRectangle;connectable=0;fillColor=none;top=0;left=0;bottom=0;right=0;align=left;spacingLeft=6;fontStyle=5;overflow=hidden;whiteSpace=wrap;html=1;fontFamily=Helvetica;fontSize=11;fontColor=default;labelBackgroundColor=default;strokeWidth=2;" vertex="1" parent="x8ybsu9Go8pO5ww-hZS5-2">
          <mxGeometry x="30" width="150" height="30" as="geometry">
            <mxRectangle width="150" height="30" as="alternateBounds" />
          </mxGeometry>
        </mxCell>
        <mxCell id="x8ybsu9Go8pO5ww-hZS5-5" value="" style="shape=tableRow;horizontal=0;startSize=0;swimlaneHead=0;swimlaneBody=0;fillColor=none;collapsible=0;dropTarget=0;points=[[0,0.5],[1,0.5]];portConstraint=eastwest;top=0;left=0;right=0;bottom=0;fontFamily=Helvetica;fontSize=11;fontColor=default;labelBackgroundColor=default;strokeWidth=2;" vertex="1" parent="x8ybsu9Go8pO5ww-hZS5-1">
          <mxGeometry y="60" width="180" height="30" as="geometry" />
        </mxCell>
        <mxCell id="x8ybsu9Go8pO5ww-hZS5-6" value="" style="shape=partialRectangle;connectable=0;fillColor=none;top=0;left=0;bottom=0;right=0;editable=1;overflow=hidden;whiteSpace=wrap;html=1;fontFamily=Helvetica;fontSize=11;fontColor=default;labelBackgroundColor=default;strokeWidth=2;" vertex="1" parent="x8ybsu9Go8pO5ww-hZS5-5">
          <mxGeometry width="30" height="30" as="geometry">
            <mxRectangle width="30" height="30" as="alternateBounds" />
          </mxGeometry>
        </mxCell>
        <mxCell id="x8ybsu9Go8pO5ww-hZS5-7" value="Nombre : varchar(100)" style="shape=partialRectangle;connectable=0;fillColor=none;top=0;left=0;bottom=0;right=0;align=left;spacingLeft=6;overflow=hidden;whiteSpace=wrap;html=1;fontFamily=Helvetica;fontSize=11;fontColor=default;labelBackgroundColor=default;strokeWidth=2;" vertex="1" parent="x8ybsu9Go8pO5ww-hZS5-5">
          <mxGeometry x="30" width="150" height="30" as="geometry">
            <mxRectangle width="150" height="30" as="alternateBounds" />
          </mxGeometry>
        </mxCell>
        <mxCell id="ixjX1cyE5EA5-aWFWqZk-1" value="" style="shape=tableRow;horizontal=0;startSize=0;swimlaneHead=0;swimlaneBody=0;fillColor=none;collapsible=0;dropTarget=0;points=[[0,0.5],[1,0.5]];portConstraint=eastwest;top=0;left=0;right=0;bottom=0;fontFamily=Helvetica;fontSize=11;fontColor=default;labelBackgroundColor=default;strokeWidth=2;" vertex="1" parent="x8ybsu9Go8pO5ww-hZS5-1">
          <mxGeometry y="90" width="180" height="30" as="geometry" />
        </mxCell>
        <mxCell id="ixjX1cyE5EA5-aWFWqZk-2" value="" style="shape=partialRectangle;connectable=0;fillColor=none;top=0;left=0;bottom=0;right=0;editable=1;overflow=hidden;whiteSpace=wrap;html=1;fontFamily=Helvetica;fontSize=11;fontColor=default;labelBackgroundColor=default;strokeWidth=2;" vertex="1" parent="ixjX1cyE5EA5-aWFWqZk-1">
          <mxGeometry width="30" height="30" as="geometry">
            <mxRectangle width="30" height="30" as="alternateBounds" />
          </mxGeometry>
        </mxCell>
        <mxCell id="ixjX1cyE5EA5-aWFWqZk-3" value="ApPaterno : varchar(100)" style="shape=partialRectangle;connectable=0;fillColor=none;top=0;left=0;bottom=0;right=0;align=left;spacingLeft=6;overflow=hidden;whiteSpace=wrap;html=1;fontFamily=Helvetica;fontSize=11;fontColor=default;labelBackgroundColor=default;strokeWidth=2;" vertex="1" parent="ixjX1cyE5EA5-aWFWqZk-1">
          <mxGeometry x="30" width="150" height="30" as="geometry">
            <mxRectangle width="150" height="30" as="alternateBounds" />
          </mxGeometry>
        </mxCell>
        <mxCell id="ixjX1cyE5EA5-aWFWqZk-4" value="" style="shape=tableRow;horizontal=0;startSize=0;swimlaneHead=0;swimlaneBody=0;fillColor=none;collapsible=0;dropTarget=0;points=[[0,0.5],[1,0.5]];portConstraint=eastwest;top=0;left=0;right=0;bottom=0;fontFamily=Helvetica;fontSize=11;fontColor=default;labelBackgroundColor=default;strokeWidth=2;" vertex="1" parent="x8ybsu9Go8pO5ww-hZS5-1">
          <mxGeometry y="120" width="180" height="30" as="geometry" />
        </mxCell>
        <mxCell id="ixjX1cyE5EA5-aWFWqZk-5" value="" style="shape=partialRectangle;connectable=0;fillColor=none;top=0;left=0;bottom=0;right=0;editable=1;overflow=hidden;whiteSpace=wrap;html=1;fontFamily=Helvetica;fontSize=11;fontColor=default;labelBackgroundColor=default;strokeWidth=2;" vertex="1" parent="ixjX1cyE5EA5-aWFWqZk-4">
          <mxGeometry width="30" height="30" as="geometry">
            <mxRectangle width="30" height="30" as="alternateBounds" />
          </mxGeometry>
        </mxCell>
        <mxCell id="ixjX1cyE5EA5-aWFWqZk-6" value="ApMaterno : varchar(100)" style="shape=partialRectangle;connectable=0;fillColor=none;top=0;left=0;bottom=0;right=0;align=left;spacingLeft=6;overflow=hidden;whiteSpace=wrap;html=1;fontFamily=Helvetica;fontSize=11;fontColor=default;labelBackgroundColor=default;strokeWidth=2;" vertex="1" parent="ixjX1cyE5EA5-aWFWqZk-4">
          <mxGeometry x="30" width="150" height="30" as="geometry">
            <mxRectangle width="150" height="30" as="alternateBounds" />
          </mxGeometry>
        </mxCell>
        <mxCell id="x8ybsu9Go8pO5ww-hZS5-8" value="" style="shape=tableRow;horizontal=0;startSize=0;swimlaneHead=0;swimlaneBody=0;fillColor=none;collapsible=0;dropTarget=0;points=[[0,0.5],[1,0.5]];portConstraint=eastwest;top=0;left=0;right=0;bottom=0;fontFamily=Helvetica;fontSize=11;fontColor=default;labelBackgroundColor=default;strokeWidth=2;" vertex="1" parent="x8ybsu9Go8pO5ww-hZS5-1">
          <mxGeometry y="150" width="180" height="30" as="geometry" />
        </mxCell>
        <mxCell id="x8ybsu9Go8pO5ww-hZS5-9" value="" style="shape=partialRectangle;connectable=0;fillColor=none;top=0;left=0;bottom=0;right=0;editable=1;overflow=hidden;whiteSpace=wrap;html=1;fontFamily=Helvetica;fontSize=11;fontColor=default;labelBackgroundColor=default;strokeWidth=2;" vertex="1" parent="x8ybsu9Go8pO5ww-hZS5-8">
          <mxGeometry width="30" height="30" as="geometry">
            <mxRectangle width="30" height="30" as="alternateBounds" />
          </mxGeometry>
        </mxCell>
        <mxCell id="x8ybsu9Go8pO5ww-hZS5-10" value="Correo : varchar(50)" style="shape=partialRectangle;connectable=0;fillColor=none;top=0;left=0;bottom=0;right=0;align=left;spacingLeft=6;overflow=hidden;whiteSpace=wrap;html=1;fontFamily=Helvetica;fontSize=11;fontColor=default;labelBackgroundColor=default;strokeWidth=2;" vertex="1" parent="x8ybsu9Go8pO5ww-hZS5-8">
          <mxGeometry x="30" width="150" height="30" as="geometry">
            <mxRectangle width="150" height="30" as="alternateBounds" />
          </mxGeometry>
        </mxCell>
        <mxCell id="x8ybsu9Go8pO5ww-hZS5-11" value="" style="shape=tableRow;horizontal=0;startSize=0;swimlaneHead=0;swimlaneBody=0;fillColor=none;collapsible=0;dropTarget=0;points=[[0,0.5],[1,0.5]];portConstraint=eastwest;top=0;left=0;right=0;bottom=0;fontFamily=Helvetica;fontSize=11;fontColor=default;labelBackgroundColor=default;strokeWidth=2;" vertex="1" parent="x8ybsu9Go8pO5ww-hZS5-1">
          <mxGeometry y="180" width="180" height="30" as="geometry" />
        </mxCell>
        <mxCell id="x8ybsu9Go8pO5ww-hZS5-12" value="" style="shape=partialRectangle;connectable=0;fillColor=none;top=0;left=0;bottom=0;right=0;editable=1;overflow=hidden;whiteSpace=wrap;html=1;fontFamily=Helvetica;fontSize=11;fontColor=default;labelBackgroundColor=default;strokeWidth=2;" vertex="1" parent="x8ybsu9Go8pO5ww-hZS5-11">
          <mxGeometry width="30" height="30" as="geometry">
            <mxRectangle width="30" height="30" as="alternateBounds" />
          </mxGeometry>
        </mxCell>
        <mxCell id="x8ybsu9Go8pO5ww-hZS5-13" value="Password : varchar(50)" style="shape=partialRectangle;connectable=0;fillColor=none;top=0;left=0;bottom=0;right=0;align=left;spacingLeft=6;overflow=hidden;whiteSpace=wrap;html=1;fontFamily=Helvetica;fontSize=11;fontColor=default;labelBackgroundColor=default;strokeWidth=2;" vertex="1" parent="x8ybsu9Go8pO5ww-hZS5-11">
          <mxGeometry x="30" width="150" height="30" as="geometry">
            <mxRectangle width="150" height="30" as="alternateBounds" />
          </mxGeometry>
        </mxCell>
        <mxCell id="_NgJH4En5BanrlUuijnK-1" style="shape=tableRow;horizontal=0;startSize=0;swimlaneHead=0;swimlaneBody=0;fillColor=none;collapsible=0;dropTarget=0;points=[[0,0.5],[1,0.5]];portConstraint=eastwest;top=0;left=0;right=0;bottom=0;fontFamily=Helvetica;fontSize=11;fontColor=default;labelBackgroundColor=default;strokeWidth=2;" vertex="1" parent="x8ybsu9Go8pO5ww-hZS5-1">
          <mxGeometry y="210" width="180" height="30" as="geometry" />
        </mxCell>
        <mxCell id="_NgJH4En5BanrlUuijnK-2" style="shape=partialRectangle;connectable=0;fillColor=none;top=0;left=0;bottom=0;right=0;editable=1;overflow=hidden;whiteSpace=wrap;html=1;fontFamily=Helvetica;fontSize=11;fontColor=default;labelBackgroundColor=default;strokeWidth=2;" vertex="1" parent="_NgJH4En5BanrlUuijnK-1">
          <mxGeometry width="30" height="30" as="geometry">
            <mxRectangle width="30" height="30" as="alternateBounds" />
          </mxGeometry>
        </mxCell>
        <mxCell id="_NgJH4En5BanrlUuijnK-3" value="Token:&amp;nbsp;varchar(30)" style="shape=partialRectangle;connectable=0;fillColor=none;top=0;left=0;bottom=0;right=0;align=left;spacingLeft=6;overflow=hidden;whiteSpace=wrap;html=1;fontFamily=Helvetica;fontSize=11;fontColor=default;labelBackgroundColor=default;strokeWidth=2;" vertex="1" parent="_NgJH4En5BanrlUuijnK-1">
          <mxGeometry x="30" width="150" height="30" as="geometry">
            <mxRectangle width="150" height="30" as="alternateBounds" />
          </mxGeometry>
        </mxCell>
        <mxCell id="x8ybsu9Go8pO5ww-hZS5-14" value="Administrador" style="shape=table;startSize=30;container=1;collapsible=1;childLayout=tableLayout;fixedRows=1;rowLines=0;fontStyle=1;align=center;resizeLast=1;html=1;fontFamily=Helvetica;fontSize=11;fontColor=default;labelBackgroundColor=light-dark(#d4e1f5, #ededed);strokeWidth=2;fillColor=light-dark(#d4e1f5, #ededed);" vertex="1" parent="1">
          <mxGeometry x="181" y="320" width="180" height="240" as="geometry" />
        </mxCell>
        <mxCell id="x8ybsu9Go8pO5ww-hZS5-15" value="" style="shape=tableRow;horizontal=0;startSize=0;swimlaneHead=0;swimlaneBody=0;fillColor=none;collapsible=0;dropTarget=0;points=[[0,0.5],[1,0.5]];portConstraint=eastwest;top=0;left=0;right=0;bottom=1;fontFamily=Helvetica;fontSize=11;fontColor=default;labelBackgroundColor=default;strokeWidth=2;" vertex="1" parent="x8ybsu9Go8pO5ww-hZS5-14">
          <mxGeometry y="30" width="180" height="30" as="geometry" />
        </mxCell>
        <mxCell id="x8ybsu9Go8pO5ww-hZS5-16" value="PK" style="shape=partialRectangle;connectable=0;fillColor=none;top=0;left=0;bottom=0;right=0;fontStyle=1;overflow=hidden;whiteSpace=wrap;html=1;fontFamily=Helvetica;fontSize=11;fontColor=default;labelBackgroundColor=default;strokeWidth=2;" vertex="1" parent="x8ybsu9Go8pO5ww-hZS5-15">
          <mxGeometry width="30" height="30" as="geometry">
            <mxRectangle width="30" height="30" as="alternateBounds" />
          </mxGeometry>
        </mxCell>
        <mxCell id="x8ybsu9Go8pO5ww-hZS5-17" value="AdmiID: bigint" style="shape=partialRectangle;connectable=0;fillColor=none;top=0;left=0;bottom=0;right=0;align=left;spacingLeft=6;fontStyle=5;overflow=hidden;whiteSpace=wrap;html=1;fontFamily=Helvetica;fontSize=11;fontColor=default;labelBackgroundColor=default;strokeWidth=2;" vertex="1" parent="x8ybsu9Go8pO5ww-hZS5-15">
          <mxGeometry x="30" width="150" height="30" as="geometry">
            <mxRectangle width="150" height="30" as="alternateBounds" />
          </mxGeometry>
        </mxCell>
        <mxCell id="V4vgwMdxxwNMeI7wYLac-1" value="" style="shape=tableRow;horizontal=0;startSize=0;swimlaneHead=0;swimlaneBody=0;fillColor=none;collapsible=0;dropTarget=0;points=[[0,0.5],[1,0.5]];portConstraint=eastwest;top=0;left=0;right=0;bottom=0;fontFamily=Helvetica;fontSize=11;fontColor=default;labelBackgroundColor=default;strokeWidth=2;" vertex="1" parent="x8ybsu9Go8pO5ww-hZS5-14">
          <mxGeometry y="60" width="180" height="30" as="geometry" />
        </mxCell>
        <mxCell id="V4vgwMdxxwNMeI7wYLac-2" value="" style="shape=partialRectangle;connectable=0;fillColor=none;top=0;left=0;bottom=0;right=0;editable=1;overflow=hidden;whiteSpace=wrap;html=1;fontFamily=Helvetica;fontSize=11;fontColor=default;labelBackgroundColor=default;strokeWidth=2;" vertex="1" parent="V4vgwMdxxwNMeI7wYLac-1">
          <mxGeometry width="30" height="30" as="geometry">
            <mxRectangle width="30" height="30" as="alternateBounds" />
          </mxGeometry>
        </mxCell>
        <mxCell id="V4vgwMdxxwNMeI7wYLac-3" value="Nombre : varchar(50)" style="shape=partialRectangle;connectable=0;fillColor=none;top=0;left=0;bottom=0;right=0;align=left;spacingLeft=6;overflow=hidden;whiteSpace=wrap;html=1;fontFamily=Helvetica;fontSize=11;fontColor=default;labelBackgroundColor=default;strokeWidth=2;" vertex="1" parent="V4vgwMdxxwNMeI7wYLac-1">
          <mxGeometry x="30" width="150" height="30" as="geometry">
            <mxRectangle width="150" height="30" as="alternateBounds" />
          </mxGeometry>
        </mxCell>
        <mxCell id="V4vgwMdxxwNMeI7wYLac-4" value="" style="shape=tableRow;horizontal=0;startSize=0;swimlaneHead=0;swimlaneBody=0;fillColor=none;collapsible=0;dropTarget=0;points=[[0,0.5],[1,0.5]];portConstraint=eastwest;top=0;left=0;right=0;bottom=0;fontFamily=Helvetica;fontSize=11;fontColor=default;labelBackgroundColor=default;strokeWidth=2;" vertex="1" parent="x8ybsu9Go8pO5ww-hZS5-14">
          <mxGeometry y="90" width="180" height="30" as="geometry" />
        </mxCell>
        <mxCell id="V4vgwMdxxwNMeI7wYLac-5" value="" style="shape=partialRectangle;connectable=0;fillColor=none;top=0;left=0;bottom=0;right=0;editable=1;overflow=hidden;whiteSpace=wrap;html=1;fontFamily=Helvetica;fontSize=11;fontColor=default;labelBackgroundColor=default;strokeWidth=2;" vertex="1" parent="V4vgwMdxxwNMeI7wYLac-4">
          <mxGeometry width="30" height="30" as="geometry">
            <mxRectangle width="30" height="30" as="alternateBounds" />
          </mxGeometry>
        </mxCell>
        <mxCell id="V4vgwMdxxwNMeI7wYLac-6" value="ApPaterno : varchar(50)" style="shape=partialRectangle;connectable=0;fillColor=none;top=0;left=0;bottom=0;right=0;align=left;spacingLeft=6;overflow=hidden;whiteSpace=wrap;html=1;fontFamily=Helvetica;fontSize=11;fontColor=default;labelBackgroundColor=default;strokeWidth=2;" vertex="1" parent="V4vgwMdxxwNMeI7wYLac-4">
          <mxGeometry x="30" width="150" height="30" as="geometry">
            <mxRectangle width="150" height="30" as="alternateBounds" />
          </mxGeometry>
        </mxCell>
        <mxCell id="V4vgwMdxxwNMeI7wYLac-7" value="" style="shape=tableRow;horizontal=0;startSize=0;swimlaneHead=0;swimlaneBody=0;fillColor=none;collapsible=0;dropTarget=0;points=[[0,0.5],[1,0.5]];portConstraint=eastwest;top=0;left=0;right=0;bottom=0;fontFamily=Helvetica;fontSize=11;fontColor=default;labelBackgroundColor=default;strokeWidth=2;" vertex="1" parent="x8ybsu9Go8pO5ww-hZS5-14">
          <mxGeometry y="120" width="180" height="30" as="geometry" />
        </mxCell>
        <mxCell id="V4vgwMdxxwNMeI7wYLac-8" value="" style="shape=partialRectangle;connectable=0;fillColor=none;top=0;left=0;bottom=0;right=0;editable=1;overflow=hidden;whiteSpace=wrap;html=1;fontFamily=Helvetica;fontSize=11;fontColor=default;labelBackgroundColor=default;strokeWidth=2;" vertex="1" parent="V4vgwMdxxwNMeI7wYLac-7">
          <mxGeometry width="30" height="30" as="geometry">
            <mxRectangle width="30" height="30" as="alternateBounds" />
          </mxGeometry>
        </mxCell>
        <mxCell id="V4vgwMdxxwNMeI7wYLac-9" value="ApMaterno : varchar(50)" style="shape=partialRectangle;connectable=0;fillColor=none;top=0;left=0;bottom=0;right=0;align=left;spacingLeft=6;overflow=hidden;whiteSpace=wrap;html=1;fontFamily=Helvetica;fontSize=11;fontColor=default;labelBackgroundColor=default;strokeWidth=2;" vertex="1" parent="V4vgwMdxxwNMeI7wYLac-7">
          <mxGeometry x="30" width="150" height="30" as="geometry">
            <mxRectangle width="150" height="30" as="alternateBounds" />
          </mxGeometry>
        </mxCell>
        <mxCell id="x8ybsu9Go8pO5ww-hZS5-21" value="" style="shape=tableRow;horizontal=0;startSize=0;swimlaneHead=0;swimlaneBody=0;fillColor=none;collapsible=0;dropTarget=0;points=[[0,0.5],[1,0.5]];portConstraint=eastwest;top=0;left=0;right=0;bottom=0;fontFamily=Helvetica;fontSize=11;fontColor=default;labelBackgroundColor=default;strokeWidth=2;" vertex="1" parent="x8ybsu9Go8pO5ww-hZS5-14">
          <mxGeometry y="150" width="180" height="30" as="geometry" />
        </mxCell>
        <mxCell id="x8ybsu9Go8pO5ww-hZS5-22" value="" style="shape=partialRectangle;connectable=0;fillColor=none;top=0;left=0;bottom=0;right=0;editable=1;overflow=hidden;whiteSpace=wrap;html=1;fontFamily=Helvetica;fontSize=11;fontColor=default;labelBackgroundColor=default;strokeWidth=2;" vertex="1" parent="x8ybsu9Go8pO5ww-hZS5-21">
          <mxGeometry width="30" height="30" as="geometry">
            <mxRectangle width="30" height="30" as="alternateBounds" />
          </mxGeometry>
        </mxCell>
        <mxCell id="x8ybsu9Go8pO5ww-hZS5-23" value="Password : varchar(50)" style="shape=partialRectangle;connectable=0;fillColor=none;top=0;left=0;bottom=0;right=0;align=left;spacingLeft=6;overflow=hidden;whiteSpace=wrap;html=1;fontFamily=Helvetica;fontSize=11;fontColor=default;labelBackgroundColor=default;strokeWidth=2;" vertex="1" parent="x8ybsu9Go8pO5ww-hZS5-21">
          <mxGeometry x="30" width="150" height="30" as="geometry">
            <mxRectangle width="150" height="30" as="alternateBounds" />
          </mxGeometry>
        </mxCell>
        <mxCell id="x8ybsu9Go8pO5ww-hZS5-18" value="" style="shape=tableRow;horizontal=0;startSize=0;swimlaneHead=0;swimlaneBody=0;fillColor=none;collapsible=0;dropTarget=0;points=[[0,0.5],[1,0.5]];portConstraint=eastwest;top=0;left=0;right=0;bottom=0;fontFamily=Helvetica;fontSize=11;fontColor=default;labelBackgroundColor=default;strokeWidth=2;" vertex="1" parent="x8ybsu9Go8pO5ww-hZS5-14">
          <mxGeometry y="180" width="180" height="30" as="geometry" />
        </mxCell>
        <mxCell id="x8ybsu9Go8pO5ww-hZS5-19" value="" style="shape=partialRectangle;connectable=0;fillColor=none;top=0;left=0;bottom=0;right=0;editable=1;overflow=hidden;whiteSpace=wrap;html=1;fontFamily=Helvetica;fontSize=11;fontColor=default;labelBackgroundColor=default;strokeWidth=2;" vertex="1" parent="x8ybsu9Go8pO5ww-hZS5-18">
          <mxGeometry width="30" height="30" as="geometry">
            <mxRectangle width="30" height="30" as="alternateBounds" />
          </mxGeometry>
        </mxCell>
        <mxCell id="x8ybsu9Go8pO5ww-hZS5-20" value="Correo : varchar(50)" style="shape=partialRectangle;connectable=0;fillColor=none;top=0;left=0;bottom=0;right=0;align=left;spacingLeft=6;overflow=hidden;whiteSpace=wrap;html=1;fontFamily=Helvetica;fontSize=11;fontColor=default;labelBackgroundColor=default;strokeWidth=2;" vertex="1" parent="x8ybsu9Go8pO5ww-hZS5-18">
          <mxGeometry x="30" width="150" height="30" as="geometry">
            <mxRectangle width="150" height="30" as="alternateBounds" />
          </mxGeometry>
        </mxCell>
        <mxCell id="_NgJH4En5BanrlUuijnK-4" style="shape=tableRow;horizontal=0;startSize=0;swimlaneHead=0;swimlaneBody=0;fillColor=none;collapsible=0;dropTarget=0;points=[[0,0.5],[1,0.5]];portConstraint=eastwest;top=0;left=0;right=0;bottom=0;fontFamily=Helvetica;fontSize=11;fontColor=default;labelBackgroundColor=default;strokeWidth=2;" vertex="1" parent="x8ybsu9Go8pO5ww-hZS5-14">
          <mxGeometry y="210" width="180" height="30" as="geometry" />
        </mxCell>
        <mxCell id="_NgJH4En5BanrlUuijnK-5" style="shape=partialRectangle;connectable=0;fillColor=none;top=0;left=0;bottom=0;right=0;editable=1;overflow=hidden;whiteSpace=wrap;html=1;fontFamily=Helvetica;fontSize=11;fontColor=default;labelBackgroundColor=default;strokeWidth=2;" vertex="1" parent="_NgJH4En5BanrlUuijnK-4">
          <mxGeometry width="30" height="30" as="geometry">
            <mxRectangle width="30" height="30" as="alternateBounds" />
          </mxGeometry>
        </mxCell>
        <mxCell id="_NgJH4En5BanrlUuijnK-6" value="Token:&amp;nbsp;varchar(30)" style="shape=partialRectangle;connectable=0;fillColor=none;top=0;left=0;bottom=0;right=0;align=left;spacingLeft=6;overflow=hidden;whiteSpace=wrap;html=1;fontFamily=Helvetica;fontSize=11;fontColor=default;labelBackgroundColor=default;strokeWidth=2;" vertex="1" parent="_NgJH4En5BanrlUuijnK-4">
          <mxGeometry x="30" width="150" height="30" as="geometry">
            <mxRectangle width="150" height="30" as="alternateBounds" />
          </mxGeometry>
        </mxCell>
        <mxCell id="x8ybsu9Go8pO5ww-hZS5-27" value="Categoria" style="shape=table;startSize=30;container=1;collapsible=1;childLayout=tableLayout;fixedRows=1;rowLines=0;fontStyle=1;align=center;resizeLast=1;html=1;fontFamily=Helvetica;fontSize=11;fontColor=default;labelBackgroundColor=light-dark(#d4e1f5, #ededed);strokeWidth=2;fillColor=light-dark(#d4e1f5, #ededed);" vertex="1" parent="1">
          <mxGeometry x="780" y="200" width="180" height="90" as="geometry" />
        </mxCell>
        <mxCell id="x8ybsu9Go8pO5ww-hZS5-28" value="" style="shape=tableRow;horizontal=0;startSize=0;swimlaneHead=0;swimlaneBody=0;fillColor=none;collapsible=0;dropTarget=0;points=[[0,0.5],[1,0.5]];portConstraint=eastwest;top=0;left=0;right=0;bottom=1;fontFamily=Helvetica;fontSize=11;fontColor=default;labelBackgroundColor=default;strokeWidth=2;" vertex="1" parent="x8ybsu9Go8pO5ww-hZS5-27">
          <mxGeometry y="30" width="180" height="30" as="geometry" />
        </mxCell>
        <mxCell id="x8ybsu9Go8pO5ww-hZS5-29" value="PK" style="shape=partialRectangle;connectable=0;fillColor=none;top=0;left=0;bottom=0;right=0;fontStyle=1;overflow=hidden;whiteSpace=wrap;html=1;fontFamily=Helvetica;fontSize=11;fontColor=default;labelBackgroundColor=default;strokeWidth=2;" vertex="1" parent="x8ybsu9Go8pO5ww-hZS5-28">
          <mxGeometry width="30" height="30" as="geometry">
            <mxRectangle width="30" height="30" as="alternateBounds" />
          </mxGeometry>
        </mxCell>
        <mxCell id="x8ybsu9Go8pO5ww-hZS5-30" value="CategoriaID: bigint" style="shape=partialRectangle;connectable=0;fillColor=none;top=0;left=0;bottom=0;right=0;align=left;spacingLeft=6;fontStyle=5;overflow=hidden;whiteSpace=wrap;html=1;fontFamily=Helvetica;fontSize=11;fontColor=default;labelBackgroundColor=default;strokeWidth=2;" vertex="1" parent="x8ybsu9Go8pO5ww-hZS5-28">
          <mxGeometry x="30" width="150" height="30" as="geometry">
            <mxRectangle width="150" height="30" as="alternateBounds" />
          </mxGeometry>
        </mxCell>
        <mxCell id="x8ybsu9Go8pO5ww-hZS5-31" value="" style="shape=tableRow;horizontal=0;startSize=0;swimlaneHead=0;swimlaneBody=0;fillColor=none;collapsible=0;dropTarget=0;points=[[0,0.5],[1,0.5]];portConstraint=eastwest;top=0;left=0;right=0;bottom=0;fontFamily=Helvetica;fontSize=11;fontColor=default;labelBackgroundColor=default;strokeWidth=2;" vertex="1" parent="x8ybsu9Go8pO5ww-hZS5-27">
          <mxGeometry y="60" width="180" height="30" as="geometry" />
        </mxCell>
        <mxCell id="x8ybsu9Go8pO5ww-hZS5-32" value="" style="shape=partialRectangle;connectable=0;fillColor=none;top=0;left=0;bottom=0;right=0;editable=1;overflow=hidden;whiteSpace=wrap;html=1;fontFamily=Helvetica;fontSize=11;fontColor=default;labelBackgroundColor=default;strokeWidth=2;" vertex="1" parent="x8ybsu9Go8pO5ww-hZS5-31">
          <mxGeometry width="30" height="30" as="geometry">
            <mxRectangle width="30" height="30" as="alternateBounds" />
          </mxGeometry>
        </mxCell>
        <mxCell id="x8ybsu9Go8pO5ww-hZS5-33" value="Categoria: varchar(80)" style="shape=partialRectangle;connectable=0;fillColor=none;top=0;left=0;bottom=0;right=0;align=left;spacingLeft=6;overflow=hidden;whiteSpace=wrap;html=1;fontFamily=Helvetica;fontSize=11;fontColor=default;labelBackgroundColor=default;strokeWidth=2;" vertex="1" parent="x8ybsu9Go8pO5ww-hZS5-31">
          <mxGeometry x="30" width="150" height="30" as="geometry">
            <mxRectangle width="150" height="30" as="alternateBounds" />
          </mxGeometry>
        </mxCell>
        <mxCell id="xebK80BjNcvrvO3vmzvM-1" value="&lt;span style=&quot;background-color: rgb(212, 225, 245);&quot;&gt;Incidente&lt;/span&gt;" style="shape=table;startSize=30;container=1;collapsible=1;childLayout=tableLayout;fixedRows=1;rowLines=0;fontStyle=1;align=center;resizeLast=1;html=1;fontFamily=Helvetica;fontSize=11;fontColor=default;labelBackgroundColor=default;strokeWidth=2;fillColor=#D4E1F5;" vertex="1" parent="1">
          <mxGeometry x="500" y="60" width="180" height="320" as="geometry" />
        </mxCell>
        <mxCell id="xebK80BjNcvrvO3vmzvM-2" value="" style="shape=tableRow;horizontal=0;startSize=0;swimlaneHead=0;swimlaneBody=0;fillColor=none;collapsible=0;dropTarget=0;points=[[0,0.5],[1,0.5]];portConstraint=eastwest;top=0;left=0;right=0;bottom=1;fontFamily=Helvetica;fontSize=11;fontColor=default;labelBackgroundColor=default;strokeWidth=2;" vertex="1" parent="xebK80BjNcvrvO3vmzvM-1">
          <mxGeometry y="30" width="180" height="30" as="geometry" />
        </mxCell>
        <mxCell id="xebK80BjNcvrvO3vmzvM-3" value="PK" style="shape=partialRectangle;connectable=0;fillColor=none;top=0;left=0;bottom=0;right=0;fontStyle=1;overflow=hidden;whiteSpace=wrap;html=1;fontFamily=Helvetica;fontSize=11;fontColor=default;labelBackgroundColor=default;strokeWidth=2;" vertex="1" parent="xebK80BjNcvrvO3vmzvM-2">
          <mxGeometry width="30" height="30" as="geometry">
            <mxRectangle width="30" height="30" as="alternateBounds" />
          </mxGeometry>
        </mxCell>
        <mxCell id="xebK80BjNcvrvO3vmzvM-4" value="IncidenteID: bigint" style="shape=partialRectangle;connectable=0;fillColor=none;top=0;left=0;bottom=0;right=0;align=left;spacingLeft=6;fontStyle=5;overflow=hidden;whiteSpace=wrap;html=1;fontFamily=Helvetica;fontSize=11;fontColor=default;labelBackgroundColor=default;strokeWidth=2;" vertex="1" parent="xebK80BjNcvrvO3vmzvM-2">
          <mxGeometry x="30" width="150" height="30" as="geometry">
            <mxRectangle width="150" height="30" as="alternateBounds" />
          </mxGeometry>
        </mxCell>
        <mxCell id="HP7ayfzPBNpVEZWiLAQ4-4" style="shape=tableRow;horizontal=0;startSize=0;swimlaneHead=0;swimlaneBody=0;fillColor=none;collapsible=0;dropTarget=0;points=[[0,0.5],[1,0.5]];portConstraint=eastwest;top=0;left=0;right=0;bottom=1;fontFamily=Helvetica;fontSize=11;fontColor=default;labelBackgroundColor=default;strokeWidth=2;" vertex="1" parent="xebK80BjNcvrvO3vmzvM-1">
          <mxGeometry y="60" width="180" height="30" as="geometry" />
        </mxCell>
        <mxCell id="HP7ayfzPBNpVEZWiLAQ4-5" value="&lt;b&gt;FK&lt;/b&gt;" style="shape=partialRectangle;connectable=0;fillColor=none;top=0;left=0;bottom=0;right=0;editable=1;overflow=hidden;whiteSpace=wrap;html=1;fontFamily=Helvetica;fontSize=11;fontColor=default;labelBackgroundColor=default;strokeWidth=2;" vertex="1" parent="HP7ayfzPBNpVEZWiLAQ4-4">
          <mxGeometry width="30" height="30" as="geometry">
            <mxRectangle width="30" height="30" as="alternateBounds" />
          </mxGeometry>
        </mxCell>
        <mxCell id="HP7ayfzPBNpVEZWiLAQ4-6" value="&lt;b&gt;ClienteID: bigint&lt;/b&gt;" style="shape=partialRectangle;connectable=0;fillColor=none;top=0;left=0;bottom=0;right=0;align=left;spacingLeft=6;overflow=hidden;whiteSpace=wrap;html=1;fontFamily=Helvetica;fontSize=11;fontColor=default;labelBackgroundColor=default;strokeWidth=2;" vertex="1" parent="HP7ayfzPBNpVEZWiLAQ4-4">
          <mxGeometry x="30" width="150" height="30" as="geometry">
            <mxRectangle width="150" height="30" as="alternateBounds" />
          </mxGeometry>
        </mxCell>
        <mxCell id="p7_E2sHJvJaNQI8z4zhb-1" value="" style="shape=tableRow;horizontal=0;startSize=0;swimlaneHead=0;swimlaneBody=0;fillColor=none;collapsible=0;dropTarget=0;points=[[0,0.5],[1,0.5]];portConstraint=eastwest;top=0;left=0;right=0;bottom=1;fontFamily=Helvetica;fontSize=11;fontColor=default;labelBackgroundColor=default;strokeWidth=2;" vertex="1" parent="xebK80BjNcvrvO3vmzvM-1">
          <mxGeometry y="90" width="180" height="30" as="geometry" />
        </mxCell>
        <mxCell id="p7_E2sHJvJaNQI8z4zhb-2" value="&lt;b&gt;FK&lt;/b&gt;" style="shape=partialRectangle;connectable=0;fillColor=none;top=0;left=0;bottom=0;right=0;editable=1;overflow=hidden;whiteSpace=wrap;html=1;fontFamily=Helvetica;fontSize=11;fontColor=default;labelBackgroundColor=default;strokeWidth=2;" vertex="1" parent="p7_E2sHJvJaNQI8z4zhb-1">
          <mxGeometry width="30" height="30" as="geometry">
            <mxRectangle width="30" height="30" as="alternateBounds" />
          </mxGeometry>
        </mxCell>
        <mxCell id="p7_E2sHJvJaNQI8z4zhb-3" value="&lt;b&gt;CategoriaID: bigint&lt;/b&gt;" style="shape=partialRectangle;connectable=0;fillColor=none;top=0;left=0;bottom=0;right=0;align=left;spacingLeft=6;overflow=hidden;whiteSpace=wrap;html=1;fontFamily=Helvetica;fontSize=11;fontColor=default;labelBackgroundColor=default;strokeWidth=2;" vertex="1" parent="p7_E2sHJvJaNQI8z4zhb-1">
          <mxGeometry x="30" width="150" height="30" as="geometry">
            <mxRectangle width="150" height="30" as="alternateBounds" />
          </mxGeometry>
        </mxCell>
        <mxCell id="xebK80BjNcvrvO3vmzvM-5" value="" style="shape=tableRow;horizontal=0;startSize=0;swimlaneHead=0;swimlaneBody=0;fillColor=none;collapsible=0;dropTarget=0;points=[[0,0.5],[1,0.5]];portConstraint=eastwest;top=0;left=0;right=0;bottom=0;fontFamily=Helvetica;fontSize=11;fontColor=default;labelBackgroundColor=default;strokeWidth=2;" vertex="1" parent="xebK80BjNcvrvO3vmzvM-1">
          <mxGeometry y="120" width="180" height="30" as="geometry" />
        </mxCell>
        <mxCell id="xebK80BjNcvrvO3vmzvM-6" value="" style="shape=partialRectangle;connectable=0;fillColor=none;top=0;left=0;bottom=0;right=0;editable=1;overflow=hidden;whiteSpace=wrap;html=1;fontFamily=Helvetica;fontSize=11;fontColor=default;labelBackgroundColor=default;strokeWidth=2;" vertex="1" parent="xebK80BjNcvrvO3vmzvM-5">
          <mxGeometry width="30" height="30" as="geometry">
            <mxRectangle width="30" height="30" as="alternateBounds" />
          </mxGeometry>
        </mxCell>
        <mxCell id="xebK80BjNcvrvO3vmzvM-7" value="Nombre : varchar(50)" style="shape=partialRectangle;connectable=0;fillColor=none;top=0;left=0;bottom=0;right=0;align=left;spacingLeft=6;overflow=hidden;whiteSpace=wrap;html=1;fontFamily=Helvetica;fontSize=11;fontColor=default;labelBackgroundColor=default;strokeWidth=2;" vertex="1" parent="xebK80BjNcvrvO3vmzvM-5">
          <mxGeometry x="30" width="150" height="30" as="geometry">
            <mxRectangle width="150" height="30" as="alternateBounds" />
          </mxGeometry>
        </mxCell>
        <mxCell id="j8Mn9ErlMYxGNWFEoB5O-1" value="" style="shape=tableRow;horizontal=0;startSize=0;swimlaneHead=0;swimlaneBody=0;fillColor=none;collapsible=0;dropTarget=0;points=[[0,0.5],[1,0.5]];portConstraint=eastwest;top=0;left=0;right=0;bottom=0;fontFamily=Helvetica;fontSize=11;fontColor=default;labelBackgroundColor=default;strokeWidth=2;" vertex="1" parent="xebK80BjNcvrvO3vmzvM-1">
          <mxGeometry y="150" width="180" height="30" as="geometry" />
        </mxCell>
        <mxCell id="j8Mn9ErlMYxGNWFEoB5O-2" value="" style="shape=partialRectangle;connectable=0;fillColor=none;top=0;left=0;bottom=0;right=0;editable=1;overflow=hidden;whiteSpace=wrap;html=1;fontFamily=Helvetica;fontSize=11;fontColor=default;labelBackgroundColor=default;strokeWidth=2;" vertex="1" parent="j8Mn9ErlMYxGNWFEoB5O-1">
          <mxGeometry width="30" height="30" as="geometry">
            <mxRectangle width="30" height="30" as="alternateBounds" />
          </mxGeometry>
        </mxCell>
        <mxCell id="j8Mn9ErlMYxGNWFEoB5O-3" value="Descripcion : varchar(80)" style="shape=partialRectangle;connectable=0;fillColor=none;top=0;left=0;bottom=0;right=0;align=left;spacingLeft=6;overflow=hidden;whiteSpace=wrap;html=1;fontFamily=Helvetica;fontSize=11;fontColor=default;labelBackgroundColor=default;strokeWidth=2;" vertex="1" parent="j8Mn9ErlMYxGNWFEoB5O-1">
          <mxGeometry x="30" width="150" height="30" as="geometry">
            <mxRectangle width="150" height="30" as="alternateBounds" />
          </mxGeometry>
        </mxCell>
        <mxCell id="xebK80BjNcvrvO3vmzvM-8" value="" style="shape=tableRow;horizontal=0;startSize=0;swimlaneHead=0;swimlaneBody=0;fillColor=none;collapsible=0;dropTarget=0;points=[[0,0.5],[1,0.5]];portConstraint=eastwest;top=0;left=0;right=0;bottom=0;fontFamily=Helvetica;fontSize=11;fontColor=default;labelBackgroundColor=default;strokeWidth=2;" vertex="1" parent="xebK80BjNcvrvO3vmzvM-1">
          <mxGeometry y="180" width="180" height="20" as="geometry" />
        </mxCell>
        <mxCell id="xebK80BjNcvrvO3vmzvM-9" value="" style="shape=partialRectangle;connectable=0;fillColor=none;top=0;left=0;bottom=0;right=0;editable=1;overflow=hidden;whiteSpace=wrap;html=1;fontFamily=Helvetica;fontSize=11;fontColor=default;labelBackgroundColor=default;strokeWidth=2;" vertex="1" parent="xebK80BjNcvrvO3vmzvM-8">
          <mxGeometry width="30" height="20" as="geometry">
            <mxRectangle width="30" height="20" as="alternateBounds" />
          </mxGeometry>
        </mxCell>
        <mxCell id="xebK80BjNcvrvO3vmzvM-10" value="Fecha: date" style="shape=partialRectangle;connectable=0;fillColor=none;top=0;left=0;bottom=0;right=0;align=left;spacingLeft=6;overflow=hidden;whiteSpace=wrap;html=1;fontFamily=Helvetica;fontSize=11;fontColor=default;labelBackgroundColor=default;strokeWidth=2;" vertex="1" parent="xebK80BjNcvrvO3vmzvM-8">
          <mxGeometry x="30" width="150" height="20" as="geometry">
            <mxRectangle width="150" height="20" as="alternateBounds" />
          </mxGeometry>
        </mxCell>
        <mxCell id="-dFo-gOhMNfZP8ACptNq-4" value="" style="shape=tableRow;horizontal=0;startSize=0;swimlaneHead=0;swimlaneBody=0;fillColor=none;collapsible=0;dropTarget=0;points=[[0,0.5],[1,0.5]];portConstraint=eastwest;top=0;left=0;right=0;bottom=0;fontFamily=Helvetica;fontSize=11;fontColor=default;labelBackgroundColor=default;strokeWidth=2;" vertex="1" parent="xebK80BjNcvrvO3vmzvM-1">
          <mxGeometry y="200" width="180" height="30" as="geometry" />
        </mxCell>
        <mxCell id="-dFo-gOhMNfZP8ACptNq-5" value="" style="shape=partialRectangle;connectable=0;fillColor=none;top=0;left=0;bottom=0;right=0;editable=1;overflow=hidden;whiteSpace=wrap;html=1;fontFamily=Helvetica;fontSize=11;fontColor=default;labelBackgroundColor=default;strokeWidth=2;" vertex="1" parent="-dFo-gOhMNfZP8ACptNq-4">
          <mxGeometry width="30" height="30" as="geometry">
            <mxRectangle width="30" height="30" as="alternateBounds" />
          </mxGeometry>
        </mxCell>
        <mxCell id="-dFo-gOhMNfZP8ACptNq-6" value="Hora: time" style="shape=partialRectangle;connectable=0;fillColor=none;top=0;left=0;bottom=0;right=0;align=left;spacingLeft=6;overflow=hidden;whiteSpace=wrap;html=1;fontFamily=Helvetica;fontSize=11;fontColor=default;labelBackgroundColor=default;strokeWidth=2;" vertex="1" parent="-dFo-gOhMNfZP8ACptNq-4">
          <mxGeometry x="30" width="150" height="30" as="geometry">
            <mxRectangle width="150" height="30" as="alternateBounds" />
          </mxGeometry>
        </mxCell>
        <mxCell id="xebK80BjNcvrvO3vmzvM-11" value="" style="shape=tableRow;horizontal=0;startSize=0;swimlaneHead=0;swimlaneBody=0;fillColor=none;collapsible=0;dropTarget=0;points=[[0,0.5],[1,0.5]];portConstraint=eastwest;top=0;left=0;right=0;bottom=0;fontFamily=Helvetica;fontSize=11;fontColor=default;labelBackgroundColor=default;strokeWidth=2;" vertex="1" parent="xebK80BjNcvrvO3vmzvM-1">
          <mxGeometry y="230" width="180" height="30" as="geometry" />
        </mxCell>
        <mxCell id="xebK80BjNcvrvO3vmzvM-12" value="" style="shape=partialRectangle;connectable=0;fillColor=none;top=0;left=0;bottom=0;right=0;editable=1;overflow=hidden;whiteSpace=wrap;html=1;fontFamily=Helvetica;fontSize=11;fontColor=default;labelBackgroundColor=default;strokeWidth=2;" vertex="1" parent="xebK80BjNcvrvO3vmzvM-11">
          <mxGeometry width="30" height="30" as="geometry">
            <mxRectangle width="30" height="30" as="alternateBounds" />
          </mxGeometry>
        </mxCell>
        <mxCell id="xebK80BjNcvrvO3vmzvM-13" value="Longitud: numeric(10,8)" style="shape=partialRectangle;connectable=0;fillColor=none;top=0;left=0;bottom=0;right=0;align=left;spacingLeft=6;overflow=hidden;whiteSpace=wrap;html=1;fontFamily=Helvetica;fontSize=11;fontColor=default;labelBackgroundColor=default;strokeWidth=2;" vertex="1" parent="xebK80BjNcvrvO3vmzvM-11">
          <mxGeometry x="30" width="150" height="30" as="geometry">
            <mxRectangle width="150" height="30" as="alternateBounds" />
          </mxGeometry>
        </mxCell>
        <mxCell id="btNifDRAsC0codzSdV87-4" value="" style="shape=tableRow;horizontal=0;startSize=0;swimlaneHead=0;swimlaneBody=0;fillColor=none;collapsible=0;dropTarget=0;points=[[0,0.5],[1,0.5]];portConstraint=eastwest;top=0;left=0;right=0;bottom=0;fontFamily=Helvetica;fontSize=11;fontColor=default;labelBackgroundColor=default;strokeWidth=2;" vertex="1" parent="xebK80BjNcvrvO3vmzvM-1">
          <mxGeometry y="260" width="180" height="30" as="geometry" />
        </mxCell>
        <mxCell id="btNifDRAsC0codzSdV87-5" value="" style="shape=partialRectangle;connectable=0;fillColor=none;top=0;left=0;bottom=0;right=0;editable=1;overflow=hidden;whiteSpace=wrap;html=1;fontFamily=Helvetica;fontSize=11;fontColor=default;labelBackgroundColor=default;strokeWidth=2;" vertex="1" parent="btNifDRAsC0codzSdV87-4">
          <mxGeometry width="30" height="30" as="geometry">
            <mxRectangle width="30" height="30" as="alternateBounds" />
          </mxGeometry>
        </mxCell>
        <mxCell id="btNifDRAsC0codzSdV87-6" value="Latitud: numeric(10,8)" style="shape=partialRectangle;connectable=0;fillColor=none;top=0;left=0;bottom=0;right=0;align=left;spacingLeft=6;overflow=hidden;whiteSpace=wrap;html=1;fontFamily=Helvetica;fontSize=11;fontColor=default;labelBackgroundColor=default;strokeWidth=2;" vertex="1" parent="btNifDRAsC0codzSdV87-4">
          <mxGeometry x="30" width="150" height="30" as="geometry">
            <mxRectangle width="150" height="30" as="alternateBounds" />
          </mxGeometry>
        </mxCell>
        <mxCell id="lH02pGkFVUuEeChlY_4n-1" value="" style="shape=tableRow;horizontal=0;startSize=0;swimlaneHead=0;swimlaneBody=0;fillColor=none;collapsible=0;dropTarget=0;points=[[0,0.5],[1,0.5]];portConstraint=eastwest;top=0;left=0;right=0;bottom=0;fontFamily=Helvetica;fontSize=11;fontColor=default;labelBackgroundColor=default;strokeWidth=2;" vertex="1" parent="xebK80BjNcvrvO3vmzvM-1">
          <mxGeometry y="290" width="180" height="30" as="geometry" />
        </mxCell>
        <mxCell id="lH02pGkFVUuEeChlY_4n-2" value="" style="shape=partialRectangle;connectable=0;fillColor=none;top=0;left=0;bottom=0;right=0;editable=1;overflow=hidden;whiteSpace=wrap;html=1;fontFamily=Helvetica;fontSize=11;fontColor=default;labelBackgroundColor=default;strokeWidth=2;" vertex="1" parent="lH02pGkFVUuEeChlY_4n-1">
          <mxGeometry width="30" height="30" as="geometry">
            <mxRectangle width="30" height="30" as="alternateBounds" />
          </mxGeometry>
        </mxCell>
        <mxCell id="lH02pGkFVUuEeChlY_4n-3" value="Estado : ENUM" style="shape=partialRectangle;connectable=0;fillColor=none;top=0;left=0;bottom=0;right=0;align=left;spacingLeft=6;overflow=hidden;whiteSpace=wrap;html=1;fontFamily=Helvetica;fontSize=11;fontColor=default;labelBackgroundColor=default;strokeWidth=2;" vertex="1" parent="lH02pGkFVUuEeChlY_4n-1">
          <mxGeometry x="30" width="150" height="30" as="geometry">
            <mxRectangle width="150" height="30" as="alternateBounds" />
          </mxGeometry>
        </mxCell>
        <mxCell id="lH02pGkFVUuEeChlY_4n-4" value="Foto" style="shape=table;startSize=30;container=1;collapsible=1;childLayout=tableLayout;fixedRows=1;rowLines=0;fontStyle=1;align=center;resizeLast=1;html=1;fontFamily=Helvetica;fontSize=11;fontColor=default;labelBackgroundColor=light-dark(#d4e1f5, #ededed);strokeWidth=2;fillColor=light-dark(#d4e1f5, #ededed);" vertex="1" parent="1">
          <mxGeometry x="780" y="60" width="180" height="90" as="geometry" />
        </mxCell>
        <mxCell id="lH02pGkFVUuEeChlY_4n-5" value="" style="shape=tableRow;horizontal=0;startSize=0;swimlaneHead=0;swimlaneBody=0;fillColor=none;collapsible=0;dropTarget=0;points=[[0,0.5],[1,0.5]];portConstraint=eastwest;top=0;left=0;right=0;bottom=1;fontFamily=Helvetica;fontSize=11;fontColor=default;labelBackgroundColor=default;strokeWidth=2;" vertex="1" parent="lH02pGkFVUuEeChlY_4n-4">
          <mxGeometry y="30" width="180" height="30" as="geometry" />
        </mxCell>
        <mxCell id="lH02pGkFVUuEeChlY_4n-6" value="PK" style="shape=partialRectangle;connectable=0;fillColor=none;top=0;left=0;bottom=0;right=0;fontStyle=1;overflow=hidden;whiteSpace=wrap;html=1;fontFamily=Helvetica;fontSize=11;fontColor=default;labelBackgroundColor=default;strokeWidth=2;" vertex="1" parent="lH02pGkFVUuEeChlY_4n-5">
          <mxGeometry width="30" height="30" as="geometry">
            <mxRectangle width="30" height="30" as="alternateBounds" />
          </mxGeometry>
        </mxCell>
        <mxCell id="lH02pGkFVUuEeChlY_4n-7" value="FotoID: bytea" style="shape=partialRectangle;connectable=0;fillColor=none;top=0;left=0;bottom=0;right=0;align=left;spacingLeft=6;fontStyle=5;overflow=hidden;whiteSpace=wrap;html=1;fontFamily=Helvetica;fontSize=11;fontColor=default;labelBackgroundColor=default;strokeWidth=2;" vertex="1" parent="lH02pGkFVUuEeChlY_4n-5">
          <mxGeometry x="30" width="150" height="30" as="geometry">
            <mxRectangle width="150" height="30" as="alternateBounds" />
          </mxGeometry>
        </mxCell>
        <mxCell id="lH02pGkFVUuEeChlY_4n-8" value="" style="shape=tableRow;horizontal=0;startSize=0;swimlaneHead=0;swimlaneBody=0;fillColor=none;collapsible=0;dropTarget=0;points=[[0,0.5],[1,0.5]];portConstraint=eastwest;top=0;left=0;right=0;bottom=0;fontFamily=Helvetica;fontSize=11;fontColor=default;labelBackgroundColor=default;strokeWidth=2;" vertex="1" parent="lH02pGkFVUuEeChlY_4n-4">
          <mxGeometry y="60" width="180" height="30" as="geometry" />
        </mxCell>
        <mxCell id="lH02pGkFVUuEeChlY_4n-9" value="&lt;b&gt;PK&lt;/b&gt;" style="shape=partialRectangle;connectable=0;fillColor=none;top=0;left=0;bottom=0;right=0;editable=1;overflow=hidden;whiteSpace=wrap;html=1;fontFamily=Helvetica;fontSize=11;fontColor=default;labelBackgroundColor=default;strokeWidth=2;" vertex="1" parent="lH02pGkFVUuEeChlY_4n-8">
          <mxGeometry width="30" height="30" as="geometry">
            <mxRectangle width="30" height="30" as="alternateBounds" />
          </mxGeometry>
        </mxCell>
        <mxCell id="lH02pGkFVUuEeChlY_4n-10" value="&lt;b&gt;&lt;u&gt;IncidenteID&lt;/u&gt;&lt;/b&gt;&lt;span style=&quot;font-weight: 700; text-decoration-line: underline;&quot;&gt;: bigint&lt;/span&gt;" style="shape=partialRectangle;connectable=0;fillColor=none;top=0;left=0;bottom=0;right=0;align=left;spacingLeft=6;overflow=hidden;whiteSpace=wrap;html=1;fontFamily=Helvetica;fontSize=11;fontColor=default;labelBackgroundColor=default;strokeWidth=2;" vertex="1" parent="lH02pGkFVUuEeChlY_4n-8">
          <mxGeometry x="30" width="150" height="30" as="geometry">
            <mxRectangle width="150" height="30" as="alternateBounds" />
          </mxGeometry>
        </mxCell>
        <mxCell id="fhOsho-kT3ZyoWiUG5B9-2" value="" style="edgeStyle=orthogonalEdgeStyle;fontSize=12;html=1;endArrow=ERoneToMany;startArrow=ERzeroToOne;rounded=0;strokeColor=default;align=center;verticalAlign=middle;fontFamily=Helvetica;fontColor=default;labelBackgroundColor=default;entryX=0;entryY=0.5;entryDx=0;entryDy=0;exitX=1.001;exitY=0.751;exitDx=0;exitDy=0;startFill=0;endFill=0;strokeWidth=2;exitPerimeter=0;" edge="1" parent="1" source="x8ybsu9Go8pO5ww-hZS5-2" target="HP7ayfzPBNpVEZWiLAQ4-4">
          <mxGeometry width="100" height="100" relative="1" as="geometry">
            <mxPoint x="250" y="250" as="sourcePoint" />
            <mxPoint x="470" y="190" as="targetPoint" />
            <Array as="points">
              <mxPoint x="390" y="112" />
              <mxPoint x="390" y="135" />
            </Array>
          </mxGeometry>
        </mxCell>
        <mxCell id="vSJs53AIhsIy9AAj4cJR-1" value="Gestionar" style="shape=table;startSize=30;container=1;collapsible=1;childLayout=tableLayout;fixedRows=1;rowLines=0;fontStyle=1;align=center;resizeLast=1;html=1;fontFamily=Helvetica;fontSize=11;fontColor=default;labelBackgroundColor=light-dark(#d4e1f5, #ededed);strokeWidth=2;fillColor=light-dark(#d4e1f5, #ededed);" vertex="1" parent="1">
          <mxGeometry x="500" y="410" width="180" height="90" as="geometry" />
        </mxCell>
        <mxCell id="vSJs53AIhsIy9AAj4cJR-11" value="" style="shape=tableRow;horizontal=0;startSize=0;swimlaneHead=0;swimlaneBody=0;fillColor=none;collapsible=0;dropTarget=0;points=[[0,0.5],[1,0.5]];portConstraint=eastwest;top=0;left=0;right=0;bottom=0;fontFamily=Helvetica;fontSize=11;fontColor=default;labelBackgroundColor=default;strokeWidth=2;" vertex="1" parent="vSJs53AIhsIy9AAj4cJR-1">
          <mxGeometry y="30" width="180" height="30" as="geometry" />
        </mxCell>
        <mxCell id="vSJs53AIhsIy9AAj4cJR-12" value="&lt;b&gt;FK&lt;/b&gt;" style="shape=partialRectangle;connectable=0;fillColor=none;top=0;left=0;bottom=0;right=0;editable=1;overflow=hidden;whiteSpace=wrap;html=1;fontFamily=Helvetica;fontSize=11;fontColor=default;labelBackgroundColor=default;strokeWidth=2;" vertex="1" parent="vSJs53AIhsIy9AAj4cJR-11">
          <mxGeometry width="30" height="30" as="geometry">
            <mxRectangle width="30" height="30" as="alternateBounds" />
          </mxGeometry>
        </mxCell>
        <mxCell id="vSJs53AIhsIy9AAj4cJR-13" value="&lt;b&gt;IncidenteID : bigint&lt;/b&gt;" style="shape=partialRectangle;connectable=0;fillColor=none;top=0;left=0;bottom=0;right=0;align=left;spacingLeft=6;overflow=hidden;whiteSpace=wrap;html=1;fontFamily=Helvetica;fontSize=11;fontColor=default;labelBackgroundColor=default;strokeWidth=2;" vertex="1" parent="vSJs53AIhsIy9AAj4cJR-11">
          <mxGeometry x="30" width="150" height="30" as="geometry">
            <mxRectangle width="150" height="30" as="alternateBounds" />
          </mxGeometry>
        </mxCell>
        <mxCell id="vSJs53AIhsIy9AAj4cJR-2" value="" style="shape=tableRow;horizontal=0;startSize=0;swimlaneHead=0;swimlaneBody=0;fillColor=none;collapsible=0;dropTarget=0;points=[[0,0.5],[1,0.5]];portConstraint=eastwest;top=0;left=0;right=0;bottom=1;fontFamily=Helvetica;fontSize=11;fontColor=default;labelBackgroundColor=default;strokeWidth=2;" vertex="1" parent="vSJs53AIhsIy9AAj4cJR-1">
          <mxGeometry y="60" width="180" height="30" as="geometry" />
        </mxCell>
        <mxCell id="vSJs53AIhsIy9AAj4cJR-3" value="FK" style="shape=partialRectangle;connectable=0;fillColor=none;top=0;left=0;bottom=0;right=0;fontStyle=1;overflow=hidden;whiteSpace=wrap;html=1;fontFamily=Helvetica;fontSize=11;fontColor=default;labelBackgroundColor=default;strokeWidth=2;" vertex="1" parent="vSJs53AIhsIy9AAj4cJR-2">
          <mxGeometry width="30" height="30" as="geometry">
            <mxRectangle width="30" height="30" as="alternateBounds" />
          </mxGeometry>
        </mxCell>
        <mxCell id="vSJs53AIhsIy9AAj4cJR-4" value="AdmiID: bigint" style="shape=partialRectangle;connectable=0;fillColor=none;top=0;left=0;bottom=0;right=0;align=left;spacingLeft=6;fontStyle=5;overflow=hidden;whiteSpace=wrap;html=1;fontFamily=Helvetica;fontSize=11;fontColor=default;labelBackgroundColor=default;strokeWidth=2;" vertex="1" parent="vSJs53AIhsIy9AAj4cJR-2">
          <mxGeometry x="30" width="150" height="30" as="geometry">
            <mxRectangle width="150" height="30" as="alternateBounds" />
          </mxGeometry>
        </mxCell>
        <mxCell id="vSJs53AIhsIy9AAj4cJR-14" value="" style="edgeStyle=orthogonalEdgeStyle;fontSize=12;html=1;endArrow=ERoneToMany;startArrow=ERzeroToOne;rounded=0;strokeColor=default;align=center;verticalAlign=middle;fontFamily=Helvetica;fontColor=default;labelBackgroundColor=default;exitX=1;exitY=0.5;exitDx=0;exitDy=0;entryX=0;entryY=0.5;entryDx=0;entryDy=0;startFill=0;strokeWidth=2;" edge="1" parent="1" source="x8ybsu9Go8pO5ww-hZS5-15" target="vSJs53AIhsIy9AAj4cJR-2">
          <mxGeometry width="100" height="100" relative="1" as="geometry">
            <mxPoint x="560" y="370" as="sourcePoint" />
            <mxPoint x="660" y="270" as="targetPoint" />
            <Array as="points">
              <mxPoint x="400" y="365" />
              <mxPoint x="400" y="485" />
            </Array>
          </mxGeometry>
        </mxCell>
        <mxCell id="vSJs53AIhsIy9AAj4cJR-15" value="" style="edgeStyle=orthogonalEdgeStyle;fontSize=12;html=1;endArrow=ERzeroToOne;startArrow=ERoneToMany;rounded=0;strokeColor=default;align=center;verticalAlign=middle;fontFamily=Helvetica;fontColor=default;labelBackgroundColor=default;startFill=0;endFill=0;strokeWidth=2;exitX=0;exitY=0.5;exitDx=0;exitDy=0;entryX=-0.001;entryY=0.751;entryDx=0;entryDy=0;entryPerimeter=0;" edge="1" parent="1" source="vSJs53AIhsIy9AAj4cJR-11" target="xebK80BjNcvrvO3vmzvM-2">
          <mxGeometry width="100" height="100" relative="1" as="geometry">
            <mxPoint x="440" y="450" as="sourcePoint" />
            <mxPoint x="500" y="110" as="targetPoint" />
            <Array as="points">
              <mxPoint x="470" y="455" />
              <mxPoint x="470" y="113" />
            </Array>
          </mxGeometry>
        </mxCell>
        <mxCell id="6-Xxu278gAjJUKVVZ80G-1" value="" style="edgeStyle=orthogonalEdgeStyle;fontSize=12;html=1;endArrow=ERoneToMany;startArrow=ERzeroToOne;rounded=0;startFill=0;endFill=0;entryX=0;entryY=0.5;entryDx=0;entryDy=0;exitX=1;exitY=0.5;exitDx=0;exitDy=0;strokeWidth=2;" edge="1" parent="1" source="xebK80BjNcvrvO3vmzvM-2" target="lH02pGkFVUuEeChlY_4n-8">
          <mxGeometry width="100" height="100" relative="1" as="geometry">
            <mxPoint x="720" y="150" as="sourcePoint" />
            <mxPoint x="840" y="260" as="targetPoint" />
          </mxGeometry>
        </mxCell>
        <mxCell id="qHd1u73pnHnMovwTgR5y-1" value="" style="edgeStyle=orthogonalEdgeStyle;fontSize=12;html=1;endArrow=ERoneToMany;startArrow=ERzeroToOne;rounded=0;entryX=0;entryY=0.5;entryDx=0;entryDy=0;exitX=1;exitY=0.5;exitDx=0;exitDy=0;startFill=0;endFill=0;strokeWidth=2;" edge="1" parent="1" source="p7_E2sHJvJaNQI8z4zhb-1" target="x8ybsu9Go8pO5ww-hZS5-28">
          <mxGeometry width="100" height="100" relative="1" as="geometry">
            <mxPoint x="700" y="160.00000000000006" as="sourcePoint" />
            <mxPoint x="879.46" y="382.65000000000003" as="targetPoint" />
          </mxGeometry>
        </mxCell>
        <mxCell id="MY8okhJD_iENCaA3NyxA-1" value="" style="edgeStyle=entityRelationEdgeStyle;fontSize=12;html=1;endArrow=ERzeroToOne;startArrow=ERoneToMany;rounded=0;strokeColor=default;align=center;verticalAlign=middle;fontFamily=Helvetica;fontColor=default;labelBackgroundColor=default;startFill=0;endFill=0;entryX=0.999;entryY=0.322;entryDx=0;entryDy=0;exitX=0;exitY=0.333;exitDx=0;exitDy=0;exitPerimeter=0;strokeWidth=2;entryPerimeter=0;" edge="1" parent="1" source="xebK80BjNcvrvO3vmzvM-2" target="x8ybsu9Go8pO5ww-hZS5-2">
          <mxGeometry width="100" height="100" relative="1" as="geometry">
            <mxPoint x="490" y="100" as="sourcePoint" />
            <mxPoint x="509" y="122" as="targetPoint" />
          </mxGeometry>
        </mxCell>
      </root>
    </mxGraphModel>
  </diagram>
  <diagram name="MR v1.2.1" id="nTy7m-IF1-ekSUYsNLzf">
    <mxGraphModel grid="1" page="1" gridSize="10" guides="1" tooltips="1" connect="1" arrows="1" fold="1" pageScale="1" pageWidth="827" pageHeight="1169" math="0" shadow="0">
      <root>
        <mxCell id="E9M1CeIAFrQoyqNxMcxT-0" />
        <mxCell id="E9M1CeIAFrQoyqNxMcxT-1" parent="E9M1CeIAFrQoyqNxMcxT-0" />
        <mxCell id="E9M1CeIAFrQoyqNxMcxT-2" value="&lt;span&gt;Cliente&lt;/span&gt;" style="shape=table;startSize=30;container=1;collapsible=1;childLayout=tableLayout;fixedRows=1;rowLines=0;fontStyle=1;align=center;resizeLast=1;html=1;fontFamily=Helvetica;fontSize=11;labelBackgroundColor=none;strokeWidth=2;fillColor=#bac8d3;strokeColor=default;swimlaneBody=1;swimlaneHead=1;horizontal=1;portConstraintRotation=0;fixDash=0;autosize=0;swimlaneLine=1;rounded=0;" vertex="1" parent="E9M1CeIAFrQoyqNxMcxT-1">
          <mxGeometry x="-490" y="80" width="180" height="260" as="geometry" />
        </mxCell>
        <mxCell id="E9M1CeIAFrQoyqNxMcxT-3" value="" style="shape=tableRow;horizontal=0;startSize=0;swimlaneHead=0;swimlaneBody=0;fillColor=none;collapsible=0;dropTarget=0;points=[[0,0.5],[1,0.5]];portConstraint=eastwest;top=0;left=0;right=0;bottom=1;fontFamily=Helvetica;fontSize=11;fontColor=default;labelBackgroundColor=default;strokeWidth=2;" vertex="1" parent="E9M1CeIAFrQoyqNxMcxT-2">
          <mxGeometry y="30" width="180" height="50" as="geometry" />
        </mxCell>
        <mxCell id="E9M1CeIAFrQoyqNxMcxT-4" value="PK" style="shape=partialRectangle;connectable=0;fillColor=none;top=0;left=0;bottom=0;right=0;fontStyle=1;overflow=hidden;whiteSpace=wrap;html=1;fontFamily=Helvetica;fontSize=11;fontColor=default;labelBackgroundColor=default;strokeWidth=2;" vertex="1" parent="E9M1CeIAFrQoyqNxMcxT-3">
          <mxGeometry width="30" height="50" as="geometry">
            <mxRectangle width="30" height="50" as="alternateBounds" />
          </mxGeometry>
        </mxCell>
        <mxCell id="E9M1CeIAFrQoyqNxMcxT-5" value="UserID: bigint" style="shape=partialRectangle;connectable=0;fillColor=none;top=0;left=0;bottom=0;right=0;align=left;spacingLeft=6;fontStyle=5;overflow=hidden;whiteSpace=wrap;html=1;fontFamily=Helvetica;fontSize=11;fontColor=default;labelBackgroundColor=default;strokeWidth=2;" vertex="1" parent="E9M1CeIAFrQoyqNxMcxT-3">
          <mxGeometry x="30" width="150" height="50" as="geometry">
            <mxRectangle width="150" height="50" as="alternateBounds" />
          </mxGeometry>
        </mxCell>
        <mxCell id="E9M1CeIAFrQoyqNxMcxT-6" value="" style="shape=tableRow;horizontal=0;startSize=0;swimlaneHead=0;swimlaneBody=0;fillColor=none;collapsible=0;dropTarget=0;points=[[0,0.5],[1,0.5]];portConstraint=eastwest;top=0;left=0;right=0;bottom=0;fontFamily=Helvetica;fontSize=11;fontColor=default;labelBackgroundColor=default;strokeWidth=2;" vertex="1" parent="E9M1CeIAFrQoyqNxMcxT-2">
          <mxGeometry y="80" width="180" height="30" as="geometry" />
        </mxCell>
        <mxCell id="E9M1CeIAFrQoyqNxMcxT-7" value="" style="shape=partialRectangle;connectable=0;fillColor=none;top=0;left=0;bottom=0;right=0;editable=1;overflow=hidden;whiteSpace=wrap;html=1;fontFamily=Helvetica;fontSize=11;fontColor=default;labelBackgroundColor=default;strokeWidth=2;" vertex="1" parent="E9M1CeIAFrQoyqNxMcxT-6">
          <mxGeometry width="30" height="30" as="geometry">
            <mxRectangle width="30" height="30" as="alternateBounds" />
          </mxGeometry>
        </mxCell>
        <mxCell id="E9M1CeIAFrQoyqNxMcxT-8" value="Nombre : varchar(100)" style="shape=partialRectangle;connectable=0;fillColor=none;top=0;left=0;bottom=0;right=0;align=left;spacingLeft=6;overflow=hidden;whiteSpace=wrap;html=1;fontFamily=Helvetica;fontSize=11;fontColor=default;labelBackgroundColor=default;strokeWidth=2;" vertex="1" parent="E9M1CeIAFrQoyqNxMcxT-6">
          <mxGeometry x="30" width="150" height="30" as="geometry">
            <mxRectangle width="150" height="30" as="alternateBounds" />
          </mxGeometry>
        </mxCell>
        <mxCell id="E9M1CeIAFrQoyqNxMcxT-9" value="" style="shape=tableRow;horizontal=0;startSize=0;swimlaneHead=0;swimlaneBody=0;fillColor=none;collapsible=0;dropTarget=0;points=[[0,0.5],[1,0.5]];portConstraint=eastwest;top=0;left=0;right=0;bottom=0;fontFamily=Helvetica;fontSize=11;fontColor=default;labelBackgroundColor=default;strokeWidth=2;" vertex="1" parent="E9M1CeIAFrQoyqNxMcxT-2">
          <mxGeometry y="110" width="180" height="30" as="geometry" />
        </mxCell>
        <mxCell id="E9M1CeIAFrQoyqNxMcxT-10" value="" style="shape=partialRectangle;connectable=0;fillColor=none;top=0;left=0;bottom=0;right=0;editable=1;overflow=hidden;whiteSpace=wrap;html=1;fontFamily=Helvetica;fontSize=11;fontColor=default;labelBackgroundColor=default;strokeWidth=2;" vertex="1" parent="E9M1CeIAFrQoyqNxMcxT-9">
          <mxGeometry width="30" height="30" as="geometry">
            <mxRectangle width="30" height="30" as="alternateBounds" />
          </mxGeometry>
        </mxCell>
        <mxCell id="E9M1CeIAFrQoyqNxMcxT-11" value="ApPaterno : varchar(100)" style="shape=partialRectangle;connectable=0;fillColor=none;top=0;left=0;bottom=0;right=0;align=left;spacingLeft=6;overflow=hidden;whiteSpace=wrap;html=1;fontFamily=Helvetica;fontSize=11;fontColor=default;labelBackgroundColor=default;strokeWidth=2;" vertex="1" parent="E9M1CeIAFrQoyqNxMcxT-9">
          <mxGeometry x="30" width="150" height="30" as="geometry">
            <mxRectangle width="150" height="30" as="alternateBounds" />
          </mxGeometry>
        </mxCell>
        <mxCell id="E9M1CeIAFrQoyqNxMcxT-12" value="" style="shape=tableRow;horizontal=0;startSize=0;swimlaneHead=0;swimlaneBody=0;fillColor=none;collapsible=0;dropTarget=0;points=[[0,0.5],[1,0.5]];portConstraint=eastwest;top=0;left=0;right=0;bottom=0;fontFamily=Helvetica;fontSize=11;fontColor=default;labelBackgroundColor=default;strokeWidth=2;" vertex="1" parent="E9M1CeIAFrQoyqNxMcxT-2">
          <mxGeometry y="140" width="180" height="30" as="geometry" />
        </mxCell>
        <mxCell id="E9M1CeIAFrQoyqNxMcxT-13" value="" style="shape=partialRectangle;connectable=0;fillColor=none;top=0;left=0;bottom=0;right=0;editable=1;overflow=hidden;whiteSpace=wrap;html=1;fontFamily=Helvetica;fontSize=11;fontColor=default;labelBackgroundColor=default;strokeWidth=2;" vertex="1" parent="E9M1CeIAFrQoyqNxMcxT-12">
          <mxGeometry width="30" height="30" as="geometry">
            <mxRectangle width="30" height="30" as="alternateBounds" />
          </mxGeometry>
        </mxCell>
        <mxCell id="E9M1CeIAFrQoyqNxMcxT-14" value="ApMaterno : varchar(100)" style="shape=partialRectangle;connectable=0;fillColor=none;top=0;left=0;bottom=0;right=0;align=left;spacingLeft=6;overflow=hidden;whiteSpace=wrap;html=1;fontFamily=Helvetica;fontSize=11;fontColor=default;labelBackgroundColor=default;strokeWidth=2;" vertex="1" parent="E9M1CeIAFrQoyqNxMcxT-12">
          <mxGeometry x="30" width="150" height="30" as="geometry">
            <mxRectangle width="150" height="30" as="alternateBounds" />
          </mxGeometry>
        </mxCell>
        <mxCell id="E9M1CeIAFrQoyqNxMcxT-15" value="" style="shape=tableRow;horizontal=0;startSize=0;swimlaneHead=0;swimlaneBody=0;fillColor=none;collapsible=0;dropTarget=0;points=[[0,0.5],[1,0.5]];portConstraint=eastwest;top=0;left=0;right=0;bottom=0;fontFamily=Helvetica;fontSize=11;fontColor=default;labelBackgroundColor=default;strokeWidth=2;" vertex="1" parent="E9M1CeIAFrQoyqNxMcxT-2">
          <mxGeometry y="170" width="180" height="30" as="geometry" />
        </mxCell>
        <mxCell id="E9M1CeIAFrQoyqNxMcxT-16" value="" style="shape=partialRectangle;connectable=0;fillColor=none;top=0;left=0;bottom=0;right=0;editable=1;overflow=hidden;whiteSpace=wrap;html=1;fontFamily=Helvetica;fontSize=11;fontColor=default;labelBackgroundColor=default;strokeWidth=2;" vertex="1" parent="E9M1CeIAFrQoyqNxMcxT-15">
          <mxGeometry width="30" height="30" as="geometry">
            <mxRectangle width="30" height="30" as="alternateBounds" />
          </mxGeometry>
        </mxCell>
        <mxCell id="E9M1CeIAFrQoyqNxMcxT-17" value="Correo : varchar(50)" style="shape=partialRectangle;connectable=0;fillColor=none;top=0;left=0;bottom=0;right=0;align=left;spacingLeft=6;overflow=hidden;whiteSpace=wrap;html=1;fontFamily=Helvetica;fontSize=11;fontColor=default;labelBackgroundColor=default;strokeWidth=2;" vertex="1" parent="E9M1CeIAFrQoyqNxMcxT-15">
          <mxGeometry x="30" width="150" height="30" as="geometry">
            <mxRectangle width="150" height="30" as="alternateBounds" />
          </mxGeometry>
        </mxCell>
        <mxCell id="E9M1CeIAFrQoyqNxMcxT-18" value="" style="shape=tableRow;horizontal=0;startSize=0;swimlaneHead=0;swimlaneBody=0;fillColor=none;collapsible=0;dropTarget=0;points=[[0,0.5],[1,0.5]];portConstraint=eastwest;top=0;left=0;right=0;bottom=0;fontFamily=Helvetica;fontSize=11;fontColor=default;labelBackgroundColor=default;strokeWidth=2;" vertex="1" parent="E9M1CeIAFrQoyqNxMcxT-2">
          <mxGeometry y="200" width="180" height="30" as="geometry" />
        </mxCell>
        <mxCell id="E9M1CeIAFrQoyqNxMcxT-19" value="" style="shape=partialRectangle;connectable=0;fillColor=none;top=0;left=0;bottom=0;right=0;editable=1;overflow=hidden;whiteSpace=wrap;html=1;fontFamily=Helvetica;fontSize=11;fontColor=default;labelBackgroundColor=default;strokeWidth=2;" vertex="1" parent="E9M1CeIAFrQoyqNxMcxT-18">
          <mxGeometry width="30" height="30" as="geometry">
            <mxRectangle width="30" height="30" as="alternateBounds" />
          </mxGeometry>
        </mxCell>
        <mxCell id="E9M1CeIAFrQoyqNxMcxT-20" value="Password : varchar(50)" style="shape=partialRectangle;connectable=0;fillColor=none;top=0;left=0;bottom=0;right=0;align=left;spacingLeft=6;overflow=hidden;whiteSpace=wrap;html=1;fontFamily=Helvetica;fontSize=11;fontColor=default;labelBackgroundColor=default;strokeWidth=2;" vertex="1" parent="E9M1CeIAFrQoyqNxMcxT-18">
          <mxGeometry x="30" width="150" height="30" as="geometry">
            <mxRectangle width="150" height="30" as="alternateBounds" />
          </mxGeometry>
        </mxCell>
        <mxCell id="E9M1CeIAFrQoyqNxMcxT-21" style="shape=tableRow;horizontal=0;startSize=0;swimlaneHead=0;swimlaneBody=0;fillColor=none;collapsible=0;dropTarget=0;points=[[0,0.5],[1,0.5]];portConstraint=eastwest;top=0;left=0;right=0;bottom=0;fontFamily=Helvetica;fontSize=11;fontColor=default;labelBackgroundColor=default;strokeWidth=2;" vertex="1" parent="E9M1CeIAFrQoyqNxMcxT-2">
          <mxGeometry y="230" width="180" height="30" as="geometry" />
        </mxCell>
        <mxCell id="E9M1CeIAFrQoyqNxMcxT-22" style="shape=partialRectangle;connectable=0;fillColor=none;top=0;left=0;bottom=0;right=0;editable=1;overflow=hidden;whiteSpace=wrap;html=1;fontFamily=Helvetica;fontSize=11;fontColor=default;labelBackgroundColor=default;strokeWidth=2;" vertex="1" parent="E9M1CeIAFrQoyqNxMcxT-21">
          <mxGeometry width="30" height="30" as="geometry">
            <mxRectangle width="30" height="30" as="alternateBounds" />
          </mxGeometry>
        </mxCell>
        <mxCell id="E9M1CeIAFrQoyqNxMcxT-23" value="Token:&amp;nbsp;varchar(30)" style="shape=partialRectangle;connectable=0;fillColor=none;top=0;left=0;bottom=0;right=0;align=left;spacingLeft=6;overflow=hidden;whiteSpace=wrap;html=1;fontFamily=Helvetica;fontSize=11;fontColor=default;labelBackgroundColor=default;strokeWidth=2;" vertex="1" parent="E9M1CeIAFrQoyqNxMcxT-21">
          <mxGeometry x="30" width="150" height="30" as="geometry">
            <mxRectangle width="150" height="30" as="alternateBounds" />
          </mxGeometry>
        </mxCell>
        <mxCell id="E9M1CeIAFrQoyqNxMcxT-46" value="Categoria" style="shape=table;startSize=30;container=1;collapsible=1;childLayout=tableLayout;fixedRows=1;rowLines=0;fontStyle=1;align=center;resizeLast=1;html=1;fontFamily=Helvetica;fontSize=11;labelBackgroundColor=none;strokeWidth=2;fillColor=#bac8d3;strokeColor=light-dark(#23445D,#FFFFFF);" vertex="1" parent="E9M1CeIAFrQoyqNxMcxT-1">
          <mxGeometry x="280" y="220" width="180" height="90" as="geometry" />
        </mxCell>
        <mxCell id="E9M1CeIAFrQoyqNxMcxT-47" value="" style="shape=tableRow;horizontal=0;startSize=0;swimlaneHead=0;swimlaneBody=0;fillColor=none;collapsible=0;dropTarget=0;points=[[0,0.5],[1,0.5]];portConstraint=eastwest;top=0;left=0;right=0;bottom=1;fontFamily=Helvetica;fontSize=11;fontColor=default;labelBackgroundColor=default;strokeWidth=2;" vertex="1" parent="E9M1CeIAFrQoyqNxMcxT-46">
          <mxGeometry y="30" width="180" height="30" as="geometry" />
        </mxCell>
        <mxCell id="E9M1CeIAFrQoyqNxMcxT-48" value="PK" style="shape=partialRectangle;connectable=0;fillColor=none;top=0;left=0;bottom=0;right=0;fontStyle=1;overflow=hidden;whiteSpace=wrap;html=1;fontFamily=Helvetica;fontSize=11;fontColor=default;labelBackgroundColor=default;strokeWidth=2;" vertex="1" parent="E9M1CeIAFrQoyqNxMcxT-47">
          <mxGeometry width="30" height="30" as="geometry">
            <mxRectangle width="30" height="30" as="alternateBounds" />
          </mxGeometry>
        </mxCell>
        <mxCell id="E9M1CeIAFrQoyqNxMcxT-49" value="CategoriaID: bigint" style="shape=partialRectangle;connectable=0;fillColor=none;top=0;left=0;bottom=0;right=0;align=left;spacingLeft=6;fontStyle=5;overflow=hidden;whiteSpace=wrap;html=1;fontFamily=Helvetica;fontSize=11;fontColor=default;labelBackgroundColor=default;strokeWidth=2;" vertex="1" parent="E9M1CeIAFrQoyqNxMcxT-47">
          <mxGeometry x="30" width="150" height="30" as="geometry">
            <mxRectangle width="150" height="30" as="alternateBounds" />
          </mxGeometry>
        </mxCell>
        <mxCell id="E9M1CeIAFrQoyqNxMcxT-50" value="" style="shape=tableRow;horizontal=0;startSize=0;swimlaneHead=0;swimlaneBody=0;fillColor=none;collapsible=0;dropTarget=0;points=[[0,0.5],[1,0.5]];portConstraint=eastwest;top=0;left=0;right=0;bottom=0;fontFamily=Helvetica;fontSize=11;fontColor=default;labelBackgroundColor=default;strokeWidth=2;" vertex="1" parent="E9M1CeIAFrQoyqNxMcxT-46">
          <mxGeometry y="60" width="180" height="30" as="geometry" />
        </mxCell>
        <mxCell id="E9M1CeIAFrQoyqNxMcxT-51" value="" style="shape=partialRectangle;connectable=0;fillColor=none;top=0;left=0;bottom=0;right=0;editable=1;overflow=hidden;whiteSpace=wrap;html=1;fontFamily=Helvetica;fontSize=11;fontColor=default;labelBackgroundColor=default;strokeWidth=2;" vertex="1" parent="E9M1CeIAFrQoyqNxMcxT-50">
          <mxGeometry width="30" height="30" as="geometry">
            <mxRectangle width="30" height="30" as="alternateBounds" />
          </mxGeometry>
        </mxCell>
        <mxCell id="E9M1CeIAFrQoyqNxMcxT-52" value="Categoria: varchar(80)" style="shape=partialRectangle;connectable=0;fillColor=none;top=0;left=0;bottom=0;right=0;align=left;spacingLeft=6;overflow=hidden;whiteSpace=wrap;html=1;fontFamily=Helvetica;fontSize=11;fontColor=default;labelBackgroundColor=default;strokeWidth=2;" vertex="1" parent="E9M1CeIAFrQoyqNxMcxT-50">
          <mxGeometry x="30" width="150" height="30" as="geometry">
            <mxRectangle width="150" height="30" as="alternateBounds" />
          </mxGeometry>
        </mxCell>
        <mxCell id="E9M1CeIAFrQoyqNxMcxT-53" value="&lt;span style=&quot;&quot;&gt;Incidente&lt;/span&gt;" style="shape=table;startSize=30;container=1;collapsible=1;childLayout=tableLayout;fixedRows=1;rowLines=0;fontStyle=1;align=center;resizeLast=1;html=1;fontFamily=Helvetica;fontSize=11;labelBackgroundColor=none;strokeWidth=2;fillColor=#bac8d3;strokeColor=light-dark(#23445D,#FFFFFF);" vertex="1" parent="E9M1CeIAFrQoyqNxMcxT-1">
          <mxGeometry y="80" width="180" height="320" as="geometry" />
        </mxCell>
        <mxCell id="E9M1CeIAFrQoyqNxMcxT-54" value="" style="shape=tableRow;horizontal=0;startSize=0;swimlaneHead=0;swimlaneBody=0;fillColor=none;collapsible=0;dropTarget=0;points=[[0,0.5],[1,0.5]];portConstraint=eastwest;top=0;left=0;right=0;bottom=1;fontFamily=Helvetica;fontSize=11;fontColor=default;labelBackgroundColor=default;strokeWidth=2;" vertex="1" parent="E9M1CeIAFrQoyqNxMcxT-53">
          <mxGeometry y="30" width="180" height="30" as="geometry" />
        </mxCell>
        <mxCell id="E9M1CeIAFrQoyqNxMcxT-55" value="PK" style="shape=partialRectangle;connectable=0;fillColor=none;top=0;left=0;bottom=0;right=0;fontStyle=1;overflow=hidden;whiteSpace=wrap;html=1;fontFamily=Helvetica;fontSize=11;fontColor=default;labelBackgroundColor=default;strokeWidth=2;" vertex="1" parent="E9M1CeIAFrQoyqNxMcxT-54">
          <mxGeometry width="30" height="30" as="geometry">
            <mxRectangle width="30" height="30" as="alternateBounds" />
          </mxGeometry>
        </mxCell>
        <mxCell id="E9M1CeIAFrQoyqNxMcxT-56" value="IncidenteID: bigint" style="shape=partialRectangle;connectable=0;fillColor=none;top=0;left=0;bottom=0;right=0;align=left;spacingLeft=6;fontStyle=5;overflow=hidden;whiteSpace=wrap;html=1;fontFamily=Helvetica;fontSize=11;fontColor=default;labelBackgroundColor=default;strokeWidth=2;" vertex="1" parent="E9M1CeIAFrQoyqNxMcxT-54">
          <mxGeometry x="30" width="150" height="30" as="geometry">
            <mxRectangle width="150" height="30" as="alternateBounds" />
          </mxGeometry>
        </mxCell>
        <mxCell id="E9M1CeIAFrQoyqNxMcxT-57" style="shape=tableRow;horizontal=0;startSize=0;swimlaneHead=0;swimlaneBody=0;fillColor=none;collapsible=0;dropTarget=0;points=[[0,0.5],[1,0.5]];portConstraint=eastwest;top=0;left=0;right=0;bottom=1;fontFamily=Helvetica;fontSize=11;fontColor=default;labelBackgroundColor=default;strokeWidth=2;" vertex="1" parent="E9M1CeIAFrQoyqNxMcxT-53">
          <mxGeometry y="60" width="180" height="30" as="geometry" />
        </mxCell>
        <mxCell id="E9M1CeIAFrQoyqNxMcxT-58" value="&lt;b&gt;FK&lt;/b&gt;" style="shape=partialRectangle;connectable=0;fillColor=none;top=0;left=0;bottom=0;right=0;editable=1;overflow=hidden;whiteSpace=wrap;html=1;fontFamily=Helvetica;fontSize=11;fontColor=default;labelBackgroundColor=default;strokeWidth=2;" vertex="1" parent="E9M1CeIAFrQoyqNxMcxT-57">
          <mxGeometry width="30" height="30" as="geometry">
            <mxRectangle width="30" height="30" as="alternateBounds" />
          </mxGeometry>
        </mxCell>
        <mxCell id="E9M1CeIAFrQoyqNxMcxT-59" value="&lt;b&gt;ClienteID: bigint&lt;/b&gt;" style="shape=partialRectangle;connectable=0;fillColor=none;top=0;left=0;bottom=0;right=0;align=left;spacingLeft=6;overflow=hidden;whiteSpace=wrap;html=1;fontFamily=Helvetica;fontSize=11;fontColor=default;labelBackgroundColor=default;strokeWidth=2;" vertex="1" parent="E9M1CeIAFrQoyqNxMcxT-57">
          <mxGeometry x="30" width="150" height="30" as="geometry">
            <mxRectangle width="150" height="30" as="alternateBounds" />
          </mxGeometry>
        </mxCell>
        <mxCell id="E9M1CeIAFrQoyqNxMcxT-60" value="" style="shape=tableRow;horizontal=0;startSize=0;swimlaneHead=0;swimlaneBody=0;fillColor=none;collapsible=0;dropTarget=0;points=[[0,0.5],[1,0.5]];portConstraint=eastwest;top=0;left=0;right=0;bottom=1;fontFamily=Helvetica;fontSize=11;fontColor=default;labelBackgroundColor=default;strokeWidth=2;" vertex="1" parent="E9M1CeIAFrQoyqNxMcxT-53">
          <mxGeometry y="90" width="180" height="30" as="geometry" />
        </mxCell>
        <mxCell id="E9M1CeIAFrQoyqNxMcxT-61" value="&lt;b&gt;FK&lt;/b&gt;" style="shape=partialRectangle;connectable=0;fillColor=none;top=0;left=0;bottom=0;right=0;editable=1;overflow=hidden;whiteSpace=wrap;html=1;fontFamily=Helvetica;fontSize=11;fontColor=default;labelBackgroundColor=default;strokeWidth=2;" vertex="1" parent="E9M1CeIAFrQoyqNxMcxT-60">
          <mxGeometry width="30" height="30" as="geometry">
            <mxRectangle width="30" height="30" as="alternateBounds" />
          </mxGeometry>
        </mxCell>
        <mxCell id="E9M1CeIAFrQoyqNxMcxT-62" value="&lt;b&gt;CategoriaID: bigint&lt;/b&gt;" style="shape=partialRectangle;connectable=0;fillColor=none;top=0;left=0;bottom=0;right=0;align=left;spacingLeft=6;overflow=hidden;whiteSpace=wrap;html=1;fontFamily=Helvetica;fontSize=11;fontColor=default;labelBackgroundColor=default;strokeWidth=2;" vertex="1" parent="E9M1CeIAFrQoyqNxMcxT-60">
          <mxGeometry x="30" width="150" height="30" as="geometry">
            <mxRectangle width="150" height="30" as="alternateBounds" />
          </mxGeometry>
        </mxCell>
        <mxCell id="E9M1CeIAFrQoyqNxMcxT-63" value="" style="shape=tableRow;horizontal=0;startSize=0;swimlaneHead=0;swimlaneBody=0;fillColor=none;collapsible=0;dropTarget=0;points=[[0,0.5],[1,0.5]];portConstraint=eastwest;top=0;left=0;right=0;bottom=0;fontFamily=Helvetica;fontSize=11;fontColor=default;labelBackgroundColor=default;strokeWidth=2;" vertex="1" parent="E9M1CeIAFrQoyqNxMcxT-53">
          <mxGeometry y="120" width="180" height="30" as="geometry" />
        </mxCell>
        <mxCell id="E9M1CeIAFrQoyqNxMcxT-64" value="" style="shape=partialRectangle;connectable=0;fillColor=none;top=0;left=0;bottom=0;right=0;editable=1;overflow=hidden;whiteSpace=wrap;html=1;fontFamily=Helvetica;fontSize=11;fontColor=default;labelBackgroundColor=default;strokeWidth=2;" vertex="1" parent="E9M1CeIAFrQoyqNxMcxT-63">
          <mxGeometry width="30" height="30" as="geometry">
            <mxRectangle width="30" height="30" as="alternateBounds" />
          </mxGeometry>
        </mxCell>
        <mxCell id="E9M1CeIAFrQoyqNxMcxT-65" value="Nombre : varchar(50)" style="shape=partialRectangle;connectable=0;fillColor=none;top=0;left=0;bottom=0;right=0;align=left;spacingLeft=6;overflow=hidden;whiteSpace=wrap;html=1;fontFamily=Helvetica;fontSize=11;fontColor=default;labelBackgroundColor=default;strokeWidth=2;" vertex="1" parent="E9M1CeIAFrQoyqNxMcxT-63">
          <mxGeometry x="30" width="150" height="30" as="geometry">
            <mxRectangle width="150" height="30" as="alternateBounds" />
          </mxGeometry>
        </mxCell>
        <mxCell id="E9M1CeIAFrQoyqNxMcxT-66" value="" style="shape=tableRow;horizontal=0;startSize=0;swimlaneHead=0;swimlaneBody=0;fillColor=none;collapsible=0;dropTarget=0;points=[[0,0.5],[1,0.5]];portConstraint=eastwest;top=0;left=0;right=0;bottom=0;fontFamily=Helvetica;fontSize=11;fontColor=default;labelBackgroundColor=default;strokeWidth=2;" vertex="1" parent="E9M1CeIAFrQoyqNxMcxT-53">
          <mxGeometry y="150" width="180" height="30" as="geometry" />
        </mxCell>
        <mxCell id="E9M1CeIAFrQoyqNxMcxT-67" value="" style="shape=partialRectangle;connectable=0;fillColor=none;top=0;left=0;bottom=0;right=0;editable=1;overflow=hidden;whiteSpace=wrap;html=1;fontFamily=Helvetica;fontSize=11;fontColor=default;labelBackgroundColor=default;strokeWidth=2;" vertex="1" parent="E9M1CeIAFrQoyqNxMcxT-66">
          <mxGeometry width="30" height="30" as="geometry">
            <mxRectangle width="30" height="30" as="alternateBounds" />
          </mxGeometry>
        </mxCell>
        <mxCell id="E9M1CeIAFrQoyqNxMcxT-68" value="Descripcion : varchar(80)" style="shape=partialRectangle;connectable=0;fillColor=none;top=0;left=0;bottom=0;right=0;align=left;spacingLeft=6;overflow=hidden;whiteSpace=wrap;html=1;fontFamily=Helvetica;fontSize=11;fontColor=default;labelBackgroundColor=default;strokeWidth=2;" vertex="1" parent="E9M1CeIAFrQoyqNxMcxT-66">
          <mxGeometry x="30" width="150" height="30" as="geometry">
            <mxRectangle width="150" height="30" as="alternateBounds" />
          </mxGeometry>
        </mxCell>
        <mxCell id="E9M1CeIAFrQoyqNxMcxT-69" value="" style="shape=tableRow;horizontal=0;startSize=0;swimlaneHead=0;swimlaneBody=0;fillColor=none;collapsible=0;dropTarget=0;points=[[0,0.5],[1,0.5]];portConstraint=eastwest;top=0;left=0;right=0;bottom=0;fontFamily=Helvetica;fontSize=11;fontColor=default;labelBackgroundColor=default;strokeWidth=2;" vertex="1" parent="E9M1CeIAFrQoyqNxMcxT-53">
          <mxGeometry y="180" width="180" height="20" as="geometry" />
        </mxCell>
        <mxCell id="E9M1CeIAFrQoyqNxMcxT-70" value="" style="shape=partialRectangle;connectable=0;fillColor=none;top=0;left=0;bottom=0;right=0;editable=1;overflow=hidden;whiteSpace=wrap;html=1;fontFamily=Helvetica;fontSize=11;fontColor=default;labelBackgroundColor=default;strokeWidth=2;" vertex="1" parent="E9M1CeIAFrQoyqNxMcxT-69">
          <mxGeometry width="30" height="20" as="geometry">
            <mxRectangle width="30" height="20" as="alternateBounds" />
          </mxGeometry>
        </mxCell>
        <mxCell id="E9M1CeIAFrQoyqNxMcxT-71" value="Fecha: date" style="shape=partialRectangle;connectable=0;fillColor=none;top=0;left=0;bottom=0;right=0;align=left;spacingLeft=6;overflow=hidden;whiteSpace=wrap;html=1;fontFamily=Helvetica;fontSize=11;fontColor=default;labelBackgroundColor=default;strokeWidth=2;" vertex="1" parent="E9M1CeIAFrQoyqNxMcxT-69">
          <mxGeometry x="30" width="150" height="20" as="geometry">
            <mxRectangle width="150" height="20" as="alternateBounds" />
          </mxGeometry>
        </mxCell>
        <mxCell id="E9M1CeIAFrQoyqNxMcxT-72" value="" style="shape=tableRow;horizontal=0;startSize=0;swimlaneHead=0;swimlaneBody=0;fillColor=none;collapsible=0;dropTarget=0;points=[[0,0.5],[1,0.5]];portConstraint=eastwest;top=0;left=0;right=0;bottom=0;fontFamily=Helvetica;fontSize=11;fontColor=default;labelBackgroundColor=default;strokeWidth=2;" vertex="1" parent="E9M1CeIAFrQoyqNxMcxT-53">
          <mxGeometry y="200" width="180" height="30" as="geometry" />
        </mxCell>
        <mxCell id="E9M1CeIAFrQoyqNxMcxT-73" value="" style="shape=partialRectangle;connectable=0;fillColor=none;top=0;left=0;bottom=0;right=0;editable=1;overflow=hidden;whiteSpace=wrap;html=1;fontFamily=Helvetica;fontSize=11;fontColor=default;labelBackgroundColor=default;strokeWidth=2;" vertex="1" parent="E9M1CeIAFrQoyqNxMcxT-72">
          <mxGeometry width="30" height="30" as="geometry">
            <mxRectangle width="30" height="30" as="alternateBounds" />
          </mxGeometry>
        </mxCell>
        <mxCell id="E9M1CeIAFrQoyqNxMcxT-74" value="Hora: time" style="shape=partialRectangle;connectable=0;fillColor=none;top=0;left=0;bottom=0;right=0;align=left;spacingLeft=6;overflow=hidden;whiteSpace=wrap;html=1;fontFamily=Helvetica;fontSize=11;fontColor=default;labelBackgroundColor=default;strokeWidth=2;" vertex="1" parent="E9M1CeIAFrQoyqNxMcxT-72">
          <mxGeometry x="30" width="150" height="30" as="geometry">
            <mxRectangle width="150" height="30" as="alternateBounds" />
          </mxGeometry>
        </mxCell>
        <mxCell id="E9M1CeIAFrQoyqNxMcxT-75" value="" style="shape=tableRow;horizontal=0;startSize=0;swimlaneHead=0;swimlaneBody=0;fillColor=none;collapsible=0;dropTarget=0;points=[[0,0.5],[1,0.5]];portConstraint=eastwest;top=0;left=0;right=0;bottom=0;fontFamily=Helvetica;fontSize=11;fontColor=default;labelBackgroundColor=default;strokeWidth=2;" vertex="1" parent="E9M1CeIAFrQoyqNxMcxT-53">
          <mxGeometry y="230" width="180" height="30" as="geometry" />
        </mxCell>
        <mxCell id="E9M1CeIAFrQoyqNxMcxT-76" value="" style="shape=partialRectangle;connectable=0;fillColor=none;top=0;left=0;bottom=0;right=0;editable=1;overflow=hidden;whiteSpace=wrap;html=1;fontFamily=Helvetica;fontSize=11;fontColor=default;labelBackgroundColor=default;strokeWidth=2;" vertex="1" parent="E9M1CeIAFrQoyqNxMcxT-75">
          <mxGeometry width="30" height="30" as="geometry">
            <mxRectangle width="30" height="30" as="alternateBounds" />
          </mxGeometry>
        </mxCell>
        <mxCell id="E9M1CeIAFrQoyqNxMcxT-77" value="Longitud: numeric(10,8)" style="shape=partialRectangle;connectable=0;fillColor=none;top=0;left=0;bottom=0;right=0;align=left;spacingLeft=6;overflow=hidden;whiteSpace=wrap;html=1;fontFamily=Helvetica;fontSize=11;fontColor=default;labelBackgroundColor=default;strokeWidth=2;" vertex="1" parent="E9M1CeIAFrQoyqNxMcxT-75">
          <mxGeometry x="30" width="150" height="30" as="geometry">
            <mxRectangle width="150" height="30" as="alternateBounds" />
          </mxGeometry>
        </mxCell>
        <mxCell id="E9M1CeIAFrQoyqNxMcxT-78" value="" style="shape=tableRow;horizontal=0;startSize=0;swimlaneHead=0;swimlaneBody=0;fillColor=none;collapsible=0;dropTarget=0;points=[[0,0.5],[1,0.5]];portConstraint=eastwest;top=0;left=0;right=0;bottom=0;fontFamily=Helvetica;fontSize=11;fontColor=default;labelBackgroundColor=default;strokeWidth=2;" vertex="1" parent="E9M1CeIAFrQoyqNxMcxT-53">
          <mxGeometry y="260" width="180" height="30" as="geometry" />
        </mxCell>
        <mxCell id="E9M1CeIAFrQoyqNxMcxT-79" value="" style="shape=partialRectangle;connectable=0;fillColor=none;top=0;left=0;bottom=0;right=0;editable=1;overflow=hidden;whiteSpace=wrap;html=1;fontFamily=Helvetica;fontSize=11;fontColor=default;labelBackgroundColor=default;strokeWidth=2;" vertex="1" parent="E9M1CeIAFrQoyqNxMcxT-78">
          <mxGeometry width="30" height="30" as="geometry">
            <mxRectangle width="30" height="30" as="alternateBounds" />
          </mxGeometry>
        </mxCell>
        <mxCell id="E9M1CeIAFrQoyqNxMcxT-80" value="Latitud: numeric(10,8)" style="shape=partialRectangle;connectable=0;fillColor=none;top=0;left=0;bottom=0;right=0;align=left;spacingLeft=6;overflow=hidden;whiteSpace=wrap;html=1;fontFamily=Helvetica;fontSize=11;fontColor=default;labelBackgroundColor=default;strokeWidth=2;" vertex="1" parent="E9M1CeIAFrQoyqNxMcxT-78">
          <mxGeometry x="30" width="150" height="30" as="geometry">
            <mxRectangle width="150" height="30" as="alternateBounds" />
          </mxGeometry>
        </mxCell>
        <mxCell id="E9M1CeIAFrQoyqNxMcxT-81" value="" style="shape=tableRow;horizontal=0;startSize=0;swimlaneHead=0;swimlaneBody=0;fillColor=none;collapsible=0;dropTarget=0;points=[[0,0.5],[1,0.5]];portConstraint=eastwest;top=0;left=0;right=0;bottom=0;fontFamily=Helvetica;fontSize=11;fontColor=default;labelBackgroundColor=default;strokeWidth=2;" vertex="1" parent="E9M1CeIAFrQoyqNxMcxT-53">
          <mxGeometry y="290" width="180" height="30" as="geometry" />
        </mxCell>
        <mxCell id="E9M1CeIAFrQoyqNxMcxT-82" value="" style="shape=partialRectangle;connectable=0;fillColor=none;top=0;left=0;bottom=0;right=0;editable=1;overflow=hidden;whiteSpace=wrap;html=1;fontFamily=Helvetica;fontSize=11;fontColor=default;labelBackgroundColor=default;strokeWidth=2;" vertex="1" parent="E9M1CeIAFrQoyqNxMcxT-81">
          <mxGeometry width="30" height="30" as="geometry">
            <mxRectangle width="30" height="30" as="alternateBounds" />
          </mxGeometry>
        </mxCell>
        <mxCell id="E9M1CeIAFrQoyqNxMcxT-83" value="Estado : ENUM" style="shape=partialRectangle;connectable=0;fillColor=none;top=0;left=0;bottom=0;right=0;align=left;spacingLeft=6;overflow=hidden;whiteSpace=wrap;html=1;fontFamily=Helvetica;fontSize=11;fontColor=default;labelBackgroundColor=default;strokeWidth=2;" vertex="1" parent="E9M1CeIAFrQoyqNxMcxT-81">
          <mxGeometry x="30" width="150" height="30" as="geometry">
            <mxRectangle width="150" height="30" as="alternateBounds" />
          </mxGeometry>
        </mxCell>
        <mxCell id="E9M1CeIAFrQoyqNxMcxT-84" value="Foto" style="shape=table;startSize=30;container=1;collapsible=1;childLayout=tableLayout;fixedRows=1;rowLines=0;fontStyle=1;align=center;resizeLast=1;html=1;fontFamily=Helvetica;fontSize=11;labelBackgroundColor=none;strokeWidth=2;fillColor=#bac8d3;strokeColor=light-dark(#23445D,#FFFFFF);" vertex="1" parent="E9M1CeIAFrQoyqNxMcxT-1">
          <mxGeometry x="280" y="80" width="180" height="90" as="geometry" />
        </mxCell>
        <mxCell id="E9M1CeIAFrQoyqNxMcxT-85" value="" style="shape=tableRow;horizontal=0;startSize=0;swimlaneHead=0;swimlaneBody=0;fillColor=none;collapsible=0;dropTarget=0;points=[[0,0.5],[1,0.5]];portConstraint=eastwest;top=0;left=0;right=0;bottom=1;fontFamily=Helvetica;fontSize=11;fontColor=default;labelBackgroundColor=default;strokeWidth=2;" vertex="1" parent="E9M1CeIAFrQoyqNxMcxT-84">
          <mxGeometry y="30" width="180" height="30" as="geometry" />
        </mxCell>
        <mxCell id="E9M1CeIAFrQoyqNxMcxT-86" value="PK" style="shape=partialRectangle;connectable=0;fillColor=none;top=0;left=0;bottom=0;right=0;fontStyle=1;overflow=hidden;whiteSpace=wrap;html=1;fontFamily=Helvetica;fontSize=11;fontColor=default;labelBackgroundColor=default;strokeWidth=2;" vertex="1" parent="E9M1CeIAFrQoyqNxMcxT-85">
          <mxGeometry width="30" height="30" as="geometry">
            <mxRectangle width="30" height="30" as="alternateBounds" />
          </mxGeometry>
        </mxCell>
        <mxCell id="E9M1CeIAFrQoyqNxMcxT-87" value="FotoID: bytea" style="shape=partialRectangle;connectable=0;fillColor=none;top=0;left=0;bottom=0;right=0;align=left;spacingLeft=6;fontStyle=5;overflow=hidden;whiteSpace=wrap;html=1;fontFamily=Helvetica;fontSize=11;fontColor=default;labelBackgroundColor=default;strokeWidth=2;" vertex="1" parent="E9M1CeIAFrQoyqNxMcxT-85">
          <mxGeometry x="30" width="150" height="30" as="geometry">
            <mxRectangle width="150" height="30" as="alternateBounds" />
          </mxGeometry>
        </mxCell>
        <mxCell id="E9M1CeIAFrQoyqNxMcxT-88" value="" style="shape=tableRow;horizontal=0;startSize=0;swimlaneHead=0;swimlaneBody=0;fillColor=none;collapsible=0;dropTarget=0;points=[[0,0.5],[1,0.5]];portConstraint=eastwest;top=0;left=0;right=0;bottom=0;fontFamily=Helvetica;fontSize=11;fontColor=default;labelBackgroundColor=default;strokeWidth=2;" vertex="1" parent="E9M1CeIAFrQoyqNxMcxT-84">
          <mxGeometry y="60" width="180" height="30" as="geometry" />
        </mxCell>
        <mxCell id="E9M1CeIAFrQoyqNxMcxT-89" value="&lt;b&gt;PK&lt;/b&gt;" style="shape=partialRectangle;connectable=0;fillColor=none;top=0;left=0;bottom=0;right=0;editable=1;overflow=hidden;whiteSpace=wrap;html=1;fontFamily=Helvetica;fontSize=11;fontColor=default;labelBackgroundColor=default;strokeWidth=2;" vertex="1" parent="E9M1CeIAFrQoyqNxMcxT-88">
          <mxGeometry width="30" height="30" as="geometry">
            <mxRectangle width="30" height="30" as="alternateBounds" />
          </mxGeometry>
        </mxCell>
        <mxCell id="E9M1CeIAFrQoyqNxMcxT-90" value="&lt;b&gt;&lt;u&gt;IncidenteID&lt;/u&gt;&lt;/b&gt;&lt;span style=&quot;font-weight: 700; text-decoration-line: underline;&quot;&gt;: bigint&lt;/span&gt;" style="shape=partialRectangle;connectable=0;fillColor=none;top=0;left=0;bottom=0;right=0;align=left;spacingLeft=6;overflow=hidden;whiteSpace=wrap;html=1;fontFamily=Helvetica;fontSize=11;fontColor=default;labelBackgroundColor=default;strokeWidth=2;" vertex="1" parent="E9M1CeIAFrQoyqNxMcxT-88">
          <mxGeometry x="30" width="150" height="30" as="geometry">
            <mxRectangle width="150" height="30" as="alternateBounds" />
          </mxGeometry>
        </mxCell>
        <mxCell id="E9M1CeIAFrQoyqNxMcxT-91" value="" style="edgeStyle=orthogonalEdgeStyle;fontSize=12;html=1;endArrow=ERoneToMany;startArrow=ERzeroToOne;rounded=0;strokeColor=default;align=center;verticalAlign=middle;fontFamily=Helvetica;fontColor=default;labelBackgroundColor=default;entryX=0;entryY=0.5;entryDx=0;entryDy=0;startFill=0;endFill=0;strokeWidth=2;exitX=1;exitY=0.364;exitDx=0;exitDy=0;exitPerimeter=0;" edge="1" parent="E9M1CeIAFrQoyqNxMcxT-1" source="E9M1CeIAFrQoyqNxMcxT-3" target="E9M1CeIAFrQoyqNxMcxT-57">
          <mxGeometry width="100" height="100" relative="1" as="geometry">
            <mxPoint x="-90" y="100" as="sourcePoint" />
            <mxPoint x="-30" y="210" as="targetPoint" />
            <Array as="points">
              <mxPoint x="-70" y="128" />
              <mxPoint x="-70" y="155" />
            </Array>
          </mxGeometry>
        </mxCell>
        <mxCell id="E9M1CeIAFrQoyqNxMcxT-92" value="&lt;span style=&quot;&quot;&gt;Gestionar&lt;/span&gt;" style="shape=table;startSize=30;container=1;collapsible=1;childLayout=tableLayout;fixedRows=1;rowLines=0;fontStyle=1;align=center;resizeLast=1;html=1;fontFamily=Helvetica;fontSize=11;labelBackgroundColor=none;strokeWidth=2;fillColor=#bac8d3;strokeColor=light-dark(#23445D,#FFFFFF);top=1;" vertex="1" parent="E9M1CeIAFrQoyqNxMcxT-1">
          <mxGeometry x="-250" y="250" width="180" height="90" as="geometry" />
        </mxCell>
        <mxCell id="E9M1CeIAFrQoyqNxMcxT-93" value="" style="shape=tableRow;horizontal=0;startSize=0;swimlaneHead=0;swimlaneBody=0;fillColor=none;collapsible=0;dropTarget=0;points=[[0,0.5],[1,0.5]];portConstraint=eastwest;top=0;left=0;right=0;bottom=0;fontFamily=Helvetica;fontSize=11;fontColor=default;labelBackgroundColor=default;strokeWidth=2;" vertex="1" parent="E9M1CeIAFrQoyqNxMcxT-92">
          <mxGeometry y="30" width="180" height="30" as="geometry" />
        </mxCell>
        <mxCell id="E9M1CeIAFrQoyqNxMcxT-94" value="&lt;b&gt;FK&lt;/b&gt;" style="shape=partialRectangle;connectable=0;fillColor=none;top=0;left=0;bottom=0;right=0;editable=1;overflow=hidden;whiteSpace=wrap;html=1;fontFamily=Helvetica;fontSize=11;fontColor=default;labelBackgroundColor=default;strokeWidth=2;" vertex="1" parent="E9M1CeIAFrQoyqNxMcxT-93">
          <mxGeometry width="30" height="30" as="geometry">
            <mxRectangle width="30" height="30" as="alternateBounds" />
          </mxGeometry>
        </mxCell>
        <mxCell id="E9M1CeIAFrQoyqNxMcxT-95" value="&lt;b&gt;IncidenteID : bigint&lt;/b&gt;" style="shape=partialRectangle;connectable=0;fillColor=none;top=0;left=0;bottom=0;right=0;align=left;spacingLeft=6;overflow=hidden;whiteSpace=wrap;html=1;fontFamily=Helvetica;fontSize=11;fontColor=default;labelBackgroundColor=default;strokeWidth=2;" vertex="1" parent="E9M1CeIAFrQoyqNxMcxT-93">
          <mxGeometry x="30" width="150" height="30" as="geometry">
            <mxRectangle width="150" height="30" as="alternateBounds" />
          </mxGeometry>
        </mxCell>
        <mxCell id="E9M1CeIAFrQoyqNxMcxT-96" value="" style="shape=tableRow;horizontal=0;startSize=0;swimlaneHead=0;swimlaneBody=0;fillColor=none;collapsible=0;dropTarget=0;points=[[0,0.5],[1,0.5]];portConstraint=eastwest;top=0;left=0;right=0;bottom=1;fontFamily=Helvetica;fontSize=11;fontColor=default;labelBackgroundColor=default;strokeWidth=2;" vertex="1" parent="E9M1CeIAFrQoyqNxMcxT-92">
          <mxGeometry y="60" width="180" height="30" as="geometry" />
        </mxCell>
        <mxCell id="E9M1CeIAFrQoyqNxMcxT-97" value="FK" style="shape=partialRectangle;connectable=0;fillColor=none;top=0;left=0;bottom=0;right=0;fontStyle=1;overflow=hidden;whiteSpace=wrap;html=1;fontFamily=Helvetica;fontSize=11;fontColor=default;labelBackgroundColor=default;strokeWidth=2;" vertex="1" parent="E9M1CeIAFrQoyqNxMcxT-96">
          <mxGeometry width="30" height="30" as="geometry">
            <mxRectangle width="30" height="30" as="alternateBounds" />
          </mxGeometry>
        </mxCell>
        <mxCell id="E9M1CeIAFrQoyqNxMcxT-98" value="UserID: bigint" style="shape=partialRectangle;connectable=0;fillColor=none;top=0;left=0;bottom=0;right=0;align=left;spacingLeft=6;fontStyle=5;overflow=hidden;whiteSpace=wrap;html=1;fontFamily=Helvetica;fontSize=11;fontColor=default;labelBackgroundColor=default;strokeWidth=2;" vertex="1" parent="E9M1CeIAFrQoyqNxMcxT-96">
          <mxGeometry x="30" width="150" height="30" as="geometry">
            <mxRectangle width="150" height="30" as="alternateBounds" />
          </mxGeometry>
        </mxCell>
        <mxCell id="E9M1CeIAFrQoyqNxMcxT-99" value="" style="edgeStyle=orthogonalEdgeStyle;fontSize=12;html=1;endArrow=ERoneToMany;startArrow=ERzeroToOne;rounded=0;strokeColor=default;align=center;verticalAlign=middle;fontFamily=Helvetica;fontColor=default;labelBackgroundColor=default;entryX=0;entryY=0.5;entryDx=0;entryDy=0;startFill=0;strokeWidth=2;exitX=0.999;exitY=0.617;exitDx=0;exitDy=0;exitPerimeter=0;" edge="1" parent="E9M1CeIAFrQoyqNxMcxT-1" source="E9M1CeIAFrQoyqNxMcxT-3" target="E9M1CeIAFrQoyqNxMcxT-96">
          <mxGeometry width="100" height="100" relative="1" as="geometry">
            <mxPoint x="-290" y="140" as="sourcePoint" />
            <mxPoint x="160" y="290" as="targetPoint" />
            <Array as="points">
              <mxPoint x="-270" y="141" />
              <mxPoint x="-270" y="325" />
            </Array>
          </mxGeometry>
        </mxCell>
        <mxCell id="E9M1CeIAFrQoyqNxMcxT-100" value="" style="edgeStyle=orthogonalEdgeStyle;fontSize=12;html=1;endArrow=ERmandOne;startArrow=ERoneToMany;rounded=0;strokeColor=default;align=center;verticalAlign=middle;fontFamily=Helvetica;fontColor=default;labelBackgroundColor=default;startFill=0;endFill=0;strokeWidth=2;exitX=1;exitY=0.5;exitDx=0;exitDy=0;entryX=0;entryY=0.5;entryDx=0;entryDy=0;" edge="1" parent="E9M1CeIAFrQoyqNxMcxT-1" source="E9M1CeIAFrQoyqNxMcxT-93" target="E9M1CeIAFrQoyqNxMcxT-54">
          <mxGeometry width="100" height="100" relative="1" as="geometry">
            <mxPoint x="-60" y="470" as="sourcePoint" />
            <mxPoint y="130" as="targetPoint" />
            <Array as="points">
              <mxPoint x="-40" y="295" />
              <mxPoint x="-40" y="125" />
            </Array>
          </mxGeometry>
        </mxCell>
        <mxCell id="E9M1CeIAFrQoyqNxMcxT-101" value="" style="edgeStyle=orthogonalEdgeStyle;fontSize=12;html=1;endArrow=ERoneToMany;startArrow=ERzeroToOne;rounded=0;startFill=0;endFill=0;entryX=0;entryY=0.5;entryDx=0;entryDy=0;exitX=1;exitY=0.5;exitDx=0;exitDy=0;strokeWidth=2;" edge="1" parent="E9M1CeIAFrQoyqNxMcxT-1" source="E9M1CeIAFrQoyqNxMcxT-54" target="E9M1CeIAFrQoyqNxMcxT-88">
          <mxGeometry width="100" height="100" relative="1" as="geometry">
            <mxPoint x="220" y="170" as="sourcePoint" />
            <mxPoint x="340" y="280" as="targetPoint" />
          </mxGeometry>
        </mxCell>
        <mxCell id="E9M1CeIAFrQoyqNxMcxT-102" value="" style="edgeStyle=orthogonalEdgeStyle;fontSize=12;html=1;endArrow=ERoneToMany;startArrow=ERzeroToOne;rounded=0;entryX=0;entryY=0.5;entryDx=0;entryDy=0;exitX=1;exitY=0.5;exitDx=0;exitDy=0;startFill=0;endFill=0;strokeWidth=2;" edge="1" parent="E9M1CeIAFrQoyqNxMcxT-1" source="E9M1CeIAFrQoyqNxMcxT-60" target="E9M1CeIAFrQoyqNxMcxT-47">
          <mxGeometry width="100" height="100" relative="1" as="geometry">
            <mxPoint x="200" y="180.00000000000006" as="sourcePoint" />
            <mxPoint x="379.46000000000004" y="402.65000000000003" as="targetPoint" />
          </mxGeometry>
        </mxCell>
        <mxCell id="E9M1CeIAFrQoyqNxMcxT-103" value="" style="edgeStyle=entityRelationEdgeStyle;fontSize=12;html=1;endArrow=ERzeroToOne;startArrow=ERoneToMany;rounded=0;strokeColor=default;align=center;verticalAlign=middle;fontFamily=Helvetica;fontColor=default;labelBackgroundColor=default;startFill=0;endFill=0;entryX=0.999;entryY=0.16;entryDx=0;entryDy=0;exitX=0;exitY=0.16;exitDx=0;exitDy=0;exitPerimeter=0;strokeWidth=2;entryPerimeter=0;" edge="1" parent="E9M1CeIAFrQoyqNxMcxT-1" source="E9M1CeIAFrQoyqNxMcxT-54" target="E9M1CeIAFrQoyqNxMcxT-3">
          <mxGeometry width="100" height="100" relative="1" as="geometry">
            <mxPoint x="-10" y="120" as="sourcePoint" />
            <mxPoint x="9" y="142" as="targetPoint" />
          </mxGeometry>
        </mxCell>
        <mxCell id="AKAA41pWLljICkMaR1Oy-0" value="Gestionar" style="shape=table;startSize=30;container=1;collapsible=1;childLayout=tableLayout;fixedRows=1;rowLines=0;fontStyle=1;align=center;resizeLast=1;html=1;fontFamily=Helvetica;fontSize=11;labelBackgroundColor=none;strokeWidth=2;fillColor=#bac8d3;strokeColor=light-dark(#23445D,#FFFFFF);" vertex="1" parent="E9M1CeIAFrQoyqNxMcxT-1">
          <mxGeometry x="-250" y="370" width="180" height="90" as="geometry" />
        </mxCell>
        <mxCell id="AKAA41pWLljICkMaR1Oy-1" value="" style="shape=tableRow;horizontal=0;startSize=0;swimlaneHead=0;swimlaneBody=0;fillColor=none;collapsible=0;dropTarget=0;points=[[0,0.5],[1,0.5]];portConstraint=eastwest;top=0;left=0;right=0;bottom=0;fontFamily=Helvetica;fontSize=11;fontColor=default;labelBackgroundColor=default;strokeWidth=2;" vertex="1" parent="AKAA41pWLljICkMaR1Oy-0">
          <mxGeometry y="30" width="180" height="30" as="geometry" />
        </mxCell>
        <mxCell id="AKAA41pWLljICkMaR1Oy-2" value="&lt;b&gt;FK&lt;/b&gt;" style="shape=partialRectangle;connectable=0;fillColor=none;top=0;left=0;bottom=0;right=0;editable=1;overflow=hidden;whiteSpace=wrap;html=1;fontFamily=Helvetica;fontSize=11;fontColor=default;labelBackgroundColor=default;strokeWidth=2;" vertex="1" parent="AKAA41pWLljICkMaR1Oy-1">
          <mxGeometry width="30" height="30" as="geometry">
            <mxRectangle width="30" height="30" as="alternateBounds" />
          </mxGeometry>
        </mxCell>
        <mxCell id="AKAA41pWLljICkMaR1Oy-3" value="&lt;b&gt;IncidenteID : bigint&lt;/b&gt;" style="shape=partialRectangle;connectable=0;fillColor=none;top=0;left=0;bottom=0;right=0;align=left;spacingLeft=6;overflow=hidden;whiteSpace=wrap;html=1;fontFamily=Helvetica;fontSize=11;fontColor=default;labelBackgroundColor=default;strokeWidth=2;" vertex="1" parent="AKAA41pWLljICkMaR1Oy-1">
          <mxGeometry x="30" width="150" height="30" as="geometry">
            <mxRectangle width="150" height="30" as="alternateBounds" />
          </mxGeometry>
        </mxCell>
        <mxCell id="AKAA41pWLljICkMaR1Oy-4" value="" style="shape=tableRow;horizontal=0;startSize=0;swimlaneHead=0;swimlaneBody=0;fillColor=none;collapsible=0;dropTarget=0;points=[[0,0.5],[1,0.5]];portConstraint=eastwest;top=0;left=0;right=0;bottom=1;fontFamily=Helvetica;fontSize=11;fontColor=default;labelBackgroundColor=default;strokeWidth=2;" vertex="1" parent="AKAA41pWLljICkMaR1Oy-0">
          <mxGeometry y="60" width="180" height="30" as="geometry" />
        </mxCell>
        <mxCell id="AKAA41pWLljICkMaR1Oy-5" value="FK" style="shape=partialRectangle;connectable=0;fillColor=none;top=0;left=0;bottom=0;right=0;fontStyle=1;overflow=hidden;whiteSpace=wrap;html=1;fontFamily=Helvetica;fontSize=11;fontColor=default;labelBackgroundColor=default;strokeWidth=2;" vertex="1" parent="AKAA41pWLljICkMaR1Oy-4">
          <mxGeometry width="30" height="30" as="geometry">
            <mxRectangle width="30" height="30" as="alternateBounds" />
          </mxGeometry>
        </mxCell>
        <mxCell id="AKAA41pWLljICkMaR1Oy-6" value="UserID: bigint" style="shape=partialRectangle;connectable=0;fillColor=none;top=0;left=0;bottom=0;right=0;align=left;spacingLeft=6;fontStyle=5;overflow=hidden;whiteSpace=wrap;html=1;fontFamily=Helvetica;fontSize=11;fontColor=default;labelBackgroundColor=default;strokeWidth=2;" vertex="1" parent="AKAA41pWLljICkMaR1Oy-4">
          <mxGeometry x="30" width="150" height="30" as="geometry">
            <mxRectangle width="150" height="30" as="alternateBounds" />
          </mxGeometry>
        </mxCell>
        <mxCell id="AKAA41pWLljICkMaR1Oy-7" value="" style="edgeStyle=orthogonalEdgeStyle;fontSize=12;html=1;endArrow=ERoneToMany;startArrow=ERzeroToOne;rounded=0;strokeColor=default;align=center;verticalAlign=middle;fontFamily=Helvetica;fontColor=default;labelBackgroundColor=default;entryX=0;entryY=0.5;entryDx=0;entryDy=0;startFill=0;strokeWidth=2;exitX=1.001;exitY=0.84;exitDx=0;exitDy=0;exitPerimeter=0;" edge="1" parent="E9M1CeIAFrQoyqNxMcxT-1" source="E9M1CeIAFrQoyqNxMcxT-3" target="AKAA41pWLljICkMaR1Oy-4">
          <mxGeometry width="100" height="100" relative="1" as="geometry">
            <mxPoint x="-300" y="145" as="sourcePoint" />
            <mxPoint x="-240" y="335" as="targetPoint" />
            <Array as="points">
              <mxPoint x="-280" y="152" />
              <mxPoint x="-280" y="445" />
            </Array>
          </mxGeometry>
        </mxCell>
        <mxCell id="AKAA41pWLljICkMaR1Oy-8" value="" style="edgeStyle=orthogonalEdgeStyle;fontSize=12;html=1;endArrow=ERoneToMany;startArrow=ERzeroToOne;rounded=0;strokeColor=default;align=center;verticalAlign=middle;fontFamily=Helvetica;fontColor=default;labelBackgroundColor=default;entryX=1;entryY=0.5;entryDx=0;entryDy=0;startFill=0;strokeWidth=2;exitX=0;exitY=0.858;exitDx=0;exitDy=0;exitPerimeter=0;" edge="1" parent="E9M1CeIAFrQoyqNxMcxT-1" source="E9M1CeIAFrQoyqNxMcxT-54" target="AKAA41pWLljICkMaR1Oy-1">
          <mxGeometry width="100" height="100" relative="1" as="geometry">
            <mxPoint y="135" as="sourcePoint" />
            <mxPoint x="-240" y="455" as="targetPoint" />
            <Array as="points">
              <mxPoint x="-30" y="136" />
              <mxPoint x="-30" y="415" />
            </Array>
          </mxGeometry>
        </mxCell>
        <mxCell id="C-wIKWvdVjHcmUsFcsOF-7" value="Rol" style="shape=table;startSize=30;container=1;collapsible=1;childLayout=tableLayout;fixedRows=1;rowLines=0;fontStyle=1;align=center;resizeLast=1;html=1;fontFamily=Helvetica;fontSize=11;labelBackgroundColor=none;strokeWidth=2;fillColor=#bac8d3;strokeColor=light-dark(#23445D,#FFFFFF);" vertex="1" parent="E9M1CeIAFrQoyqNxMcxT-1">
          <mxGeometry x="-760" y="170" width="180" height="90" as="geometry" />
        </mxCell>
        <mxCell id="C-wIKWvdVjHcmUsFcsOF-8" value="" style="shape=tableRow;horizontal=0;startSize=0;swimlaneHead=0;swimlaneBody=0;fillColor=none;collapsible=0;dropTarget=0;points=[[0,0.5],[1,0.5]];portConstraint=eastwest;top=0;left=0;right=0;bottom=1;fontFamily=Helvetica;fontSize=11;fontColor=default;labelBackgroundColor=default;strokeWidth=2;" vertex="1" parent="C-wIKWvdVjHcmUsFcsOF-7">
          <mxGeometry y="30" width="180" height="30" as="geometry" />
        </mxCell>
        <mxCell id="C-wIKWvdVjHcmUsFcsOF-9" value="PK" style="shape=partialRectangle;connectable=0;fillColor=none;top=0;left=0;bottom=0;right=0;fontStyle=1;overflow=hidden;whiteSpace=wrap;html=1;fontFamily=Helvetica;fontSize=11;fontColor=default;labelBackgroundColor=default;strokeWidth=2;" vertex="1" parent="C-wIKWvdVjHcmUsFcsOF-8">
          <mxGeometry width="30" height="30" as="geometry">
            <mxRectangle width="30" height="30" as="alternateBounds" />
          </mxGeometry>
        </mxCell>
        <mxCell id="C-wIKWvdVjHcmUsFcsOF-10" value="&lt;u style=&quot;font-weight: 400;&quot;&gt;&lt;b&gt;RolID: int2&lt;/b&gt;&lt;/u&gt;" style="shape=partialRectangle;connectable=0;fillColor=none;top=0;left=0;bottom=0;right=0;align=left;spacingLeft=6;fontStyle=5;overflow=hidden;whiteSpace=wrap;html=1;fontFamily=Helvetica;fontSize=11;fontColor=default;labelBackgroundColor=default;strokeWidth=2;" vertex="1" parent="C-wIKWvdVjHcmUsFcsOF-8">
          <mxGeometry x="30" width="150" height="30" as="geometry">
            <mxRectangle width="150" height="30" as="alternateBounds" />
          </mxGeometry>
        </mxCell>
        <mxCell id="C-wIKWvdVjHcmUsFcsOF-11" value="" style="shape=tableRow;horizontal=0;startSize=0;swimlaneHead=0;swimlaneBody=0;fillColor=none;collapsible=0;dropTarget=0;points=[[0,0.5],[1,0.5]];portConstraint=eastwest;top=0;left=0;right=0;bottom=0;fontFamily=Helvetica;fontSize=11;fontColor=default;labelBackgroundColor=default;strokeWidth=2;" vertex="1" parent="C-wIKWvdVjHcmUsFcsOF-7">
          <mxGeometry y="60" width="180" height="30" as="geometry" />
        </mxCell>
        <mxCell id="C-wIKWvdVjHcmUsFcsOF-12" value="" style="shape=partialRectangle;connectable=0;fillColor=none;top=0;left=0;bottom=0;right=0;editable=1;overflow=hidden;whiteSpace=wrap;html=1;fontFamily=Helvetica;fontSize=11;fontColor=default;labelBackgroundColor=default;strokeWidth=2;" vertex="1" parent="C-wIKWvdVjHcmUsFcsOF-11">
          <mxGeometry width="30" height="30" as="geometry">
            <mxRectangle width="30" height="30" as="alternateBounds" />
          </mxGeometry>
        </mxCell>
        <mxCell id="C-wIKWvdVjHcmUsFcsOF-13" value="Nombre: varchar(45)" style="shape=partialRectangle;connectable=0;fillColor=none;top=0;left=0;bottom=0;right=0;align=left;spacingLeft=6;overflow=hidden;whiteSpace=wrap;html=1;fontFamily=Helvetica;fontSize=11;fontColor=default;labelBackgroundColor=default;strokeWidth=2;" vertex="1" parent="C-wIKWvdVjHcmUsFcsOF-11">
          <mxGeometry x="30" width="150" height="30" as="geometry">
            <mxRectangle width="150" height="30" as="alternateBounds" />
          </mxGeometry>
        </mxCell>
        <mxCell id="C-wIKWvdVjHcmUsFcsOF-14" value="" style="edgeStyle=orthogonalEdgeStyle;fontSize=12;html=1;endArrow=ERmandOne;startArrow=ERoneToMany;rounded=0;strokeColor=default;align=center;verticalAlign=middle;fontFamily=Helvetica;fontColor=default;labelBackgroundColor=default;entryX=1;entryY=0.5;entryDx=0;entryDy=0;startFill=0;strokeWidth=2;exitX=0;exitY=0.5;exitDx=0;exitDy=0;endFill=0;" edge="1" parent="E9M1CeIAFrQoyqNxMcxT-1" source="E9M1CeIAFrQoyqNxMcxT-3" target="C-wIKWvdVjHcmUsFcsOF-8">
          <mxGeometry width="100" height="100" relative="1" as="geometry">
            <mxPoint x="-300" y="151" as="sourcePoint" />
            <mxPoint x="-240" y="335" as="targetPoint" />
            <Array as="points">
              <mxPoint x="-520" y="135" />
              <mxPoint x="-520" y="215" />
            </Array>
          </mxGeometry>
        </mxCell>
      </root>
    </mxGraphModel>
  </diagram>
</mxfile>
